<?xml version="1.0" encoding="UTF-8" standalone="no"?>
<!DOCTYPE svg PUBLIC "-//W3C//DTD SVG 1.1//EN"
 "http://www.w3.org/Graphics/SVG/1.1/DTD/svg11.dtd">
<!-- Generated by graphviz version 10.0.1 (20240210.2158)
 -->
<!-- Pages: 1 -->
<svg width="466pt" height="100pt"
 viewBox="0.00 0.00 465.50 100.00" xmlns="http://www.w3.org/2000/svg" xmlns:xlink="http://www.w3.org/1999/xlink">
<g id="graph0" class="graph" transform="scale(1 1) rotate(0) translate(4 96)">
<polygon fill="white" stroke="none" points="-4,4 -4,-96 461.5,-96 461.5,4 -4,4"/>
<!-- 4748507168 -->
<g id="node1" class="node">
<title>4748507168</title>
<polygon fill="none" stroke="black" points="0,-55.5 0,-91.5 165.75,-91.5 165.75,-55.5 0,-55.5"/>
<text text-anchor="middle" x="11.38" y="-68.7" font-family="Times,serif" font-size="14.00">b</text>
<polyline fill="none" stroke="black" points="22.75,-56 22.75,-91.5"/>
<text text-anchor="middle" x="51.75" y="-68.7" font-family="Times,serif" font-size="14.00">&#45;3.0000</text>
<polyline fill="none" stroke="black" points="80.75,-56 80.75,-91.5"/>
<text text-anchor="middle" x="123.25" y="-68.7" font-family="Times,serif" font-size="14.00">grad: 0.0000</text>
</g>
<!-- 4748506736* -->
<g id="node4" class="node">
<title>4748506736*</title>
<ellipse fill="none" stroke="black" cx="228.75" cy="-45.5" rx="27" ry="18"/>
<text text-anchor="middle" x="228.75" y="-40.45" font-family="Times,serif" font-size="14.00">*</text>
</g>
<!-- 4748507168&#45;&gt;4748506736* -->
<g id="edge2" class="edge">
<title>4748507168&#45;&gt;4748506736*</title>
<path fill="none" stroke="black" d="M165.9,-57.54C174.7,-55.82 183.29,-54.15 191.14,-52.62"/>
<polygon fill="black" stroke="black" points="191.78,-56.07 200.93,-50.72 190.44,-49.2 191.78,-56.07"/>
</g>
<!-- 4748507744 -->
<g id="node2" class="node">
<title>4748507744</title>
<polygon fill="none" stroke="black" points="2.62,-0.5 2.62,-36.5 163.12,-36.5 163.12,-0.5 2.62,-0.5"/>
<text text-anchor="middle" x="13.62" y="-13.7" font-family="Times,serif" font-size="14.00">a</text>
<polyline fill="none" stroke="black" points="24.62,-1 24.62,-36.5"/>
<text text-anchor="middle" x="51.38" y="-13.7" font-family="Times,serif" font-size="14.00">2.0000</text>
<polyline fill="none" stroke="black" points="78.12,-1 78.12,-36.5"/>
<text text-anchor="middle" x="120.62" y="-13.7" font-family="Times,serif" font-size="14.00">grad: 0.0000</text>
</g>
<!-- 4748507744&#45;&gt;4748506736* -->
<g id="edge3" class="edge">
<title>4748507744&#45;&gt;4748506736*</title>
<path fill="none" stroke="black" d="M163.39,-33.42C173.13,-35.25 182.68,-37.04 191.32,-38.66"/>
<polygon fill="black" stroke="black" points="190.51,-42.07 200.98,-40.48 191.8,-35.19 190.51,-42.07"/>
</g>
<!-- 4748506736 -->
<g id="node3" class="node">
<title>4748506736</title>
<polygon fill="none" stroke="black" points="291.75,-27.5 291.75,-63.5 457.5,-63.5 457.5,-27.5 291.75,-27.5"/>
<text text-anchor="middle" x="303.12" y="-40.7" font-family="Times,serif" font-size="14.00">d</text>
<polyline fill="none" stroke="black" points="314.5,-28 314.5,-63.5"/>
<text text-anchor="middle" x="343.5" y="-40.7" font-family="Times,serif" font-size="14.00">&#45;6.0000</text>
<polyline fill="none" stroke="black" points="372.5,-28 372.5,-63.5"/>
<text text-anchor="middle" x="415" y="-40.7" font-family="Times,serif" font-size="14.00">grad: 0.0000</text>
</g>
<!-- 4748506736*&#45;&gt;4748506736 -->
<g id="edge1" class="edge">
<title>4748506736*&#45;&gt;4748506736</title>
<path fill="none" stroke="black" d="M256.14,-45.5C263.25,-45.5 271.36,-45.5 279.93,-45.5"/>
<polygon fill="black" stroke="black" points="279.9,-49 289.9,-45.5 279.9,-42 279.9,-49"/>
</g>
</g>
</svg>
