<?xml version="1.0" encoding="UTF-8" standalone="no"?>
<!DOCTYPE svg PUBLIC "-//W3C//DTD SVG 1.1//EN"
 "http://www.w3.org/Graphics/SVG/1.1/DTD/svg11.dtd">
<!-- Generated by graphviz version 10.0.1 (20240210.2158)
 -->
<!-- Pages: 1 -->
<svg width="1050pt" height="156pt"
 viewBox="0.00 0.00 1049.75 156.00" xmlns="http://www.w3.org/2000/svg" xmlns:xlink="http://www.w3.org/1999/xlink">
<g id="graph0" class="graph" transform="scale(1 1) rotate(0) translate(4 152)">
<polygon fill="white" stroke="none" points="-4,4 -4,-152 1045.75,-152 1045.75,4 -4,4"/>
<!-- 4748507168 -->
<g id="node1" class="node">
<title>4748507168</title>
<polygon fill="none" stroke="black" points="0,-111.5 0,-147.5 165.75,-147.5 165.75,-111.5 0,-111.5"/>
<text text-anchor="middle" x="11.38" y="-124.7" font-family="Times,serif" font-size="14.00">b</text>
<polyline fill="none" stroke="black" points="22.75,-112 22.75,-147.5"/>
<text text-anchor="middle" x="51.75" y="-124.7" font-family="Times,serif" font-size="14.00">&#45;3.0000</text>
<polyline fill="none" stroke="black" points="80.75,-112 80.75,-147.5"/>
<text text-anchor="middle" x="123.25" y="-124.7" font-family="Times,serif" font-size="14.00">grad: 0.0000</text>
</g>
<!-- 4748506736* -->
<g id="node4" class="node">
<title>4748506736*</title>
<ellipse fill="none" stroke="black" cx="228.75" cy="-101.5" rx="27" ry="18"/>
<text text-anchor="middle" x="228.75" y="-96.45" font-family="Times,serif" font-size="14.00">*</text>
</g>
<!-- 4748507168&#45;&gt;4748506736* -->
<g id="edge5" class="edge">
<title>4748507168&#45;&gt;4748506736*</title>
<path fill="none" stroke="black" d="M165.9,-113.54C174.7,-111.82 183.29,-110.15 191.14,-108.62"/>
<polygon fill="black" stroke="black" points="191.78,-112.07 200.93,-106.72 190.44,-105.2 191.78,-112.07"/>
</g>
<!-- 4748507744 -->
<g id="node2" class="node">
<title>4748507744</title>
<polygon fill="none" stroke="black" points="2.62,-56.5 2.62,-92.5 163.12,-92.5 163.12,-56.5 2.62,-56.5"/>
<text text-anchor="middle" x="13.62" y="-69.7" font-family="Times,serif" font-size="14.00">a</text>
<polyline fill="none" stroke="black" points="24.62,-57 24.62,-92.5"/>
<text text-anchor="middle" x="51.38" y="-69.7" font-family="Times,serif" font-size="14.00">2.0000</text>
<polyline fill="none" stroke="black" points="78.12,-57 78.12,-92.5"/>
<text text-anchor="middle" x="120.62" y="-69.7" font-family="Times,serif" font-size="14.00">grad: 0.0000</text>
</g>
<!-- 4748507744&#45;&gt;4748506736* -->
<g id="edge8" class="edge">
<title>4748507744&#45;&gt;4748506736*</title>
<path fill="none" stroke="black" d="M163.39,-89.42C173.13,-91.25 182.68,-93.04 191.32,-94.66"/>
<polygon fill="black" stroke="black" points="190.51,-98.07 200.98,-96.48 191.8,-91.19 190.51,-98.07"/>
</g>
<!-- 4748506736 -->
<g id="node3" class="node">
<title>4748506736</title>
<polygon fill="none" stroke="black" points="292.5,-83.5 292.5,-119.5 458.25,-119.5 458.25,-83.5 292.5,-83.5"/>
<text text-anchor="middle" x="303.88" y="-96.7" font-family="Times,serif" font-size="14.00">d</text>
<polyline fill="none" stroke="black" points="315.25,-84 315.25,-119.5"/>
<text text-anchor="middle" x="344.25" y="-96.7" font-family="Times,serif" font-size="14.00">&#45;6.0000</text>
<polyline fill="none" stroke="black" points="373.25,-84 373.25,-119.5"/>
<text text-anchor="middle" x="415.75" y="-96.7" font-family="Times,serif" font-size="14.00">grad: 0.0000</text>
</g>
<!-- 4748506304+ -->
<g id="node6" class="node">
<title>4748506304+</title>
<ellipse fill="none" stroke="black" cx="522" cy="-73.5" rx="27" ry="18"/>
<text text-anchor="middle" x="522" y="-68.45" font-family="Times,serif" font-size="14.00">+</text>
</g>
<!-- 4748506736&#45;&gt;4748506304+ -->
<g id="edge9" class="edge">
<title>4748506736&#45;&gt;4748506304+</title>
<path fill="none" stroke="black" d="M458.41,-85.62C467.49,-83.86 476.36,-82.14 484.44,-80.58"/>
<polygon fill="black" stroke="black" points="485,-84.04 494.15,-78.7 483.67,-77.16 485,-84.04"/>
</g>
<!-- 4748506736*&#45;&gt;4748506736 -->
<g id="edge1" class="edge">
<title>4748506736*&#45;&gt;4748506736</title>
<path fill="none" stroke="black" d="M255.94,-101.5C263.27,-101.5 271.68,-101.5 280.56,-101.5"/>
<polygon fill="black" stroke="black" points="280.51,-105 290.51,-101.5 280.51,-98 280.51,-105"/>
</g>
<!-- 4748506304 -->
<g id="node5" class="node">
<title>4748506304</title>
<polygon fill="none" stroke="black" points="586.5,-55.5 586.5,-91.5 747,-91.5 747,-55.5 586.5,-55.5"/>
<text text-anchor="middle" x="597.5" y="-68.7" font-family="Times,serif" font-size="14.00">e</text>
<polyline fill="none" stroke="black" points="608.5,-56 608.5,-91.5"/>
<text text-anchor="middle" x="635.25" y="-68.7" font-family="Times,serif" font-size="14.00">4.0000</text>
<polyline fill="none" stroke="black" points="662,-56 662,-91.5"/>
<text text-anchor="middle" x="704.5" y="-68.7" font-family="Times,serif" font-size="14.00">grad: 0.0000</text>
</g>
<!-- 4748506016* -->
<g id="node9" class="node">
<title>4748506016*</title>
<ellipse fill="none" stroke="black" cx="811.5" cy="-45.5" rx="27" ry="18"/>
<text text-anchor="middle" x="811.5" y="-40.45" font-family="Times,serif" font-size="14.00">*</text>
</g>
<!-- 4748506304&#45;&gt;4748506016* -->
<g id="edge6" class="edge">
<title>4748506304&#45;&gt;4748506016*</title>
<path fill="none" stroke="black" d="M747.47,-57.86C756.76,-56.04 765.86,-54.26 774.13,-52.63"/>
<polygon fill="black" stroke="black" points="774.57,-56.12 783.7,-50.76 773.22,-49.25 774.57,-56.12"/>
</g>
<!-- 4748506304+&#45;&gt;4748506304 -->
<g id="edge2" class="edge">
<title>4748506304+&#45;&gt;4748506304</title>
<path fill="none" stroke="black" d="M549.18,-73.5C556.79,-73.5 565.57,-73.5 574.82,-73.5"/>
<polygon fill="black" stroke="black" points="574.78,-77 584.78,-73.5 574.78,-70 574.78,-77"/>
</g>
<!-- 4748507360 -->
<g id="node7" class="node">
<title>4748507360</title>
<polygon fill="none" stroke="black" points="585,-0.5 585,-36.5 748.5,-36.5 748.5,-0.5 585,-0.5"/>
<text text-anchor="middle" x="595.25" y="-13.7" font-family="Times,serif" font-size="14.00">f</text>
<polyline fill="none" stroke="black" points="605.5,-1 605.5,-36.5"/>
<text text-anchor="middle" x="634.5" y="-13.7" font-family="Times,serif" font-size="14.00">&#45;2.0000</text>
<polyline fill="none" stroke="black" points="663.5,-1 663.5,-36.5"/>
<text text-anchor="middle" x="706" y="-13.7" font-family="Times,serif" font-size="14.00">grad: 0.0000</text>
</g>
<!-- 4748507360&#45;&gt;4748506016* -->
<g id="edge7" class="edge">
<title>4748507360&#45;&gt;4748506016*</title>
<path fill="none" stroke="black" d="M748.72,-33.81C757.49,-35.47 766.07,-37.1 773.91,-38.58"/>
<polygon fill="black" stroke="black" points="773.2,-42.01 783.68,-40.43 774.5,-35.13 773.2,-42.01"/>
</g>
<!-- 4748506016 -->
<g id="node8" class="node">
<title>4748506016</title>
<polygon fill="none" stroke="black" points="874.5,-27.5 874.5,-63.5 1041.75,-63.5 1041.75,-27.5 874.5,-27.5"/>
<text text-anchor="middle" x="886.62" y="-40.7" font-family="Times,serif" font-size="14.00">L</text>
<polyline fill="none" stroke="black" points="898.75,-28 898.75,-63.5"/>
<text text-anchor="middle" x="927.75" y="-40.7" font-family="Times,serif" font-size="14.00">&#45;8.0000</text>
<polyline fill="none" stroke="black" points="956.75,-28 956.75,-63.5"/>
<text text-anchor="middle" x="999.25" y="-40.7" font-family="Times,serif" font-size="14.00">grad: 0.0000</text>
</g>
<!-- 4748506016*&#45;&gt;4748506016 -->
<g id="edge3" class="edge">
<title>4748506016*&#45;&gt;4748506016</title>
<path fill="none" stroke="black" d="M838.69,-45.5C845.9,-45.5 854.16,-45.5 862.9,-45.5"/>
<polygon fill="black" stroke="black" points="862.65,-49 872.65,-45.5 862.65,-42 862.65,-49"/>
</g>
<!-- 4748507552 -->
<g id="node10" class="node">
<title>4748507552</title>
<polygon fill="none" stroke="black" points="291.75,-28.5 291.75,-64.5 459,-64.5 459,-28.5 291.75,-28.5"/>
<text text-anchor="middle" x="302.75" y="-41.7" font-family="Times,serif" font-size="14.00">c</text>
<polyline fill="none" stroke="black" points="313.75,-29 313.75,-64.5"/>
<text text-anchor="middle" x="343.88" y="-41.7" font-family="Times,serif" font-size="14.00">10.0000</text>
<polyline fill="none" stroke="black" points="374,-29 374,-64.5"/>
<text text-anchor="middle" x="416.5" y="-41.7" font-family="Times,serif" font-size="14.00">grad: 0.0000</text>
</g>
<!-- 4748507552&#45;&gt;4748506304+ -->
<g id="edge4" class="edge">
<title>4748507552&#45;&gt;4748506304+</title>
<path fill="none" stroke="black" d="M459.25,-61.97C468.05,-63.61 476.64,-65.22 484.47,-66.68"/>
<polygon fill="black" stroke="black" points="483.76,-70.11 494.24,-68.5 485.05,-63.23 483.76,-70.11"/>
</g>
</g>
</svg>
