<?xml version="1.0" encoding="UTF-8" standalone="no"?>
<!DOCTYPE svg PUBLIC "-//W3C//DTD SVG 1.1//EN"
 "http://www.w3.org/Graphics/SVG/1.1/DTD/svg11.dtd">
<!-- Generated by graphviz version 10.0.1 (20240210.2158)
 -->
<!-- Pages: 1 -->
<svg width="499pt" height="127pt"
 viewBox="0.00 0.00 499.25 127.00" xmlns="http://www.w3.org/2000/svg" xmlns:xlink="http://www.w3.org/1999/xlink">
<g id="graph0" class="graph" transform="scale(1 1) rotate(0) translate(4 123)">
<polygon fill="white" stroke="none" points="-4,4 -4,-123 495.25,-123 495.25,4 -4,4"/>
<!-- 4674811648 -->
<g id="node1" class="node">
<title>4674811648</title>
<polygon fill="none" stroke="black" points="206.75,-82.5 206.75,-118.5 289,-118.5 289,-82.5 206.75,-82.5"/>
<text text-anchor="middle" x="217.75" y="-95.7" font-family="Times,serif" font-size="14.00">c</text>
<polyline fill="none" stroke="black" points="228.75,-83 228.75,-118.5"/>
<text text-anchor="middle" x="258.88" y="-95.7" font-family="Times,serif" font-size="14.00">10.0000</text>
</g>
<!-- 4674812224+ -->
<g id="node5" class="node">
<title>4674812224+</title>
<ellipse fill="none" stroke="black" cx="352" cy="-72.5" rx="27" ry="18"/>
<text text-anchor="middle" x="352" y="-67.45" font-family="Times,serif" font-size="14.00">+</text>
</g>
<!-- 4674811648&#45;&gt;4674812224+ -->
<g id="edge3" class="edge">
<title>4674811648&#45;&gt;4674812224+</title>
<path fill="none" stroke="black" d="M289.24,-89.43C297.9,-87.06 306.99,-84.57 315.46,-82.24"/>
<polygon fill="black" stroke="black" points="316.33,-85.63 325.05,-79.61 314.48,-78.88 316.33,-85.63"/>
</g>
<!-- 4674812704 -->
<g id="node2" class="node">
<title>4674812704</title>
<polygon fill="none" stroke="black" points="0,-55.5 0,-91.5 80.75,-91.5 80.75,-55.5 0,-55.5"/>
<text text-anchor="middle" x="11.38" y="-68.7" font-family="Times,serif" font-size="14.00">b</text>
<polyline fill="none" stroke="black" points="22.75,-56 22.75,-91.5"/>
<text text-anchor="middle" x="51.75" y="-68.7" font-family="Times,serif" font-size="14.00">&#45;3.0000</text>
</g>
<!-- 4674811312* -->
<g id="node7" class="node">
<title>4674811312*</title>
<ellipse fill="none" stroke="black" cx="143.75" cy="-45.5" rx="27" ry="18"/>
<text text-anchor="middle" x="143.75" y="-40.45" font-family="Times,serif" font-size="14.00">*</text>
</g>
<!-- 4674812704&#45;&gt;4674811312* -->
<g id="edge6" class="edge">
<title>4674812704&#45;&gt;4674811312*</title>
<path fill="none" stroke="black" d="M81.15,-62.51C89.77,-60.13 98.83,-57.63 107.27,-55.3"/>
<polygon fill="black" stroke="black" points="108.13,-58.69 116.84,-52.66 106.27,-51.95 108.13,-58.69"/>
</g>
<!-- 4674813232 -->
<g id="node3" class="node">
<title>4674813232</title>
<polygon fill="none" stroke="black" points="2.62,-0.5 2.62,-36.5 78.12,-36.5 78.12,-0.5 2.62,-0.5"/>
<text text-anchor="middle" x="13.62" y="-13.7" font-family="Times,serif" font-size="14.00">a</text>
<polyline fill="none" stroke="black" points="24.62,-1 24.62,-36.5"/>
<text text-anchor="middle" x="51.38" y="-13.7" font-family="Times,serif" font-size="14.00">2.0000</text>
</g>
<!-- 4674813232&#45;&gt;4674811312* -->
<g id="edge5" class="edge">
<title>4674813232&#45;&gt;4674811312*</title>
<path fill="none" stroke="black" d="M78.55,-28.4C87.95,-30.9 98.02,-33.59 107.33,-36.07"/>
<polygon fill="black" stroke="black" points="106.19,-39.38 116.75,-38.58 107.99,-32.62 106.19,-39.38"/>
</g>
<!-- 4674812224 -->
<g id="node4" class="node">
<title>4674812224</title>
<polygon fill="none" stroke="black" points="415,-54.5 415,-90.5 491.25,-90.5 491.25,-54.5 415,-54.5"/>
<text text-anchor="middle" x="426.38" y="-67.7" font-family="Times,serif" font-size="14.00">d</text>
<polyline fill="none" stroke="black" points="437.75,-55 437.75,-90.5"/>
<text text-anchor="middle" x="464.5" y="-67.7" font-family="Times,serif" font-size="14.00">4.0000</text>
</g>
<!-- 4674812224+&#45;&gt;4674812224 -->
<g id="edge1" class="edge">
<title>4674812224+&#45;&gt;4674812224</title>
<path fill="none" stroke="black" d="M379.3,-72.5C386.63,-72.5 394.84,-72.5 403.03,-72.5"/>
<polygon fill="black" stroke="black" points="402.99,-76 412.99,-72.5 402.99,-69 402.99,-76"/>
</g>
<!-- 4674811312 -->
<g id="node6" class="node">
<title>4674811312</title>
<polygon fill="none" stroke="black" points="209,-27.5 209,-63.5 286.75,-63.5 286.75,-27.5 209,-27.5"/>
<text text-anchor="middle" x="218.88" y="-40.7" font-family="Times,serif" font-size="14.00"> </text>
<polyline fill="none" stroke="black" points="228.75,-28 228.75,-63.5"/>
<text text-anchor="middle" x="257.75" y="-40.7" font-family="Times,serif" font-size="14.00">&#45;6.0000</text>
</g>
<!-- 4674811312&#45;&gt;4674812224+ -->
<g id="edge4" class="edge">
<title>4674811312&#45;&gt;4674812224+</title>
<path fill="none" stroke="black" d="M287.19,-55.63C296.43,-58.07 306.25,-60.67 315.36,-63.08"/>
<polygon fill="black" stroke="black" points="314.38,-66.44 324.94,-65.61 316.17,-59.67 314.38,-66.44"/>
</g>
<!-- 4674811312*&#45;&gt;4674811312 -->
<g id="edge2" class="edge">
<title>4674811312*&#45;&gt;4674811312</title>
<path fill="none" stroke="black" d="M171.05,-45.5C179.11,-45.5 188.26,-45.5 197.34,-45.5"/>
<polygon fill="black" stroke="black" points="197.21,-49 207.21,-45.5 197.21,-42 197.21,-49"/>
</g>
</g>
</svg>
