<?xml version="1.0" encoding="UTF-8" standalone="no"?>
<!DOCTYPE svg PUBLIC "-//W3C//DTD SVG 1.1//EN"
 "http://www.w3.org/Graphics/SVG/1.1/DTD/svg11.dtd">
<!-- Generated by graphviz version 10.0.1 (20240210.2158)
 -->
<!-- Pages: 1 -->
<svg width="2673pt" height="237pt"
 viewBox="0.00 0.00 2672.75 237.00" xmlns="http://www.w3.org/2000/svg" xmlns:xlink="http://www.w3.org/1999/xlink">
<g id="graph0" class="graph" transform="scale(1 1) rotate(0) translate(4 233)">
<polygon fill="white" stroke="none" points="-4,4 -4,-233 2668.75,-233 2668.75,4 -4,4"/>
<!-- 6044968992 -->
<g id="node1" class="node">
<title>6044968992</title>
<polygon fill="none" stroke="black" points="616.5,-82.5 616.5,-118.5 835.5,-118.5 835.5,-82.5 616.5,-82.5"/>
<text text-anchor="middle" x="654.5" y="-95.7" font-family="Times,serif" font-size="14.00">w0x0w1x1</text>
<polyline fill="none" stroke="black" points="692.5,-83 692.5,-118.5"/>
<text text-anchor="middle" x="721.5" y="-95.7" font-family="Times,serif" font-size="14.00">&#45;6.0000</text>
<polyline fill="none" stroke="black" points="750.5,-83 750.5,-118.5"/>
<text text-anchor="middle" x="793" y="-95.7" font-family="Times,serif" font-size="14.00">grad: 0.5000</text>
</g>
<!-- 6044893920+ -->
<g id="node6" class="node">
<title>6044893920+</title>
<ellipse fill="none" stroke="black" cx="898.5" cy="-127.5" rx="27" ry="18"/>
<text text-anchor="middle" x="898.5" y="-122.45" font-family="Times,serif" font-size="14.00">+</text>
</g>
<!-- 6044968992&#45;&gt;6044893920+ -->
<g id="edge15" class="edge">
<title>6044968992&#45;&gt;6044893920+</title>
<path fill="none" stroke="black" d="M835.95,-117.75C844.68,-119.14 853.06,-120.46 860.67,-121.67"/>
<polygon fill="black" stroke="black" points="860.01,-125.11 870.43,-123.21 861.1,-118.19 860.01,-125.11"/>
</g>
<!-- 6044968992+ -->
<g id="node2" class="node">
<title>6044968992+</title>
<ellipse fill="none" stroke="black" cx="553.5" cy="-100.5" rx="27" ry="18"/>
<text text-anchor="middle" x="553.5" y="-95.45" font-family="Times,serif" font-size="14.00">+</text>
</g>
<!-- 6044968992+&#45;&gt;6044968992 -->
<g id="edge1" class="edge">
<title>6044968992+&#45;&gt;6044968992</title>
<path fill="none" stroke="black" d="M580.77,-100.5C587.86,-100.5 596.02,-100.5 604.78,-100.5"/>
<polygon fill="black" stroke="black" points="604.64,-104 614.64,-100.5 604.64,-97 604.64,-104"/>
</g>
<!-- 5771450640 -->
<g id="node3" class="node">
<title>5771450640</title>
<polygon fill="none" stroke="black" points="303.75,-110.5 303.75,-146.5 488.25,-146.5 488.25,-110.5 303.75,-110.5"/>
<text text-anchor="middle" x="326.75" y="-123.7" font-family="Times,serif" font-size="14.00">w1x1</text>
<polyline fill="none" stroke="black" points="349.75,-111 349.75,-146.5"/>
<text text-anchor="middle" x="376.5" y="-123.7" font-family="Times,serif" font-size="14.00">0.0000</text>
<polyline fill="none" stroke="black" points="403.25,-111 403.25,-146.5"/>
<text text-anchor="middle" x="445.75" y="-123.7" font-family="Times,serif" font-size="14.00">grad: 0.5000</text>
</g>
<!-- 5771450640&#45;&gt;6044968992+ -->
<g id="edge16" class="edge">
<title>5771450640&#45;&gt;6044968992+</title>
<path fill="none" stroke="black" d="M488.35,-112.05C497.97,-110.32 507.3,-108.64 515.73,-107.12"/>
<polygon fill="black" stroke="black" points="516.27,-110.58 525.49,-105.36 515.03,-103.69 516.27,-110.58"/>
</g>
<!-- 5771450640* -->
<g id="node4" class="node">
<title>5771450640*</title>
<ellipse fill="none" stroke="black" cx="238.5" cy="-128.5" rx="27" ry="18"/>
<text text-anchor="middle" x="238.5" y="-123.45" font-family="Times,serif" font-size="14.00">*</text>
</g>
<!-- 5771450640*&#45;&gt;5771450640 -->
<g id="edge2" class="edge">
<title>5771450640*&#45;&gt;5771450640</title>
<path fill="none" stroke="black" d="M265.88,-128.5C273.6,-128.5 282.55,-128.5 292.06,-128.5"/>
<polygon fill="black" stroke="black" points="291.93,-132 301.93,-128.5 291.93,-125 291.93,-132"/>
</g>
<!-- 6044893920 -->
<g id="node5" class="node">
<title>6044893920</title>
<polygon fill="none" stroke="black" points="961.5,-109.5 961.5,-145.5 1122.75,-145.5 1122.75,-109.5 961.5,-109.5"/>
<text text-anchor="middle" x="972.88" y="-122.7" font-family="Times,serif" font-size="14.00">n</text>
<polyline fill="none" stroke="black" points="984.25,-110 984.25,-145.5"/>
<text text-anchor="middle" x="1011" y="-122.7" font-family="Times,serif" font-size="14.00">0.8814</text>
<polyline fill="none" stroke="black" points="1037.75,-110 1037.75,-145.5"/>
<text text-anchor="middle" x="1080.25" y="-122.7" font-family="Times,serif" font-size="14.00">grad: 0.5000</text>
</g>
<!-- 6044894112e -->
<g id="node11" class="node">
<title>6044894112e</title>
<ellipse fill="none" stroke="black" cx="1185.75" cy="-100.5" rx="27" ry="18"/>
<text text-anchor="middle" x="1185.75" y="-95.45" font-family="Times,serif" font-size="14.00">e</text>
</g>
<!-- 6044893920&#45;&gt;6044894112e -->
<g id="edge13" class="edge">
<title>6044893920&#45;&gt;6044894112e</title>
<path fill="none" stroke="black" d="M1123.04,-112.26C1131.79,-110.6 1140.35,-108.96 1148.18,-107.47"/>
<polygon fill="black" stroke="black" points="1148.77,-110.92 1157.94,-105.61 1147.46,-104.05 1148.77,-110.92"/>
</g>
<!-- 6047007984e -->
<g id="node19" class="node">
<title>6047007984e</title>
<ellipse fill="none" stroke="black" cx="1185.75" cy="-154.5" rx="27" ry="18"/>
<text text-anchor="middle" x="1185.75" y="-149.45" font-family="Times,serif" font-size="14.00">e</text>
</g>
<!-- 6044893920&#45;&gt;6047007984e -->
<g id="edge14" class="edge">
<title>6044893920&#45;&gt;6047007984e</title>
<path fill="none" stroke="black" d="M1123.04,-142.74C1131.79,-144.4 1140.35,-146.04 1148.18,-147.53"/>
<polygon fill="black" stroke="black" points="1147.46,-150.95 1157.94,-149.39 1148.77,-144.08 1147.46,-150.95"/>
</g>
<!-- 6044893920+&#45;&gt;6044893920 -->
<g id="edge3" class="edge">
<title>6044893920+&#45;&gt;6044893920</title>
<path fill="none" stroke="black" d="M925.81,-127.5C932.93,-127.5 941.05,-127.5 949.63,-127.5"/>
<polygon fill="black" stroke="black" points="949.59,-131 959.59,-127.5 949.59,-124 949.59,-131"/>
</g>
<!-- 5771559648 -->
<g id="node7" class="node">
<title>5771559648</title>
<polygon fill="none" stroke="black" points="1539.75,-82.5 1539.75,-118.5 1698,-118.5 1698,-82.5 1539.75,-82.5"/>
<text text-anchor="middle" x="1549.62" y="-95.7" font-family="Times,serif" font-size="14.00"> </text>
<polyline fill="none" stroke="black" points="1559.5,-83 1559.5,-118.5"/>
<text text-anchor="middle" x="1586.25" y="-95.7" font-family="Times,serif" font-size="14.00">5.8285</text>
<polyline fill="none" stroke="black" points="1613,-83 1613,-118.5"/>
<text text-anchor="middle" x="1655.5" y="-95.7" font-family="Times,serif" font-size="14.00">grad: 0.1464</text>
</g>
<!-- 5771562768+ -->
<g id="node28" class="node">
<title>5771562768+</title>
<ellipse fill="none" stroke="black" cx="1763.25" cy="-100.5" rx="27" ry="18"/>
<text text-anchor="middle" x="1763.25" y="-95.45" font-family="Times,serif" font-size="14.00">+</text>
</g>
<!-- 5771559648&#45;&gt;5771562768+ -->
<g id="edge24" class="edge">
<title>5771559648&#45;&gt;5771562768+</title>
<path fill="none" stroke="black" d="M1698.14,-100.5C1707.26,-100.5 1716.22,-100.5 1724.42,-100.5"/>
<polygon fill="black" stroke="black" points="1724.3,-104 1734.3,-100.5 1724.3,-97 1724.3,-104"/>
</g>
<!-- 5771559648**2 -->
<g id="node8" class="node">
<title>5771559648**2</title>
<ellipse fill="none" stroke="black" cx="1474.5" cy="-100.5" rx="27" ry="18"/>
<text text-anchor="middle" x="1474.5" y="-95.45" font-family="Times,serif" font-size="14.00">**2</text>
</g>
<!-- 5771559648**2&#45;&gt;5771559648 -->
<g id="edge4" class="edge">
<title>5771559648**2&#45;&gt;5771559648</title>
<path fill="none" stroke="black" d="M1501.95,-100.5C1509.75,-100.5 1518.76,-100.5 1528.24,-100.5"/>
<polygon fill="black" stroke="black" points="1528.02,-104 1538.02,-100.5 1528.02,-97 1528.02,-104"/>
</g>
<!-- 5771500416 -->
<g id="node9" class="node">
<title>5771500416</title>
<polygon fill="none" stroke="black" points="2.25,-165.5 2.25,-201.5 173.25,-201.5 173.25,-165.5 2.25,-165.5"/>
<text text-anchor="middle" x="18.5" y="-178.7" font-family="Times,serif" font-size="14.00">w1</text>
<polyline fill="none" stroke="black" points="34.75,-166 34.75,-201.5"/>
<text text-anchor="middle" x="61.5" y="-178.7" font-family="Times,serif" font-size="14.00">1.0000</text>
<polyline fill="none" stroke="black" points="88.25,-166 88.25,-201.5"/>
<text text-anchor="middle" x="130.75" y="-178.7" font-family="Times,serif" font-size="14.00">grad: 0.0000</text>
</g>
<!-- 5771500416&#45;&gt;5771450640* -->
<g id="edge30" class="edge">
<title>5771500416&#45;&gt;5771450640*</title>
<path fill="none" stroke="black" d="M151.14,-165.09C159.39,-162.36 167.68,-159.47 175.5,-156.5 185.45,-152.72 196.07,-148.14 205.67,-143.78"/>
<polygon fill="black" stroke="black" points="206.99,-147.02 214.59,-139.64 204.05,-140.67 206.99,-147.02"/>
</g>
<!-- 6044894112 -->
<g id="node10" class="node">
<title>6044894112</title>
<polygon fill="none" stroke="black" points="1251,-82.5 1251,-118.5 1409.25,-118.5 1409.25,-82.5 1251,-82.5"/>
<text text-anchor="middle" x="1260.88" y="-95.7" font-family="Times,serif" font-size="14.00"> </text>
<polyline fill="none" stroke="black" points="1270.75,-83 1270.75,-118.5"/>
<text text-anchor="middle" x="1297.5" y="-95.7" font-family="Times,serif" font-size="14.00">2.4142</text>
<polyline fill="none" stroke="black" points="1324.25,-83 1324.25,-118.5"/>
<text text-anchor="middle" x="1366.75" y="-95.7" font-family="Times,serif" font-size="14.00">grad: 0.7071</text>
</g>
<!-- 6044894112&#45;&gt;5771559648**2 -->
<g id="edge19" class="edge">
<title>6044894112&#45;&gt;5771559648**2</title>
<path fill="none" stroke="black" d="M1409.39,-100.5C1418.51,-100.5 1427.47,-100.5 1435.67,-100.5"/>
<polygon fill="black" stroke="black" points="1435.55,-104 1445.55,-100.5 1435.55,-97 1435.55,-104"/>
</g>
<!-- 6044894112e&#45;&gt;6044894112 -->
<g id="edge5" class="edge">
<title>6044894112e&#45;&gt;6044894112</title>
<path fill="none" stroke="black" d="M1213.2,-100.5C1221,-100.5 1230.01,-100.5 1239.49,-100.5"/>
<polygon fill="black" stroke="black" points="1239.27,-104 1249.27,-100.5 1239.27,-97 1239.27,-104"/>
</g>
<!-- 5771500464 -->
<g id="node12" class="node">
<title>5771500464</title>
<polygon fill="none" stroke="black" points="645.38,-137.5 645.38,-173.5 806.62,-173.5 806.62,-137.5 645.38,-137.5"/>
<text text-anchor="middle" x="656.75" y="-150.7" font-family="Times,serif" font-size="14.00">b</text>
<polyline fill="none" stroke="black" points="668.12,-138 668.12,-173.5"/>
<text text-anchor="middle" x="694.88" y="-150.7" font-family="Times,serif" font-size="14.00">6.8814</text>
<polyline fill="none" stroke="black" points="721.62,-138 721.62,-173.5"/>
<text text-anchor="middle" x="764.12" y="-150.7" font-family="Times,serif" font-size="14.00">grad: 0.5000</text>
</g>
<!-- 5771500464&#45;&gt;6044893920+ -->
<g id="edge18" class="edge">
<title>5771500464&#45;&gt;6044893920+</title>
<path fill="none" stroke="black" d="M806.76,-142.4C825.73,-139.29 845.06,-136.11 860.98,-133.5"/>
<polygon fill="black" stroke="black" points="861.12,-137.02 870.42,-131.95 859.99,-130.11 861.12,-137.02"/>
</g>
<!-- 5771557904 -->
<g id="node13" class="node">
<title>5771557904</title>
<polygon fill="none" stroke="black" points="2503.5,-109.5 2503.5,-145.5 2664.75,-145.5 2664.75,-109.5 2503.5,-109.5"/>
<text text-anchor="middle" x="2514.88" y="-122.7" font-family="Times,serif" font-size="14.00">o</text>
<polyline fill="none" stroke="black" points="2526.25,-110 2526.25,-145.5"/>
<text text-anchor="middle" x="2553" y="-122.7" font-family="Times,serif" font-size="14.00">0.7071</text>
<polyline fill="none" stroke="black" points="2579.75,-110 2579.75,-145.5"/>
<text text-anchor="middle" x="2622.25" y="-122.7" font-family="Times,serif" font-size="14.00">grad: 1.0000</text>
</g>
<!-- 5771557904* -->
<g id="node14" class="node">
<title>5771557904*</title>
<ellipse fill="none" stroke="black" cx="2440.5" cy="-127.5" rx="27" ry="18"/>
<text text-anchor="middle" x="2440.5" y="-122.45" font-family="Times,serif" font-size="14.00">*</text>
</g>
<!-- 5771557904*&#45;&gt;5771557904 -->
<g id="edge6" class="edge">
<title>5771557904*&#45;&gt;5771557904</title>
<path fill="none" stroke="black" d="M2467.81,-127.5C2474.93,-127.5 2483.05,-127.5 2491.63,-127.5"/>
<polygon fill="black" stroke="black" points="2491.59,-131 2501.59,-127.5 2491.59,-124 2491.59,-131"/>
</g>
<!-- 5771500656 -->
<g id="node15" class="node">
<title>5771500656</title>
<polygon fill="none" stroke="black" points="0,-55.5 0,-91.5 175.5,-91.5 175.5,-55.5 0,-55.5"/>
<text text-anchor="middle" x="16.25" y="-68.7" font-family="Times,serif" font-size="14.00">w0</text>
<polyline fill="none" stroke="black" points="32.5,-56 32.5,-91.5"/>
<text text-anchor="middle" x="61.5" y="-68.7" font-family="Times,serif" font-size="14.00">&#45;3.0000</text>
<polyline fill="none" stroke="black" points="90.5,-56 90.5,-91.5"/>
<text text-anchor="middle" x="133" y="-68.7" font-family="Times,serif" font-size="14.00">grad: 1.0000</text>
</g>
<!-- 5771500944* -->
<g id="node21" class="node">
<title>5771500944*</title>
<ellipse fill="none" stroke="black" cx="238.5" cy="-73.5" rx="27" ry="18"/>
<text text-anchor="middle" x="238.5" y="-68.45" font-family="Times,serif" font-size="14.00">*</text>
</g>
<!-- 5771500656&#45;&gt;5771500944* -->
<g id="edge20" class="edge">
<title>5771500656&#45;&gt;5771500944*</title>
<path fill="none" stroke="black" d="M175.71,-73.5C184.04,-73.5 192.15,-73.5 199.61,-73.5"/>
<polygon fill="black" stroke="black" points="199.58,-77 209.58,-73.5 199.58,-70 199.58,-77"/>
</g>
<!-- 5771564272 -->
<g id="node16" class="node">
<title>5771564272</title>
<polygon fill="none" stroke="black" points="1537.5,-137.5 1537.5,-173.5 1700.25,-173.5 1700.25,-137.5 1537.5,-137.5"/>
<text text-anchor="middle" x="1547.38" y="-150.7" font-family="Times,serif" font-size="14.00"> </text>
<polyline fill="none" stroke="black" points="1557.25,-138 1557.25,-173.5"/>
<text text-anchor="middle" x="1584" y="-150.7" font-family="Times,serif" font-size="14.00">5.8285</text>
<polyline fill="none" stroke="black" points="1610.75,-138 1610.75,-173.5"/>
<text text-anchor="middle" x="1655.5" y="-150.7" font-family="Times,serif" font-size="14.00">grad: &#45;0.1036</text>
</g>
<!-- 5771564656+ -->
<g id="node26" class="node">
<title>5771564656+</title>
<ellipse fill="none" stroke="black" cx="1763.25" cy="-155.5" rx="27" ry="18"/>
<text text-anchor="middle" x="1763.25" y="-150.45" font-family="Times,serif" font-size="14.00">+</text>
</g>
<!-- 5771564272&#45;&gt;5771564656+ -->
<g id="edge25" class="edge">
<title>5771564272&#45;&gt;5771564656+</title>
<path fill="none" stroke="black" d="M1700.63,-155.5C1708.85,-155.5 1716.9,-155.5 1724.32,-155.5"/>
<polygon fill="black" stroke="black" points="1724.27,-159 1734.27,-155.5 1724.27,-152 1724.27,-159"/>
</g>
<!-- 5771564272**2 -->
<g id="node17" class="node">
<title>5771564272**2</title>
<ellipse fill="none" stroke="black" cx="1474.5" cy="-155.5" rx="27" ry="18"/>
<text text-anchor="middle" x="1474.5" y="-150.45" font-family="Times,serif" font-size="14.00">**2</text>
</g>
<!-- 5771564272**2&#45;&gt;5771564272 -->
<g id="edge7" class="edge">
<title>5771564272**2&#45;&gt;5771564272</title>
<path fill="none" stroke="black" d="M1501.95,-155.5C1509.05,-155.5 1517.15,-155.5 1525.69,-155.5"/>
<polygon fill="black" stroke="black" points="1525.62,-159 1535.62,-155.5 1525.62,-152 1525.62,-159"/>
</g>
<!-- 6047007984 -->
<g id="node18" class="node">
<title>6047007984</title>
<polygon fill="none" stroke="black" points="1248.75,-137.5 1248.75,-173.5 1411.5,-173.5 1411.5,-137.5 1248.75,-137.5"/>
<text text-anchor="middle" x="1258.62" y="-150.7" font-family="Times,serif" font-size="14.00"> </text>
<polyline fill="none" stroke="black" points="1268.5,-138 1268.5,-173.5"/>
<text text-anchor="middle" x="1295.25" y="-150.7" font-family="Times,serif" font-size="14.00">2.4142</text>
<polyline fill="none" stroke="black" points="1322,-138 1322,-173.5"/>
<text text-anchor="middle" x="1366.75" y="-150.7" font-family="Times,serif" font-size="14.00">grad: &#45;0.5000</text>
</g>
<!-- 6047007984&#45;&gt;5771564272**2 -->
<g id="edge27" class="edge">
<title>6047007984&#45;&gt;5771564272**2</title>
<path fill="none" stroke="black" d="M1411.88,-155.5C1420.1,-155.5 1428.15,-155.5 1435.57,-155.5"/>
<polygon fill="black" stroke="black" points="1435.52,-159 1445.52,-155.5 1435.52,-152 1435.52,-159"/>
</g>
<!-- 6047007984e&#45;&gt;6047007984 -->
<g id="edge8" class="edge">
<title>6047007984e&#45;&gt;6047007984</title>
<path fill="none" stroke="black" d="M1213.2,-154.69C1220.3,-154.74 1228.4,-154.79 1236.94,-154.85"/>
<polygon fill="black" stroke="black" points="1236.84,-158.35 1246.87,-154.92 1236.89,-151.35 1236.84,-158.35"/>
</g>
<!-- 5771500944 -->
<g id="node20" class="node">
<title>5771500944</title>
<polygon fill="none" stroke="black" points="301.5,-55.5 301.5,-91.5 490.5,-91.5 490.5,-55.5 301.5,-55.5"/>
<text text-anchor="middle" x="324.5" y="-68.7" font-family="Times,serif" font-size="14.00">w0x0</text>
<polyline fill="none" stroke="black" points="347.5,-56 347.5,-91.5"/>
<text text-anchor="middle" x="376.5" y="-68.7" font-family="Times,serif" font-size="14.00">&#45;6.0000</text>
<polyline fill="none" stroke="black" points="405.5,-56 405.5,-91.5"/>
<text text-anchor="middle" x="448" y="-68.7" font-family="Times,serif" font-size="14.00">grad: 0.5000</text>
</g>
<!-- 5771500944&#45;&gt;6044968992+ -->
<g id="edge31" class="edge">
<title>5771500944&#45;&gt;6044968992+</title>
<path fill="none" stroke="black" d="M490.6,-89.75C499.48,-91.29 508.08,-92.79 515.89,-94.14"/>
<polygon fill="black" stroke="black" points="515.15,-97.57 525.6,-95.83 516.35,-90.67 515.15,-97.57"/>
</g>
<!-- 5771500944*&#45;&gt;5771500944 -->
<g id="edge9" class="edge">
<title>5771500944*&#45;&gt;5771500944</title>
<path fill="none" stroke="black" d="M265.88,-73.5C273.01,-73.5 281.18,-73.5 289.87,-73.5"/>
<polygon fill="black" stroke="black" points="289.61,-77 299.61,-73.5 289.61,-70 289.61,-77"/>
</g>
<!-- 5771564464 -->
<g id="node22" class="node">
<title>5771564464</title>
<polygon fill="none" stroke="black" points="1537.5,-192.5 1537.5,-228.5 1700.25,-228.5 1700.25,-192.5 1537.5,-192.5"/>
<text text-anchor="middle" x="1547.38" y="-205.7" font-family="Times,serif" font-size="14.00"> </text>
<polyline fill="none" stroke="black" points="1557.25,-193 1557.25,-228.5"/>
<text text-anchor="middle" x="1584" y="-205.7" font-family="Times,serif" font-size="14.00">1.0000</text>
<polyline fill="none" stroke="black" points="1610.75,-193 1610.75,-228.5"/>
<text text-anchor="middle" x="1655.5" y="-205.7" font-family="Times,serif" font-size="14.00">grad: &#45;0.1036</text>
</g>
<!-- 5771564464&#45;&gt;5771564656+ -->
<g id="edge17" class="edge">
<title>5771564464&#45;&gt;5771564656+</title>
<path fill="none" stroke="black" d="M1677.21,-192.02C1685,-189.29 1692.85,-186.41 1700.25,-183.5 1710.15,-179.61 1720.77,-174.99 1730.36,-170.64"/>
<polygon fill="black" stroke="black" points="1731.68,-173.88 1739.3,-166.52 1728.75,-167.53 1731.68,-173.88"/>
</g>
<!-- 5771500992 -->
<g id="node23" class="node">
<title>5771500992</title>
<polygon fill="none" stroke="black" points="3.75,-110.5 3.75,-146.5 171.75,-146.5 171.75,-110.5 3.75,-110.5"/>
<text text-anchor="middle" x="18.5" y="-123.7" font-family="Times,serif" font-size="14.00">x1</text>
<polyline fill="none" stroke="black" points="33.25,-111 33.25,-146.5"/>
<text text-anchor="middle" x="60" y="-123.7" font-family="Times,serif" font-size="14.00">0.0000</text>
<polyline fill="none" stroke="black" points="86.75,-111 86.75,-146.5"/>
<text text-anchor="middle" x="129.25" y="-123.7" font-family="Times,serif" font-size="14.00">grad: 0.5000</text>
</g>
<!-- 5771500992&#45;&gt;5771450640* -->
<g id="edge21" class="edge">
<title>5771500992&#45;&gt;5771450640*</title>
<path fill="none" stroke="black" d="M171.82,-128.5C181.61,-128.5 191.2,-128.5 199.89,-128.5"/>
<polygon fill="black" stroke="black" points="199.61,-132 209.61,-128.5 199.61,-125 199.61,-132"/>
</g>
<!-- 5771501040 -->
<g id="node24" class="node">
<title>5771501040</title>
<polygon fill="none" stroke="black" points="1.5,-0.5 1.5,-36.5 174,-36.5 174,-0.5 1.5,-0.5"/>
<text text-anchor="middle" x="16.25" y="-13.7" font-family="Times,serif" font-size="14.00">x0</text>
<polyline fill="none" stroke="black" points="31,-1 31,-36.5"/>
<text text-anchor="middle" x="57.75" y="-13.7" font-family="Times,serif" font-size="14.00">2.0000</text>
<polyline fill="none" stroke="black" points="84.5,-1 84.5,-36.5"/>
<text text-anchor="middle" x="129.25" y="-13.7" font-family="Times,serif" font-size="14.00">grad: &#45;1.5000</text>
</g>
<!-- 5771501040&#45;&gt;5771500944* -->
<g id="edge22" class="edge">
<title>5771501040&#45;&gt;5771500944*</title>
<path fill="none" stroke="black" d="M151.14,-36.91C159.39,-39.64 167.68,-42.53 175.5,-45.5 185.45,-49.28 196.07,-53.86 205.67,-58.22"/>
<polygon fill="black" stroke="black" points="204.05,-61.33 214.59,-62.36 206.99,-54.98 204.05,-61.33"/>
</g>
<!-- 5771564656 -->
<g id="node25" class="node">
<title>5771564656</title>
<polygon fill="none" stroke="black" points="1826.25,-137.5 1826.25,-173.5 1989,-173.5 1989,-137.5 1826.25,-137.5"/>
<text text-anchor="middle" x="1836.12" y="-150.7" font-family="Times,serif" font-size="14.00"> </text>
<polyline fill="none" stroke="black" points="1846,-138 1846,-173.5"/>
<text text-anchor="middle" x="1872.75" y="-150.7" font-family="Times,serif" font-size="14.00">6.8285</text>
<polyline fill="none" stroke="black" points="1899.5,-138 1899.5,-173.5"/>
<text text-anchor="middle" x="1944.25" y="-150.7" font-family="Times,serif" font-size="14.00">grad: &#45;0.1036</text>
</g>
<!-- 5771556848**&#45;1 -->
<g id="node31" class="node">
<title>5771556848**&#45;1</title>
<ellipse fill="none" stroke="black" cx="2104.12" cy="-155.5" rx="27.81" ry="18"/>
<text text-anchor="middle" x="2104.12" y="-150.45" font-family="Times,serif" font-size="14.00">**&#45;1</text>
</g>
<!-- 5771564656&#45;&gt;5771556848**&#45;1 -->
<g id="edge26" class="edge">
<title>5771564656&#45;&gt;5771556848**&#45;1</title>
<path fill="none" stroke="black" d="M1989.42,-155.5C2015.49,-155.5 2043.18,-155.5 2064.71,-155.5"/>
<polygon fill="black" stroke="black" points="2064.47,-159 2074.47,-155.5 2064.47,-152 2064.47,-159"/>
</g>
<!-- 5771564656+&#45;&gt;5771564656 -->
<g id="edge10" class="edge">
<title>5771564656+&#45;&gt;5771564656</title>
<path fill="none" stroke="black" d="M1790.7,-155.5C1797.8,-155.5 1805.9,-155.5 1814.44,-155.5"/>
<polygon fill="black" stroke="black" points="1814.37,-159 1824.37,-155.5 1814.37,-152 1814.37,-159"/>
</g>
<!-- 5771562768 -->
<g id="node27" class="node">
<title>5771562768</title>
<polygon fill="none" stroke="black" points="2025,-82.5 2025,-118.5 2183.25,-118.5 2183.25,-82.5 2025,-82.5"/>
<text text-anchor="middle" x="2034.88" y="-95.7" font-family="Times,serif" font-size="14.00"> </text>
<polyline fill="none" stroke="black" points="2044.75,-83 2044.75,-118.5"/>
<text text-anchor="middle" x="2071.5" y="-95.7" font-family="Times,serif" font-size="14.00">4.8285</text>
<polyline fill="none" stroke="black" points="2098.25,-83 2098.25,-118.5"/>
<text text-anchor="middle" x="2140.75" y="-95.7" font-family="Times,serif" font-size="14.00">grad: 0.1464</text>
</g>
<!-- 5771562768&#45;&gt;5771557904* -->
<g id="edge28" class="edge">
<title>5771562768&#45;&gt;5771557904*</title>
<path fill="none" stroke="black" d="M2183.52,-106.83C2252.29,-112.38 2349.29,-120.22 2401.94,-124.47"/>
<polygon fill="black" stroke="black" points="2401.64,-127.95 2411.89,-125.27 2402.21,-120.98 2401.64,-127.95"/>
</g>
<!-- 5771562768+&#45;&gt;5771562768 -->
<g id="edge11" class="edge">
<title>5771562768+&#45;&gt;5771562768</title>
<path fill="none" stroke="black" d="M1790.56,-100.5C1837.74,-100.5 1938.78,-100.5 2013.26,-100.5"/>
<polygon fill="black" stroke="black" points="2013,-104 2023,-100.5 2013,-97 2013,-104"/>
</g>
<!-- 5771562864 -->
<g id="node29" class="node">
<title>5771562864</title>
<polygon fill="none" stroke="black" points="1537.5,-27.5 1537.5,-63.5 1700.25,-63.5 1700.25,-27.5 1537.5,-27.5"/>
<text text-anchor="middle" x="1547.38" y="-40.7" font-family="Times,serif" font-size="14.00"> </text>
<polyline fill="none" stroke="black" points="1557.25,-28 1557.25,-63.5"/>
<text text-anchor="middle" x="1586.25" y="-40.7" font-family="Times,serif" font-size="14.00">&#45;1.0000</text>
<polyline fill="none" stroke="black" points="1615.25,-28 1615.25,-63.5"/>
<text text-anchor="middle" x="1657.75" y="-40.7" font-family="Times,serif" font-size="14.00">grad: 0.1464</text>
</g>
<!-- 5771562864&#45;&gt;5771562768+ -->
<g id="edge23" class="edge">
<title>5771562864&#45;&gt;5771562768+</title>
<path fill="none" stroke="black" d="M1674.56,-63.93C1683.19,-67.02 1691.99,-70.27 1700.25,-73.5 1710.02,-77.32 1720.53,-81.77 1730.06,-85.93"/>
<polygon fill="black" stroke="black" points="1728.38,-89.02 1738.94,-89.86 1731.21,-82.61 1728.38,-89.02"/>
</g>
<!-- 5771556848 -->
<g id="node30" class="node">
<title>5771556848</title>
<polygon fill="none" stroke="black" points="2219.25,-135.5 2219.25,-171.5 2377.5,-171.5 2377.5,-135.5 2219.25,-135.5"/>
<text text-anchor="middle" x="2229.12" y="-148.7" font-family="Times,serif" font-size="14.00"> </text>
<polyline fill="none" stroke="black" points="2239,-136 2239,-171.5"/>
<text text-anchor="middle" x="2265.75" y="-148.7" font-family="Times,serif" font-size="14.00">0.1464</text>
<polyline fill="none" stroke="black" points="2292.5,-136 2292.5,-171.5"/>
<text text-anchor="middle" x="2335" y="-148.7" font-family="Times,serif" font-size="14.00">grad: 4.8285</text>
</g>
<!-- 5771556848&#45;&gt;5771557904* -->
<g id="edge29" class="edge">
<title>5771556848&#45;&gt;5771557904*</title>
<path fill="none" stroke="black" d="M2377.63,-138.98C2386.37,-137.36 2394.94,-135.77 2402.79,-134.31"/>
<polygon fill="black" stroke="black" points="2403.38,-137.76 2412.57,-132.5 2402.1,-130.88 2403.38,-137.76"/>
</g>
<!-- 5771556848**&#45;1&#45;&gt;5771556848 -->
<g id="edge12" class="edge">
<title>5771556848**&#45;1&#45;&gt;5771556848</title>
<path fill="none" stroke="black" d="M2132.26,-155.22C2152.09,-155.01 2180.2,-154.72 2207.62,-154.43"/>
<polygon fill="black" stroke="black" points="2207.41,-157.94 2217.38,-154.33 2207.34,-150.94 2207.41,-157.94"/>
</g>
</g>
</svg>
