<?xml version="1.0" encoding="UTF-8" standalone="no"?>
<!DOCTYPE svg PUBLIC "-//W3C//DTD SVG 1.1//EN"
 "http://www.w3.org/Graphics/SVG/1.1/DTD/svg11.dtd">
<!-- Generated by graphviz version 10.0.1 (20240210.2158)
 -->
<!-- Pages: 1 -->
<svg width="2673pt" height="251pt"
 viewBox="0.00 0.00 2672.75 251.00" xmlns="http://www.w3.org/2000/svg" xmlns:xlink="http://www.w3.org/1999/xlink">
<g id="graph0" class="graph" transform="scale(1 1) rotate(0) translate(4 247)">
<polygon fill="white" stroke="none" points="-4,4 -4,-247 2668.75,-247 2668.75,4 -4,4"/>
<!-- 5771907136 -->
<g id="node1" class="node">
<title>5771907136</title>
<polygon fill="none" stroke="black" points="1826.25,-151.5 1826.25,-187.5 1989,-187.5 1989,-151.5 1826.25,-151.5"/>
<text text-anchor="middle" x="1836.12" y="-164.7" font-family="Times,serif" font-size="14.00"> </text>
<polyline fill="none" stroke="black" points="1846,-152 1846,-187.5"/>
<text text-anchor="middle" x="1872.75" y="-164.7" font-family="Times,serif" font-size="14.00">6.8285</text>
<polyline fill="none" stroke="black" points="1899.5,-152 1899.5,-187.5"/>
<text text-anchor="middle" x="1944.25" y="-164.7" font-family="Times,serif" font-size="14.00">grad: &#45;0.1036</text>
</g>
<!-- 5771907376**&#45;1 -->
<g id="node14" class="node">
<title>5771907376**&#45;1</title>
<ellipse fill="none" stroke="black" cx="2104.12" cy="-169.5" rx="27.81" ry="18"/>
<text text-anchor="middle" x="2104.12" y="-164.45" font-family="Times,serif" font-size="14.00">**&#45;1</text>
</g>
<!-- 5771907136&#45;&gt;5771907376**&#45;1 -->
<g id="edge22" class="edge">
<title>5771907136&#45;&gt;5771907376**&#45;1</title>
<path fill="none" stroke="black" d="M1989.42,-169.5C2015.49,-169.5 2043.18,-169.5 2064.71,-169.5"/>
<polygon fill="black" stroke="black" points="2064.47,-173 2074.47,-169.5 2064.47,-166 2064.47,-173"/>
</g>
<!-- 5771907136+ -->
<g id="node2" class="node">
<title>5771907136+</title>
<ellipse fill="none" stroke="black" cx="1763.25" cy="-169.5" rx="27" ry="18"/>
<text text-anchor="middle" x="1763.25" y="-164.45" font-family="Times,serif" font-size="14.00">+</text>
</g>
<!-- 5771907136+&#45;&gt;5771907136 -->
<g id="edge1" class="edge">
<title>5771907136+&#45;&gt;5771907136</title>
<path fill="none" stroke="black" d="M1790.7,-169.5C1797.8,-169.5 1805.9,-169.5 1814.44,-169.5"/>
<polygon fill="black" stroke="black" points="1814.37,-173 1824.37,-169.5 1814.37,-166 1814.37,-173"/>
</g>
<!-- 6044147824 -->
<g id="node3" class="node">
<title>6044147824</title>
<polygon fill="none" stroke="black" points="1537.5,-206.5 1537.5,-242.5 1700.25,-242.5 1700.25,-206.5 1537.5,-206.5"/>
<text text-anchor="middle" x="1547.38" y="-219.7" font-family="Times,serif" font-size="14.00"> </text>
<polyline fill="none" stroke="black" points="1557.25,-207 1557.25,-242.5"/>
<text text-anchor="middle" x="1584" y="-219.7" font-family="Times,serif" font-size="14.00">1.0000</text>
<polyline fill="none" stroke="black" points="1610.75,-207 1610.75,-242.5"/>
<text text-anchor="middle" x="1655.5" y="-219.7" font-family="Times,serif" font-size="14.00">grad: &#45;0.1036</text>
</g>
<!-- 6044147824&#45;&gt;5771907136+ -->
<g id="edge21" class="edge">
<title>6044147824&#45;&gt;5771907136+</title>
<path fill="none" stroke="black" d="M1677.21,-206.02C1685,-203.29 1692.85,-200.41 1700.25,-197.5 1710.15,-193.61 1720.77,-188.99 1730.36,-184.64"/>
<polygon fill="black" stroke="black" points="1731.68,-187.88 1739.3,-180.52 1728.75,-181.53 1731.68,-187.88"/>
</g>
<!-- 5771958448 -->
<g id="node4" class="node">
<title>5771958448</title>
<polygon fill="none" stroke="black" points="645.38,-137.5 645.38,-173.5 806.62,-173.5 806.62,-137.5 645.38,-137.5"/>
<text text-anchor="middle" x="656.75" y="-150.7" font-family="Times,serif" font-size="14.00">b</text>
<polyline fill="none" stroke="black" points="668.12,-138 668.12,-173.5"/>
<text text-anchor="middle" x="694.88" y="-150.7" font-family="Times,serif" font-size="14.00">6.8814</text>
<polyline fill="none" stroke="black" points="721.62,-138 721.62,-173.5"/>
<text text-anchor="middle" x="764.12" y="-150.7" font-family="Times,serif" font-size="14.00">grad: 0.5000</text>
</g>
<!-- 6048859712+ -->
<g id="node26" class="node">
<title>6048859712+</title>
<ellipse fill="none" stroke="black" cx="898.5" cy="-127.5" rx="27" ry="18"/>
<text text-anchor="middle" x="898.5" y="-122.45" font-family="Times,serif" font-size="14.00">+</text>
</g>
<!-- 5771958448&#45;&gt;6048859712+ -->
<g id="edge24" class="edge">
<title>5771958448&#45;&gt;6048859712+</title>
<path fill="none" stroke="black" d="M806.76,-142.4C825.73,-139.29 845.06,-136.11 860.98,-133.5"/>
<polygon fill="black" stroke="black" points="861.12,-137.02 870.42,-131.95 859.99,-130.11 861.12,-137.02"/>
</g>
<!-- 6048858320 -->
<g id="node5" class="node">
<title>6048858320</title>
<polygon fill="none" stroke="black" points="1251,-82.5 1251,-118.5 1409.25,-118.5 1409.25,-82.5 1251,-82.5"/>
<text text-anchor="middle" x="1260.88" y="-95.7" font-family="Times,serif" font-size="14.00"> </text>
<polyline fill="none" stroke="black" points="1270.75,-83 1270.75,-118.5"/>
<text text-anchor="middle" x="1297.5" y="-95.7" font-family="Times,serif" font-size="14.00">2.4142</text>
<polyline fill="none" stroke="black" points="1324.25,-83 1324.25,-118.5"/>
<text text-anchor="middle" x="1366.75" y="-95.7" font-family="Times,serif" font-size="14.00">grad: 0.7071</text>
</g>
<!-- 6048860432**2 -->
<g id="node11" class="node">
<title>6048860432**2</title>
<ellipse fill="none" stroke="black" cx="1474.5" cy="-86.5" rx="27" ry="18"/>
<text text-anchor="middle" x="1474.5" y="-81.45" font-family="Times,serif" font-size="14.00">**2</text>
</g>
<!-- 6048858320&#45;&gt;6048860432**2 -->
<g id="edge13" class="edge">
<title>6048858320&#45;&gt;6048860432**2</title>
<path fill="none" stroke="black" d="M1409.39,-92.8C1418.7,-91.89 1427.85,-90.99 1436.19,-90.17"/>
<polygon fill="black" stroke="black" points="1436.26,-93.68 1445.87,-89.22 1435.57,-86.71 1436.26,-93.68"/>
</g>
<!-- 6048858320e -->
<g id="node6" class="node">
<title>6048858320e</title>
<ellipse fill="none" stroke="black" cx="1185.75" cy="-100.5" rx="27" ry="18"/>
<text text-anchor="middle" x="1185.75" y="-95.45" font-family="Times,serif" font-size="14.00">e</text>
</g>
<!-- 6048858320e&#45;&gt;6048858320 -->
<g id="edge2" class="edge">
<title>6048858320e&#45;&gt;6048858320</title>
<path fill="none" stroke="black" d="M1213.2,-100.5C1221,-100.5 1230.01,-100.5 1239.49,-100.5"/>
<polygon fill="black" stroke="black" points="1239.27,-104 1249.27,-100.5 1239.27,-97 1239.27,-104"/>
</g>
<!-- 5771958496 -->
<g id="node7" class="node">
<title>5771958496</title>
<polygon fill="none" stroke="black" points="0,-55.5 0,-91.5 175.5,-91.5 175.5,-55.5 0,-55.5"/>
<text text-anchor="middle" x="16.25" y="-68.7" font-family="Times,serif" font-size="14.00">w0</text>
<polyline fill="none" stroke="black" points="32.5,-56 32.5,-91.5"/>
<text text-anchor="middle" x="61.5" y="-68.7" font-family="Times,serif" font-size="14.00">&#45;3.0000</text>
<polyline fill="none" stroke="black" points="90.5,-56 90.5,-91.5"/>
<text text-anchor="middle" x="133" y="-68.7" font-family="Times,serif" font-size="14.00">grad: 1.0000</text>
</g>
<!-- 5771957152* -->
<g id="node20" class="node">
<title>5771957152*</title>
<ellipse fill="none" stroke="black" cx="238.5" cy="-73.5" rx="27" ry="18"/>
<text text-anchor="middle" x="238.5" y="-68.45" font-family="Times,serif" font-size="14.00">*</text>
</g>
<!-- 5771958496&#45;&gt;5771957152* -->
<g id="edge20" class="edge">
<title>5771958496&#45;&gt;5771957152*</title>
<path fill="none" stroke="black" d="M175.71,-73.5C184.04,-73.5 192.15,-73.5 199.61,-73.5"/>
<polygon fill="black" stroke="black" points="199.58,-77 209.58,-73.5 199.58,-70 199.58,-77"/>
</g>
<!-- 6048860384 -->
<g id="node8" class="node">
<title>6048860384</title>
<polygon fill="none" stroke="black" points="303.75,-110.5 303.75,-146.5 488.25,-146.5 488.25,-110.5 303.75,-110.5"/>
<text text-anchor="middle" x="326.75" y="-123.7" font-family="Times,serif" font-size="14.00">w1x1</text>
<polyline fill="none" stroke="black" points="349.75,-111 349.75,-146.5"/>
<text text-anchor="middle" x="376.5" y="-123.7" font-family="Times,serif" font-size="14.00">0.0000</text>
<polyline fill="none" stroke="black" points="403.25,-111 403.25,-146.5"/>
<text text-anchor="middle" x="445.75" y="-123.7" font-family="Times,serif" font-size="14.00">grad: 0.5000</text>
</g>
<!-- 6048859232+ -->
<g id="node22" class="node">
<title>6048859232+</title>
<ellipse fill="none" stroke="black" cx="553.5" cy="-100.5" rx="27" ry="18"/>
<text text-anchor="middle" x="553.5" y="-95.45" font-family="Times,serif" font-size="14.00">+</text>
</g>
<!-- 6048860384&#45;&gt;6048859232+ -->
<g id="edge14" class="edge">
<title>6048860384&#45;&gt;6048859232+</title>
<path fill="none" stroke="black" d="M488.35,-112.05C497.97,-110.32 507.3,-108.64 515.73,-107.12"/>
<polygon fill="black" stroke="black" points="516.27,-110.58 525.49,-105.36 515.03,-103.69 516.27,-110.58"/>
</g>
<!-- 6048860384* -->
<g id="node9" class="node">
<title>6048860384*</title>
<ellipse fill="none" stroke="black" cx="238.5" cy="-128.5" rx="27" ry="18"/>
<text text-anchor="middle" x="238.5" y="-123.45" font-family="Times,serif" font-size="14.00">*</text>
</g>
<!-- 6048860384*&#45;&gt;6048860384 -->
<g id="edge3" class="edge">
<title>6048860384*&#45;&gt;6048860384</title>
<path fill="none" stroke="black" d="M265.88,-128.5C273.6,-128.5 282.55,-128.5 292.06,-128.5"/>
<polygon fill="black" stroke="black" points="291.93,-132 301.93,-128.5 291.93,-125 291.93,-132"/>
</g>
<!-- 6048860432 -->
<g id="node10" class="node">
<title>6048860432</title>
<polygon fill="none" stroke="black" points="1539.75,-41.5 1539.75,-77.5 1698,-77.5 1698,-41.5 1539.75,-41.5"/>
<text text-anchor="middle" x="1549.62" y="-54.7" font-family="Times,serif" font-size="14.00"> </text>
<polyline fill="none" stroke="black" points="1559.5,-42 1559.5,-77.5"/>
<text text-anchor="middle" x="1586.25" y="-54.7" font-family="Times,serif" font-size="14.00">5.8285</text>
<polyline fill="none" stroke="black" points="1613,-42 1613,-77.5"/>
<text text-anchor="middle" x="1655.5" y="-54.7" font-family="Times,serif" font-size="14.00">grad: 0.1464</text>
</g>
<!-- 6048861440+ -->
<g id="node24" class="node">
<title>6048861440+</title>
<ellipse fill="none" stroke="black" cx="1763.25" cy="-114.5" rx="27" ry="18"/>
<text text-anchor="middle" x="1763.25" y="-109.45" font-family="Times,serif" font-size="14.00">+</text>
</g>
<!-- 6048860432&#45;&gt;6048861440+ -->
<g id="edge23" class="edge">
<title>6048860432&#45;&gt;6048861440+</title>
<path fill="none" stroke="black" d="M1677.21,-77.98C1685,-80.71 1692.85,-83.59 1700.25,-86.5 1710.15,-90.39 1720.77,-95.01 1730.36,-99.36"/>
<polygon fill="black" stroke="black" points="1728.75,-102.47 1739.3,-103.48 1731.68,-96.12 1728.75,-102.47"/>
</g>
<!-- 6048860432**2&#45;&gt;6048860432 -->
<g id="edge4" class="edge">
<title>6048860432**2&#45;&gt;6048860432</title>
<path fill="none" stroke="black" d="M1500.95,-81.67C1509.06,-80.14 1518.54,-78.34 1528.53,-76.44"/>
<polygon fill="black" stroke="black" points="1528.87,-79.94 1538.04,-74.64 1527.56,-73.06 1528.87,-79.94"/>
</g>
<!-- 5771958544 -->
<g id="node12" class="node">
<title>5771958544</title>
<polygon fill="none" stroke="black" points="1.5,-0.5 1.5,-36.5 174,-36.5 174,-0.5 1.5,-0.5"/>
<text text-anchor="middle" x="16.25" y="-13.7" font-family="Times,serif" font-size="14.00">x0</text>
<polyline fill="none" stroke="black" points="31,-1 31,-36.5"/>
<text text-anchor="middle" x="57.75" y="-13.7" font-family="Times,serif" font-size="14.00">2.0000</text>
<polyline fill="none" stroke="black" points="84.5,-1 84.5,-36.5"/>
<text text-anchor="middle" x="129.25" y="-13.7" font-family="Times,serif" font-size="14.00">grad: &#45;1.5000</text>
</g>
<!-- 5771958544&#45;&gt;5771957152* -->
<g id="edge30" class="edge">
<title>5771958544&#45;&gt;5771957152*</title>
<path fill="none" stroke="black" d="M151.14,-36.91C159.39,-39.64 167.68,-42.53 175.5,-45.5 185.45,-49.28 196.07,-53.86 205.67,-58.22"/>
<polygon fill="black" stroke="black" points="204.05,-61.33 214.59,-62.36 206.99,-54.98 204.05,-61.33"/>
</g>
<!-- 5771907376 -->
<g id="node13" class="node">
<title>5771907376</title>
<polygon fill="none" stroke="black" points="2219.25,-149.5 2219.25,-185.5 2377.5,-185.5 2377.5,-149.5 2219.25,-149.5"/>
<text text-anchor="middle" x="2229.12" y="-162.7" font-family="Times,serif" font-size="14.00"> </text>
<polyline fill="none" stroke="black" points="2239,-150 2239,-185.5"/>
<text text-anchor="middle" x="2265.75" y="-162.7" font-family="Times,serif" font-size="14.00">0.1464</text>
<polyline fill="none" stroke="black" points="2292.5,-150 2292.5,-185.5"/>
<text text-anchor="middle" x="2335" y="-162.7" font-family="Times,serif" font-size="14.00">grad: 4.8285</text>
</g>
<!-- 5771907568* -->
<g id="node18" class="node">
<title>5771907568*</title>
<ellipse fill="none" stroke="black" cx="2440.5" cy="-141.5" rx="27" ry="18"/>
<text text-anchor="middle" x="2440.5" y="-136.45" font-family="Times,serif" font-size="14.00">*</text>
</g>
<!-- 5771907376&#45;&gt;5771907568* -->
<g id="edge26" class="edge">
<title>5771907376&#45;&gt;5771907568*</title>
<path fill="none" stroke="black" d="M2377.63,-152.98C2386.37,-151.36 2394.94,-149.77 2402.79,-148.31"/>
<polygon fill="black" stroke="black" points="2403.38,-151.76 2412.57,-146.5 2402.1,-144.88 2403.38,-151.76"/>
</g>
<!-- 5771907376**&#45;1&#45;&gt;5771907376 -->
<g id="edge5" class="edge">
<title>5771907376**&#45;1&#45;&gt;5771907376</title>
<path fill="none" stroke="black" d="M2132.26,-169.22C2152.09,-169.01 2180.2,-168.72 2207.62,-168.43"/>
<polygon fill="black" stroke="black" points="2207.41,-171.94 2217.38,-168.33 2207.34,-164.94 2207.41,-171.94"/>
</g>
<!-- 5771958592 -->
<g id="node15" class="node">
<title>5771958592</title>
<polygon fill="none" stroke="black" points="2.25,-165.5 2.25,-201.5 173.25,-201.5 173.25,-165.5 2.25,-165.5"/>
<text text-anchor="middle" x="18.5" y="-178.7" font-family="Times,serif" font-size="14.00">w1</text>
<polyline fill="none" stroke="black" points="34.75,-166 34.75,-201.5"/>
<text text-anchor="middle" x="61.5" y="-178.7" font-family="Times,serif" font-size="14.00">1.0000</text>
<polyline fill="none" stroke="black" points="88.25,-166 88.25,-201.5"/>
<text text-anchor="middle" x="130.75" y="-178.7" font-family="Times,serif" font-size="14.00">grad: 0.0000</text>
</g>
<!-- 5771958592&#45;&gt;6048860384* -->
<g id="edge25" class="edge">
<title>5771958592&#45;&gt;6048860384*</title>
<path fill="none" stroke="black" d="M148.28,-165.14C157.45,-162.07 166.77,-158.8 175.5,-155.5 185.31,-151.79 195.83,-147.38 205.37,-143.21"/>
<polygon fill="black" stroke="black" points="206.52,-146.53 214.24,-139.27 203.68,-140.13 206.52,-146.53"/>
</g>
<!-- 5771958640 -->
<g id="node16" class="node">
<title>5771958640</title>
<polygon fill="none" stroke="black" points="3.75,-110.5 3.75,-146.5 171.75,-146.5 171.75,-110.5 3.75,-110.5"/>
<text text-anchor="middle" x="18.5" y="-123.7" font-family="Times,serif" font-size="14.00">x1</text>
<polyline fill="none" stroke="black" points="33.25,-111 33.25,-146.5"/>
<text text-anchor="middle" x="60" y="-123.7" font-family="Times,serif" font-size="14.00">0.0000</text>
<polyline fill="none" stroke="black" points="86.75,-111 86.75,-146.5"/>
<text text-anchor="middle" x="129.25" y="-123.7" font-family="Times,serif" font-size="14.00">grad: 0.5000</text>
</g>
<!-- 5771958640&#45;&gt;6048860384* -->
<g id="edge19" class="edge">
<title>5771958640&#45;&gt;6048860384*</title>
<path fill="none" stroke="black" d="M171.82,-128.5C181.61,-128.5 191.2,-128.5 199.89,-128.5"/>
<polygon fill="black" stroke="black" points="199.61,-132 209.61,-128.5 199.61,-125 199.61,-132"/>
</g>
<!-- 5771907568 -->
<g id="node17" class="node">
<title>5771907568</title>
<polygon fill="none" stroke="black" points="2503.5,-123.5 2503.5,-159.5 2664.75,-159.5 2664.75,-123.5 2503.5,-123.5"/>
<text text-anchor="middle" x="2514.88" y="-136.7" font-family="Times,serif" font-size="14.00">o</text>
<polyline fill="none" stroke="black" points="2526.25,-124 2526.25,-159.5"/>
<text text-anchor="middle" x="2553" y="-136.7" font-family="Times,serif" font-size="14.00">0.7071</text>
<polyline fill="none" stroke="black" points="2579.75,-124 2579.75,-159.5"/>
<text text-anchor="middle" x="2622.25" y="-136.7" font-family="Times,serif" font-size="14.00">grad: 1.0000</text>
</g>
<!-- 5771907568*&#45;&gt;5771907568 -->
<g id="edge6" class="edge">
<title>5771907568*&#45;&gt;5771907568</title>
<path fill="none" stroke="black" d="M2467.81,-141.5C2474.93,-141.5 2483.05,-141.5 2491.63,-141.5"/>
<polygon fill="black" stroke="black" points="2491.59,-145 2501.59,-141.5 2491.59,-138 2491.59,-145"/>
</g>
<!-- 5771957152 -->
<g id="node19" class="node">
<title>5771957152</title>
<polygon fill="none" stroke="black" points="301.5,-55.5 301.5,-91.5 490.5,-91.5 490.5,-55.5 301.5,-55.5"/>
<text text-anchor="middle" x="324.5" y="-68.7" font-family="Times,serif" font-size="14.00">w0x0</text>
<polyline fill="none" stroke="black" points="347.5,-56 347.5,-91.5"/>
<text text-anchor="middle" x="376.5" y="-68.7" font-family="Times,serif" font-size="14.00">&#45;6.0000</text>
<polyline fill="none" stroke="black" points="405.5,-56 405.5,-91.5"/>
<text text-anchor="middle" x="448" y="-68.7" font-family="Times,serif" font-size="14.00">grad: 0.5000</text>
</g>
<!-- 5771957152&#45;&gt;6048859232+ -->
<g id="edge16" class="edge">
<title>5771957152&#45;&gt;6048859232+</title>
<path fill="none" stroke="black" d="M490.6,-89.75C499.48,-91.29 508.08,-92.79 515.89,-94.14"/>
<polygon fill="black" stroke="black" points="515.15,-97.57 525.6,-95.83 516.35,-90.67 515.15,-97.57"/>
</g>
<!-- 5771957152*&#45;&gt;5771957152 -->
<g id="edge7" class="edge">
<title>5771957152*&#45;&gt;5771957152</title>
<path fill="none" stroke="black" d="M265.88,-73.5C273.01,-73.5 281.18,-73.5 289.87,-73.5"/>
<polygon fill="black" stroke="black" points="289.61,-77 299.61,-73.5 289.61,-70 289.61,-77"/>
</g>
<!-- 6048859232 -->
<g id="node21" class="node">
<title>6048859232</title>
<polygon fill="none" stroke="black" points="616.5,-82.5 616.5,-118.5 835.5,-118.5 835.5,-82.5 616.5,-82.5"/>
<text text-anchor="middle" x="654.5" y="-95.7" font-family="Times,serif" font-size="14.00">w0x0w1x1</text>
<polyline fill="none" stroke="black" points="692.5,-83 692.5,-118.5"/>
<text text-anchor="middle" x="721.5" y="-95.7" font-family="Times,serif" font-size="14.00">&#45;6.0000</text>
<polyline fill="none" stroke="black" points="750.5,-83 750.5,-118.5"/>
<text text-anchor="middle" x="793" y="-95.7" font-family="Times,serif" font-size="14.00">grad: 0.5000</text>
</g>
<!-- 6048859232&#45;&gt;6048859712+ -->
<g id="edge29" class="edge">
<title>6048859232&#45;&gt;6048859712+</title>
<path fill="none" stroke="black" d="M835.95,-117.75C844.68,-119.14 853.06,-120.46 860.67,-121.67"/>
<polygon fill="black" stroke="black" points="860.01,-125.11 870.43,-123.21 861.1,-118.19 860.01,-125.11"/>
</g>
<!-- 6048859232+&#45;&gt;6048859232 -->
<g id="edge8" class="edge">
<title>6048859232+&#45;&gt;6048859232</title>
<path fill="none" stroke="black" d="M580.77,-100.5C587.86,-100.5 596.02,-100.5 604.78,-100.5"/>
<polygon fill="black" stroke="black" points="604.64,-104 614.64,-100.5 604.64,-97 604.64,-104"/>
</g>
<!-- 6048861440 -->
<g id="node23" class="node">
<title>6048861440</title>
<polygon fill="none" stroke="black" points="2025,-96.5 2025,-132.5 2183.25,-132.5 2183.25,-96.5 2025,-96.5"/>
<text text-anchor="middle" x="2034.88" y="-109.7" font-family="Times,serif" font-size="14.00"> </text>
<polyline fill="none" stroke="black" points="2044.75,-97 2044.75,-132.5"/>
<text text-anchor="middle" x="2071.5" y="-109.7" font-family="Times,serif" font-size="14.00">4.8285</text>
<polyline fill="none" stroke="black" points="2098.25,-97 2098.25,-132.5"/>
<text text-anchor="middle" x="2140.75" y="-109.7" font-family="Times,serif" font-size="14.00">grad: 0.1464</text>
</g>
<!-- 6048861440&#45;&gt;5771907568* -->
<g id="edge17" class="edge">
<title>6048861440&#45;&gt;5771907568*</title>
<path fill="none" stroke="black" d="M2183.52,-120.83C2252.29,-126.38 2349.29,-134.22 2401.94,-138.47"/>
<polygon fill="black" stroke="black" points="2401.64,-141.95 2411.89,-139.27 2402.21,-134.98 2401.64,-141.95"/>
</g>
<!-- 6048861440+&#45;&gt;6048861440 -->
<g id="edge9" class="edge">
<title>6048861440+&#45;&gt;6048861440</title>
<path fill="none" stroke="black" d="M1790.56,-114.5C1837.74,-114.5 1938.78,-114.5 2013.26,-114.5"/>
<polygon fill="black" stroke="black" points="2013,-118 2023,-114.5 2013,-111 2013,-118"/>
</g>
<!-- 6048859712 -->
<g id="node25" class="node">
<title>6048859712</title>
<polygon fill="none" stroke="black" points="961.5,-109.5 961.5,-145.5 1122.75,-145.5 1122.75,-109.5 961.5,-109.5"/>
<text text-anchor="middle" x="972.88" y="-122.7" font-family="Times,serif" font-size="14.00">n</text>
<polyline fill="none" stroke="black" points="984.25,-110 984.25,-145.5"/>
<text text-anchor="middle" x="1011" y="-122.7" font-family="Times,serif" font-size="14.00">0.8814</text>
<polyline fill="none" stroke="black" points="1037.75,-110 1037.75,-145.5"/>
<text text-anchor="middle" x="1080.25" y="-122.7" font-family="Times,serif" font-size="14.00">grad: 0.5000</text>
</g>
<!-- 6048859712&#45;&gt;6048858320e -->
<g id="edge27" class="edge">
<title>6048859712&#45;&gt;6048858320e</title>
<path fill="none" stroke="black" d="M1123.04,-112.26C1131.79,-110.6 1140.35,-108.96 1148.18,-107.47"/>
<polygon fill="black" stroke="black" points="1148.77,-110.92 1157.94,-105.61 1147.46,-104.05 1148.77,-110.92"/>
</g>
<!-- 5771917152e -->
<g id="node29" class="node">
<title>5771917152e</title>
<ellipse fill="none" stroke="black" cx="1185.75" cy="-154.5" rx="27" ry="18"/>
<text text-anchor="middle" x="1185.75" y="-149.45" font-family="Times,serif" font-size="14.00">e</text>
</g>
<!-- 6048859712&#45;&gt;5771917152e -->
<g id="edge28" class="edge">
<title>6048859712&#45;&gt;5771917152e</title>
<path fill="none" stroke="black" d="M1123.04,-142.74C1131.79,-144.4 1140.35,-146.04 1148.18,-147.53"/>
<polygon fill="black" stroke="black" points="1147.46,-150.95 1157.94,-149.39 1148.77,-144.08 1147.46,-150.95"/>
</g>
<!-- 6048859712+&#45;&gt;6048859712 -->
<g id="edge10" class="edge">
<title>6048859712+&#45;&gt;6048859712</title>
<path fill="none" stroke="black" d="M925.81,-127.5C932.93,-127.5 941.05,-127.5 949.63,-127.5"/>
<polygon fill="black" stroke="black" points="949.59,-131 959.59,-127.5 949.59,-124 949.59,-131"/>
</g>
<!-- 6048861920 -->
<g id="node27" class="node">
<title>6048861920</title>
<polygon fill="none" stroke="black" points="1537.5,-96.5 1537.5,-132.5 1700.25,-132.5 1700.25,-96.5 1537.5,-96.5"/>
<text text-anchor="middle" x="1547.38" y="-109.7" font-family="Times,serif" font-size="14.00"> </text>
<polyline fill="none" stroke="black" points="1557.25,-97 1557.25,-132.5"/>
<text text-anchor="middle" x="1586.25" y="-109.7" font-family="Times,serif" font-size="14.00">&#45;1.0000</text>
<polyline fill="none" stroke="black" points="1615.25,-97 1615.25,-132.5"/>
<text text-anchor="middle" x="1657.75" y="-109.7" font-family="Times,serif" font-size="14.00">grad: 0.1464</text>
</g>
<!-- 6048861920&#45;&gt;6048861440+ -->
<g id="edge18" class="edge">
<title>6048861920&#45;&gt;6048861440+</title>
<path fill="none" stroke="black" d="M1700.63,-114.5C1708.85,-114.5 1716.9,-114.5 1724.32,-114.5"/>
<polygon fill="black" stroke="black" points="1724.27,-118 1734.27,-114.5 1724.27,-111 1724.27,-118"/>
</g>
<!-- 5771917152 -->
<g id="node28" class="node">
<title>5771917152</title>
<polygon fill="none" stroke="black" points="1248.75,-144.5 1248.75,-180.5 1411.5,-180.5 1411.5,-144.5 1248.75,-144.5"/>
<text text-anchor="middle" x="1258.62" y="-157.7" font-family="Times,serif" font-size="14.00"> </text>
<polyline fill="none" stroke="black" points="1268.5,-145 1268.5,-180.5"/>
<text text-anchor="middle" x="1295.25" y="-157.7" font-family="Times,serif" font-size="14.00">2.4142</text>
<polyline fill="none" stroke="black" points="1322,-145 1322,-180.5"/>
<text text-anchor="middle" x="1366.75" y="-157.7" font-family="Times,serif" font-size="14.00">grad: &#45;0.5000</text>
</g>
<!-- 5771917248**2 -->
<g id="node31" class="node">
<title>5771917248**2</title>
<ellipse fill="none" stroke="black" cx="1474.5" cy="-165.5" rx="27" ry="18"/>
<text text-anchor="middle" x="1474.5" y="-160.45" font-family="Times,serif" font-size="14.00">**2</text>
</g>
<!-- 5771917152&#45;&gt;5771917248**2 -->
<g id="edge31" class="edge">
<title>5771917152&#45;&gt;5771917248**2</title>
<path fill="none" stroke="black" d="M1411.88,-164.2C1420.1,-164.37 1428.15,-164.54 1435.57,-164.7"/>
<polygon fill="black" stroke="black" points="1435.44,-168.2 1445.52,-164.91 1435.59,-161.2 1435.44,-168.2"/>
</g>
<!-- 5771917152e&#45;&gt;5771917152 -->
<g id="edge11" class="edge">
<title>5771917152e&#45;&gt;5771917152</title>
<path fill="none" stroke="black" d="M1212.86,-155.97C1220.09,-156.37 1228.37,-156.84 1237.1,-157.33"/>
<polygon fill="black" stroke="black" points="1236.68,-160.81 1246.86,-157.88 1237.07,-153.82 1236.68,-160.81"/>
</g>
<!-- 5771917248 -->
<g id="node30" class="node">
<title>5771917248</title>
<polygon fill="none" stroke="black" points="1537.5,-151.5 1537.5,-187.5 1700.25,-187.5 1700.25,-151.5 1537.5,-151.5"/>
<text text-anchor="middle" x="1547.38" y="-164.7" font-family="Times,serif" font-size="14.00"> </text>
<polyline fill="none" stroke="black" points="1557.25,-152 1557.25,-187.5"/>
<text text-anchor="middle" x="1584" y="-164.7" font-family="Times,serif" font-size="14.00">5.8285</text>
<polyline fill="none" stroke="black" points="1610.75,-152 1610.75,-187.5"/>
<text text-anchor="middle" x="1655.5" y="-164.7" font-family="Times,serif" font-size="14.00">grad: &#45;0.1036</text>
</g>
<!-- 5771917248&#45;&gt;5771907136+ -->
<g id="edge15" class="edge">
<title>5771917248&#45;&gt;5771907136+</title>
<path fill="none" stroke="black" d="M1700.63,-169.5C1708.85,-169.5 1716.9,-169.5 1724.32,-169.5"/>
<polygon fill="black" stroke="black" points="1724.27,-173 1734.27,-169.5 1724.27,-166 1724.27,-173"/>
</g>
<!-- 5771917248**2&#45;&gt;5771917248 -->
<g id="edge12" class="edge">
<title>5771917248**2&#45;&gt;5771917248</title>
<path fill="none" stroke="black" d="M1501.95,-166.24C1509.05,-166.44 1517.15,-166.67 1525.69,-166.91"/>
<polygon fill="black" stroke="black" points="1525.52,-170.41 1535.62,-167.19 1525.72,-163.41 1525.52,-170.41"/>
</g>
</g>
</svg>
