<?xml version="1.0" encoding="UTF-8" standalone="no"?>
<!DOCTYPE svg PUBLIC "-//W3C//DTD SVG 1.1//EN"
 "http://www.w3.org/Graphics/SVG/1.1/DTD/svg11.dtd">
<!-- Generated by graphviz version 10.0.1 (20240210.2158)
 -->
<!-- Pages: 1 -->
<svg width="1060pt" height="154pt"
 viewBox="0.00 0.00 1060.25 154.00" xmlns="http://www.w3.org/2000/svg" xmlns:xlink="http://www.w3.org/1999/xlink">
<g id="graph0" class="graph" transform="scale(1 1) rotate(0) translate(4 150)">
<polygon fill="white" stroke="none" points="-4,4 -4,-150 1056.25,-150 1056.25,4 -4,4"/>
<!-- 5770912288 -->
<g id="node1" class="node">
<title>5770912288</title>
<polygon fill="none" stroke="black" points="594.75,-109.5 594.75,-145.5 758.25,-145.5 758.25,-109.5 594.75,-109.5"/>
<text text-anchor="middle" x="605" y="-122.7" font-family="Times,serif" font-size="14.00">f</text>
<polyline fill="none" stroke="black" points="615.25,-110 615.25,-145.5"/>
<text text-anchor="middle" x="644.25" y="-122.7" font-family="Times,serif" font-size="14.00">&#45;2.0000</text>
<polyline fill="none" stroke="black" points="673.25,-110 673.25,-145.5"/>
<text text-anchor="middle" x="715.75" y="-122.7" font-family="Times,serif" font-size="14.00">grad: 4.0000</text>
</g>
<!-- 5770913344* -->
<g id="node3" class="node">
<title>5770913344*</title>
<ellipse fill="none" stroke="black" cx="822" cy="-99.5" rx="27" ry="18"/>
<text text-anchor="middle" x="822" y="-94.45" font-family="Times,serif" font-size="14.00">*</text>
</g>
<!-- 5770912288&#45;&gt;5770913344* -->
<g id="edge4" class="edge">
<title>5770912288&#45;&gt;5770913344*</title>
<path fill="none" stroke="black" d="M758.48,-111.7C767.53,-109.93 776.39,-108.2 784.45,-106.63"/>
<polygon fill="black" stroke="black" points="785.01,-110.09 794.15,-104.74 783.67,-103.22 785.01,-110.09"/>
</g>
<!-- 5770913344 -->
<g id="node2" class="node">
<title>5770913344</title>
<polygon fill="none" stroke="black" points="885,-81.5 885,-117.5 1052.25,-117.5 1052.25,-81.5 885,-81.5"/>
<text text-anchor="middle" x="897.12" y="-94.7" font-family="Times,serif" font-size="14.00">L</text>
<polyline fill="none" stroke="black" points="909.25,-82 909.25,-117.5"/>
<text text-anchor="middle" x="938.25" y="-94.7" font-family="Times,serif" font-size="14.00">&#45;8.0000</text>
<polyline fill="none" stroke="black" points="967.25,-82 967.25,-117.5"/>
<text text-anchor="middle" x="1009.75" y="-94.7" font-family="Times,serif" font-size="14.00">grad: 1.0000</text>
</g>
<!-- 5770913344*&#45;&gt;5770913344 -->
<g id="edge1" class="edge">
<title>5770913344*&#45;&gt;5770913344</title>
<path fill="none" stroke="black" d="M849.19,-99.5C856.4,-99.5 864.66,-99.5 873.4,-99.5"/>
<polygon fill="black" stroke="black" points="873.15,-103 883.15,-99.5 873.15,-96 873.15,-103"/>
</g>
<!-- 5770912864 -->
<g id="node4" class="node">
<title>5770912864</title>
<polygon fill="none" stroke="black" points="594,-54.5 594,-90.5 759,-90.5 759,-54.5 594,-54.5"/>
<text text-anchor="middle" x="605" y="-67.7" font-family="Times,serif" font-size="14.00">e</text>
<polyline fill="none" stroke="black" points="616,-55 616,-90.5"/>
<text text-anchor="middle" x="642.75" y="-67.7" font-family="Times,serif" font-size="14.00">4.0000</text>
<polyline fill="none" stroke="black" points="669.5,-55 669.5,-90.5"/>
<text text-anchor="middle" x="714.25" y="-67.7" font-family="Times,serif" font-size="14.00">grad: &#45;2.0000</text>
</g>
<!-- 5770912864&#45;&gt;5770913344* -->
<g id="edge8" class="edge">
<title>5770912864&#45;&gt;5770913344*</title>
<path fill="none" stroke="black" d="M759.31,-87.89C768.09,-89.54 776.66,-91.16 784.49,-92.63"/>
<polygon fill="black" stroke="black" points="783.76,-96.06 794.24,-94.46 785.06,-89.18 783.76,-96.06"/>
</g>
<!-- 5770912864+ -->
<g id="node5" class="node">
<title>5770912864+</title>
<ellipse fill="none" stroke="black" cx="531" cy="-72.5" rx="27" ry="18"/>
<text text-anchor="middle" x="531" y="-67.45" font-family="Times,serif" font-size="14.00">+</text>
</g>
<!-- 5770912864+&#45;&gt;5770912864 -->
<g id="edge2" class="edge">
<title>5770912864+&#45;&gt;5770912864</title>
<path fill="none" stroke="black" d="M558.32,-72.5C565.41,-72.5 573.5,-72.5 582.05,-72.5"/>
<polygon fill="black" stroke="black" points="581.99,-76 591.99,-72.5 581.99,-69 581.99,-76"/>
</g>
<!-- 5770913584 -->
<g id="node6" class="node">
<title>5770913584</title>
<polygon fill="none" stroke="black" points="296.25,-82.5 296.25,-118.5 468,-118.5 468,-82.5 296.25,-82.5"/>
<text text-anchor="middle" x="307.25" y="-95.7" font-family="Times,serif" font-size="14.00">c</text>
<polyline fill="none" stroke="black" points="318.25,-83 318.25,-118.5"/>
<text text-anchor="middle" x="348.38" y="-95.7" font-family="Times,serif" font-size="14.00">10.0000</text>
<polyline fill="none" stroke="black" points="378.5,-83 378.5,-118.5"/>
<text text-anchor="middle" x="423.25" y="-95.7" font-family="Times,serif" font-size="14.00">grad: &#45;2.0000</text>
</g>
<!-- 5770913584&#45;&gt;5770912864+ -->
<g id="edge5" class="edge">
<title>5770913584&#45;&gt;5770912864+</title>
<path fill="none" stroke="black" d="M468.14,-84.29C476.98,-82.61 485.6,-80.96 493.46,-79.47"/>
<polygon fill="black" stroke="black" points="494.07,-82.91 503.24,-77.6 492.76,-76.04 494.07,-82.91"/>
</g>
<!-- 5770913632 -->
<g id="node7" class="node">
<title>5770913632</title>
<polygon fill="none" stroke="black" points="297,-27.5 297,-63.5 467.25,-63.5 467.25,-27.5 297,-27.5"/>
<text text-anchor="middle" x="308.38" y="-40.7" font-family="Times,serif" font-size="14.00">d</text>
<polyline fill="none" stroke="black" points="319.75,-28 319.75,-63.5"/>
<text text-anchor="middle" x="348.75" y="-40.7" font-family="Times,serif" font-size="14.00">&#45;6.0000</text>
<polyline fill="none" stroke="black" points="377.75,-28 377.75,-63.5"/>
<text text-anchor="middle" x="422.5" y="-40.7" font-family="Times,serif" font-size="14.00">grad: &#45;2.0000</text>
</g>
<!-- 5770913632&#45;&gt;5770912864+ -->
<g id="edge9" class="edge">
<title>5770913632&#45;&gt;5770912864+</title>
<path fill="none" stroke="black" d="M467.71,-61.05C476.71,-62.7 485.48,-64.32 493.46,-65.78"/>
<polygon fill="black" stroke="black" points="492.57,-69.18 503.04,-67.54 493.84,-62.29 492.57,-69.18"/>
</g>
<!-- 5770913632* -->
<g id="node8" class="node">
<title>5770913632*</title>
<ellipse fill="none" stroke="black" cx="233.25" cy="-45.5" rx="27" ry="18"/>
<text text-anchor="middle" x="233.25" y="-40.45" font-family="Times,serif" font-size="14.00">*</text>
</g>
<!-- 5770913632*&#45;&gt;5770913632 -->
<g id="edge3" class="edge">
<title>5770913632*&#45;&gt;5770913632</title>
<path fill="none" stroke="black" d="M260.51,-45.5C267.82,-45.5 276.21,-45.5 285.09,-45.5"/>
<polygon fill="black" stroke="black" points="285.04,-49 295.04,-45.5 285.04,-42 285.04,-49"/>
</g>
<!-- 5770913680 -->
<g id="node9" class="node">
<title>5770913680</title>
<polygon fill="none" stroke="black" points="4.88,-55.5 4.88,-91.5 165.38,-91.5 165.38,-55.5 4.88,-55.5"/>
<text text-anchor="middle" x="15.88" y="-68.7" font-family="Times,serif" font-size="14.00">a</text>
<polyline fill="none" stroke="black" points="26.88,-56 26.88,-91.5"/>
<text text-anchor="middle" x="53.62" y="-68.7" font-family="Times,serif" font-size="14.00">2.0000</text>
<polyline fill="none" stroke="black" points="80.38,-56 80.38,-91.5"/>
<text text-anchor="middle" x="122.88" y="-68.7" font-family="Times,serif" font-size="14.00">grad: 6.0000</text>
</g>
<!-- 5770913680&#45;&gt;5770913632* -->
<g id="edge7" class="edge">
<title>5770913680&#45;&gt;5770913632*</title>
<path fill="none" stroke="black" d="M165.6,-58.27C176.14,-56.25 186.51,-54.26 195.8,-52.48"/>
<polygon fill="black" stroke="black" points="196.29,-55.95 205.46,-50.63 194.98,-49.08 196.29,-55.95"/>
</g>
<!-- 5770813936 -->
<g id="node10" class="node">
<title>5770813936</title>
<polygon fill="none" stroke="black" points="0,-0.5 0,-36.5 170.25,-36.5 170.25,-0.5 0,-0.5"/>
<text text-anchor="middle" x="11.38" y="-13.7" font-family="Times,serif" font-size="14.00">b</text>
<polyline fill="none" stroke="black" points="22.75,-1 22.75,-36.5"/>
<text text-anchor="middle" x="51.75" y="-13.7" font-family="Times,serif" font-size="14.00">&#45;3.0000</text>
<polyline fill="none" stroke="black" points="80.75,-1 80.75,-36.5"/>
<text text-anchor="middle" x="125.5" y="-13.7" font-family="Times,serif" font-size="14.00">grad: &#45;4.0000</text>
</g>
<!-- 5770813936&#45;&gt;5770913632* -->
<g id="edge6" class="edge">
<title>5770813936&#45;&gt;5770913632*</title>
<path fill="none" stroke="black" d="M170.7,-34.13C179.42,-35.74 187.91,-37.31 195.67,-38.74"/>
<polygon fill="black" stroke="black" points="194.85,-42.15 205.32,-40.52 196.12,-35.27 194.85,-42.15"/>
</g>
</g>
</svg>
