<?xml version="1.0" encoding="UTF-8" standalone="no"?>
<!DOCTYPE svg PUBLIC "-//W3C//DTD SVG 1.1//EN"
 "http://www.w3.org/Graphics/SVG/1.1/DTD/svg11.dtd">
<!-- Generated by graphviz version 10.0.1 (20240210.2158)
 -->
<!-- Pages: 1 -->
<svg width="456pt" height="45pt"
 viewBox="0.00 0.00 455.75 45.00" xmlns="http://www.w3.org/2000/svg" xmlns:xlink="http://www.w3.org/1999/xlink">
<g id="graph0" class="graph" transform="scale(1 1) rotate(0) translate(4 41)">
<polygon fill="white" stroke="none" points="-4,4 -4,-41 451.75,-41 451.75,4 -4,4"/>
<!-- 5771960272 -->
<g id="node1" class="node">
<title>5771960272</title>
<polygon fill="none" stroke="black" points="286.5,-0.5 286.5,-36.5 447.75,-36.5 447.75,-0.5 286.5,-0.5"/>
<text text-anchor="middle" x="297.88" y="-13.7" font-family="Times,serif" font-size="14.00">b</text>
<polyline fill="none" stroke="black" points="309.25,-1 309.25,-36.5"/>
<text text-anchor="middle" x="336" y="-13.7" font-family="Times,serif" font-size="14.00">0.0000</text>
<polyline fill="none" stroke="black" points="362.75,-1 362.75,-36.5"/>
<text text-anchor="middle" x="405.25" y="-13.7" font-family="Times,serif" font-size="14.00">grad: 1.0000</text>
</g>
<!-- 5771960272relu -->
<g id="node2" class="node">
<title>5771960272relu</title>
<ellipse fill="none" stroke="black" cx="223.5" cy="-18.5" rx="27" ry="18"/>
<text text-anchor="middle" x="223.5" y="-13.45" font-family="Times,serif" font-size="14.00">relu</text>
</g>
<!-- 5771960272relu&#45;&gt;5771960272 -->
<g id="edge1" class="edge">
<title>5771960272relu&#45;&gt;5771960272</title>
<path fill="none" stroke="black" d="M250.81,-18.5C257.93,-18.5 266.05,-18.5 274.63,-18.5"/>
<polygon fill="black" stroke="black" points="274.59,-22 284.59,-18.5 274.59,-15 274.59,-22"/>
</g>
<!-- 5771565808 -->
<g id="node3" class="node">
<title>5771565808</title>
<polygon fill="none" stroke="black" points="0,-0.5 0,-36.5 160.5,-36.5 160.5,-0.5 0,-0.5"/>
<text text-anchor="middle" x="11" y="-13.7" font-family="Times,serif" font-size="14.00">a</text>
<polyline fill="none" stroke="black" points="22,-1 22,-36.5"/>
<text text-anchor="middle" x="48.75" y="-13.7" font-family="Times,serif" font-size="14.00">0.0000</text>
<polyline fill="none" stroke="black" points="75.5,-1 75.5,-36.5"/>
<text text-anchor="middle" x="118" y="-13.7" font-family="Times,serif" font-size="14.00">grad: 0.0000</text>
</g>
<!-- 5771565808&#45;&gt;5771960272relu -->
<g id="edge2" class="edge">
<title>5771565808&#45;&gt;5771960272relu</title>
<path fill="none" stroke="black" d="M160.96,-18.5C169.15,-18.5 177.18,-18.5 184.6,-18.5"/>
<polygon fill="black" stroke="black" points="184.52,-22 194.52,-18.5 184.52,-15 184.52,-22"/>
</g>
</g>
</svg>
