<?xml version="1.0" encoding="UTF-8" standalone="no"?>
<!DOCTYPE svg PUBLIC "-//W3C//DTD SVG 1.1//EN"
 "http://www.w3.org/Graphics/SVG/1.1/DTD/svg11.dtd">
<!-- Generated by graphviz version 10.0.1 (20240210.2158)
 -->
<!-- Pages: 1 -->
<svg width="747pt" height="45pt"
 viewBox="0.00 0.00 746.75 45.00" xmlns="http://www.w3.org/2000/svg" xmlns:xlink="http://www.w3.org/1999/xlink">
<g id="graph0" class="graph" transform="scale(1 1) rotate(0) translate(4 41)">
<polygon fill="white" stroke="none" points="-4,4 -4,-41 742.75,-41 742.75,4 -4,4"/>
<!-- 5771917824 -->
<g id="node1" class="node">
<title>5771917824</title>
<polygon fill="none" stroke="black" points="293.25,-0.5 293.25,-36.5 454.5,-36.5 454.5,-0.5 293.25,-0.5"/>
<text text-anchor="middle" x="304.62" y="-13.7" font-family="Times,serif" font-size="14.00">b</text>
<polyline fill="none" stroke="black" points="316,-1 316,-36.5"/>
<text text-anchor="middle" x="342.75" y="-13.7" font-family="Times,serif" font-size="14.00">2.7183</text>
<polyline fill="none" stroke="black" points="369.5,-1 369.5,-36.5"/>
<text text-anchor="middle" x="412" y="-13.7" font-family="Times,serif" font-size="14.00">grad: 5.4366</text>
</g>
<!-- 5771917632**2 -->
<g id="node5" class="node">
<title>5771917632**2</title>
<ellipse fill="none" stroke="black" cx="517.5" cy="-18.5" rx="27" ry="18"/>
<text text-anchor="middle" x="517.5" y="-13.45" font-family="Times,serif" font-size="14.00">**2</text>
</g>
<!-- 5771917824&#45;&gt;5771917632**2 -->
<g id="edge4" class="edge">
<title>5771917824&#45;&gt;5771917632**2</title>
<path fill="none" stroke="black" d="M454.79,-18.5C463.19,-18.5 471.42,-18.5 478.99,-18.5"/>
<polygon fill="black" stroke="black" points="478.76,-22 488.76,-18.5 478.76,-15 478.76,-22"/>
</g>
<!-- 5771917824e -->
<g id="node2" class="node">
<title>5771917824e</title>
<ellipse fill="none" stroke="black" cx="230.25" cy="-18.5" rx="27" ry="18"/>
<text text-anchor="middle" x="230.25" y="-13.45" font-family="Times,serif" font-size="14.00">e</text>
</g>
<!-- 5771917824e&#45;&gt;5771917824 -->
<g id="edge1" class="edge">
<title>5771917824e&#45;&gt;5771917824</title>
<path fill="none" stroke="black" d="M257.56,-18.5C264.68,-18.5 272.8,-18.5 281.38,-18.5"/>
<polygon fill="black" stroke="black" points="281.34,-22 291.34,-18.5 281.34,-15 281.34,-22"/>
</g>
<!-- 5771917488 -->
<g id="node3" class="node">
<title>5771917488</title>
<polygon fill="none" stroke="black" points="0,-0.5 0,-36.5 167.25,-36.5 167.25,-0.5 0,-0.5"/>
<text text-anchor="middle" x="11" y="-13.7" font-family="Times,serif" font-size="14.00">a</text>
<polyline fill="none" stroke="black" points="22,-1 22,-36.5"/>
<text text-anchor="middle" x="48.75" y="-13.7" font-family="Times,serif" font-size="14.00">1.0000</text>
<polyline fill="none" stroke="black" points="75.5,-1 75.5,-36.5"/>
<text text-anchor="middle" x="121.38" y="-13.7" font-family="Times,serif" font-size="14.00">grad: 14.7781</text>
</g>
<!-- 5771917488&#45;&gt;5771917824e -->
<g id="edge3" class="edge">
<title>5771917488&#45;&gt;5771917824e</title>
<path fill="none" stroke="black" d="M167.5,-18.5C175.76,-18.5 183.84,-18.5 191.29,-18.5"/>
<polygon fill="black" stroke="black" points="191.26,-22 201.26,-18.5 191.26,-15 191.26,-22"/>
</g>
<!-- 5771917632 -->
<g id="node4" class="node">
<title>5771917632</title>
<polygon fill="none" stroke="black" points="580.5,-0.5 580.5,-36.5 738.75,-36.5 738.75,-0.5 580.5,-0.5"/>
<text text-anchor="middle" x="590.38" y="-13.7" font-family="Times,serif" font-size="14.00"> </text>
<polyline fill="none" stroke="black" points="600.25,-1 600.25,-36.5"/>
<text text-anchor="middle" x="627" y="-13.7" font-family="Times,serif" font-size="14.00">7.3891</text>
<polyline fill="none" stroke="black" points="653.75,-1 653.75,-36.5"/>
<text text-anchor="middle" x="696.25" y="-13.7" font-family="Times,serif" font-size="14.00">grad: 1.0000</text>
</g>
<!-- 5771917632**2&#45;&gt;5771917632 -->
<g id="edge2" class="edge">
<title>5771917632**2&#45;&gt;5771917632</title>
<path fill="none" stroke="black" d="M544.86,-18.5C551.97,-18.5 560.08,-18.5 568.62,-18.5"/>
<polygon fill="black" stroke="black" points="568.54,-22 578.54,-18.5 568.54,-15 568.54,-22"/>
</g>
</g>
</svg>
