<?xml version="1.0" encoding="UTF-8" standalone="no"?>
<!DOCTYPE svg PUBLIC "-//W3C//DTD SVG 1.1//EN"
 "http://www.w3.org/Graphics/SVG/1.1/DTD/svg11.dtd">
<!-- Generated by graphviz version 10.0.1 (20240210.2158)
 -->
<!-- Pages: 1 -->
<svg width="1423pt" height="147pt"
 viewBox="0.00 0.00 1423.37 147.00" xmlns="http://www.w3.org/2000/svg" xmlns:xlink="http://www.w3.org/1999/xlink">
<g id="graph0" class="graph" transform="scale(1 1) rotate(0) translate(4 143)">
<polygon fill="white" stroke="none" points="-4,4 -4,-143 1419.37,-143 1419.37,4 -4,4"/>
<!-- 5771959888 -->
<g id="node1" class="node">
<title>5771959888</title>
<polygon fill="none" stroke="black" points="679.5,-54.5 679.5,-90.5 842.25,-90.5 842.25,-54.5 679.5,-54.5"/>
<text text-anchor="middle" x="689.37" y="-67.7" font-family="Times,serif" font-size="14.00"> </text>
<polyline fill="none" stroke="black" points="699.25,-55 699.25,-90.5"/>
<text text-anchor="middle" x="726" y="-67.7" font-family="Times,serif" font-size="14.00">2.0000</text>
<polyline fill="none" stroke="black" points="752.75,-55 752.75,-90.5"/>
<text text-anchor="middle" x="797.5" y="-67.7" font-family="Times,serif" font-size="14.00">grad: &#45;0.2500</text>
</g>
<!-- 5771959216**&#45;1 -->
<g id="node11" class="node">
<title>5771959216**&#45;1</title>
<ellipse fill="none" stroke="black" cx="906.06" cy="-71.5" rx="27.81" ry="18"/>
<text text-anchor="middle" x="906.06" y="-66.45" font-family="Times,serif" font-size="14.00">**&#45;1</text>
</g>
<!-- 5771959888&#45;&gt;5771959216**&#45;1 -->
<g id="edge9" class="edge">
<title>5771959888&#45;&gt;5771959216**&#45;1</title>
<path fill="none" stroke="black" d="M842.67,-71.94C851,-71.88 859.15,-71.82 866.68,-71.77"/>
<polygon fill="black" stroke="black" points="866.44,-75.27 876.41,-71.7 866.39,-68.27 866.44,-75.27"/>
</g>
<!-- 5771959888+ -->
<g id="node2" class="node">
<title>5771959888+</title>
<ellipse fill="none" stroke="black" cx="564.37" cy="-73.5" rx="27" ry="18"/>
<text text-anchor="middle" x="564.37" y="-68.45" font-family="Times,serif" font-size="14.00">+</text>
</g>
<!-- 5771959888+&#45;&gt;5771959888 -->
<g id="edge1" class="edge">
<title>5771959888+&#45;&gt;5771959888</title>
<path fill="none" stroke="black" d="M591.61,-73.37C611.38,-73.26 639.77,-73.12 667.62,-72.97"/>
<polygon fill="black" stroke="black" points="667.58,-76.47 677.56,-72.92 667.54,-69.47 667.58,-76.47"/>
</g>
<!-- 5771957872 -->
<g id="node3" class="node">
<title>5771957872</title>
<polygon fill="none" stroke="black" points="1254.12,-27.5 1254.12,-63.5 1415.37,-63.5 1415.37,-27.5 1254.12,-27.5"/>
<text text-anchor="middle" x="1265.49" y="-40.7" font-family="Times,serif" font-size="14.00">b</text>
<polyline fill="none" stroke="black" points="1276.87,-28 1276.87,-63.5"/>
<text text-anchor="middle" x="1303.62" y="-40.7" font-family="Times,serif" font-size="14.00">0.5000</text>
<polyline fill="none" stroke="black" points="1330.37,-28 1330.37,-63.5"/>
<text text-anchor="middle" x="1372.87" y="-40.7" font-family="Times,serif" font-size="14.00">grad: 1.0000</text>
</g>
<!-- 5771957872* -->
<g id="node4" class="node">
<title>5771957872*</title>
<ellipse fill="none" stroke="black" cx="1191.12" cy="-45.5" rx="27" ry="18"/>
<text text-anchor="middle" x="1191.12" y="-40.45" font-family="Times,serif" font-size="14.00">*</text>
</g>
<!-- 5771957872*&#45;&gt;5771957872 -->
<g id="edge2" class="edge">
<title>5771957872*&#45;&gt;5771957872</title>
<path fill="none" stroke="black" d="M1218.42,-45.5C1225.54,-45.5 1233.67,-45.5 1242.24,-45.5"/>
<polygon fill="black" stroke="black" points="1242.21,-49 1252.21,-45.5 1242.21,-42 1242.21,-49"/>
</g>
<!-- 5771957392 -->
<g id="node5" class="node">
<title>5771957392</title>
<polygon fill="none" stroke="black" points="286.5,-47.5 286.5,-83.5 449.25,-83.5 449.25,-47.5 286.5,-47.5"/>
<text text-anchor="middle" x="296.38" y="-60.7" font-family="Times,serif" font-size="14.00"> </text>
<polyline fill="none" stroke="black" points="306.25,-48 306.25,-83.5"/>
<text text-anchor="middle" x="333" y="-60.7" font-family="Times,serif" font-size="14.00">1.0000</text>
<polyline fill="none" stroke="black" points="359.75,-48 359.75,-83.5"/>
<text text-anchor="middle" x="404.5" y="-60.7" font-family="Times,serif" font-size="14.00">grad: &#45;0.2500</text>
</g>
<!-- 5771957392&#45;&gt;5771959888+ -->
<g id="edge7" class="edge">
<title>5771957392&#45;&gt;5771959888+</title>
<path fill="none" stroke="black" d="M449.67,-68.82C476.09,-69.91 504.18,-71.07 525.83,-71.96"/>
<polygon fill="black" stroke="black" points="525.49,-75.44 535.63,-72.36 525.78,-68.45 525.49,-75.44"/>
</g>
<!-- 5771959504 -->
<g id="node6" class="node">
<title>5771959504</title>
<polygon fill="none" stroke="black" points="286.5,-102.5 286.5,-138.5 449.25,-138.5 449.25,-102.5 286.5,-102.5"/>
<text text-anchor="middle" x="296.38" y="-115.7" font-family="Times,serif" font-size="14.00"> </text>
<polyline fill="none" stroke="black" points="306.25,-103 306.25,-138.5"/>
<text text-anchor="middle" x="333" y="-115.7" font-family="Times,serif" font-size="14.00">1.0000</text>
<polyline fill="none" stroke="black" points="359.75,-103 359.75,-138.5"/>
<text text-anchor="middle" x="404.5" y="-115.7" font-family="Times,serif" font-size="14.00">grad: &#45;0.2500</text>
</g>
<!-- 5771959504&#45;&gt;5771959888+ -->
<g id="edge6" class="edge">
<title>5771959504&#45;&gt;5771959888+</title>
<path fill="none" stroke="black" d="M445.19,-102.06C473.59,-95.2 504.5,-87.73 527.58,-82.15"/>
<polygon fill="black" stroke="black" points="528.19,-85.6 537.09,-79.85 526.55,-78.8 528.19,-85.6"/>
</g>
<!-- 5771959504e -->
<g id="node7" class="node">
<title>5771959504e</title>
<ellipse fill="none" stroke="black" cx="223.5" cy="-108.5" rx="27" ry="18"/>
<text text-anchor="middle" x="223.5" y="-103.45" font-family="Times,serif" font-size="14.00">e</text>
</g>
<!-- 5771959504e&#45;&gt;5771959504 -->
<g id="edge3" class="edge">
<title>5771959504e&#45;&gt;5771959504</title>
<path fill="none" stroke="black" d="M250.61,-110.7C257.84,-111.31 266.12,-112.01 274.85,-112.74"/>
<polygon fill="black" stroke="black" points="274.35,-116.21 284.61,-113.57 274.94,-109.24 274.35,-116.21"/>
</g>
<!-- 5771959696 -->
<g id="node8" class="node">
<title>5771959696</title>
<polygon fill="none" stroke="black" points="485.25,-0.5 485.25,-36.5 643.5,-36.5 643.5,-0.5 485.25,-0.5"/>
<text text-anchor="middle" x="495.12" y="-13.7" font-family="Times,serif" font-size="14.00"> </text>
<polyline fill="none" stroke="black" points="505,-1 505,-36.5"/>
<text text-anchor="middle" x="531.75" y="-13.7" font-family="Times,serif" font-size="14.00">1.0000</text>
<polyline fill="none" stroke="black" points="558.5,-1 558.5,-36.5"/>
<text text-anchor="middle" x="601" y="-13.7" font-family="Times,serif" font-size="14.00">grad: 0.5000</text>
</g>
<!-- 5771959696&#45;&gt;5771957872* -->
<g id="edge10" class="edge">
<title>5771959696&#45;&gt;5771957872*</title>
<path fill="none" stroke="black" d="M643.87,-21.89C779.44,-27.75 1052.54,-39.55 1152.42,-43.87"/>
<polygon fill="black" stroke="black" points="1152.07,-47.36 1162.21,-44.29 1152.37,-40.37 1152.07,-47.36"/>
</g>
<!-- 5771959696e -->
<g id="node9" class="node">
<title>5771959696e</title>
<ellipse fill="none" stroke="black" cx="223.5" cy="-42.5" rx="27" ry="18"/>
<text text-anchor="middle" x="223.5" y="-37.45" font-family="Times,serif" font-size="14.00">e</text>
</g>
<!-- 5771959696e&#45;&gt;5771959696 -->
<g id="edge4" class="edge">
<title>5771959696e&#45;&gt;5771959696</title>
<path fill="none" stroke="black" d="M250.74,-40.31C261.78,-39.41 274.76,-38.38 286.5,-37.5 348.96,-32.84 419.39,-28.01 473.58,-24.39"/>
<polygon fill="black" stroke="black" points="473.63,-27.89 483.38,-23.74 473.17,-20.91 473.63,-27.89"/>
</g>
<!-- 5771959216 -->
<g id="node10" class="node">
<title>5771959216</title>
<polygon fill="none" stroke="black" points="969.87,-53.5 969.87,-89.5 1128.12,-89.5 1128.12,-53.5 969.87,-53.5"/>
<text text-anchor="middle" x="979.74" y="-66.7" font-family="Times,serif" font-size="14.00"> </text>
<polyline fill="none" stroke="black" points="989.62,-54 989.62,-89.5"/>
<text text-anchor="middle" x="1016.37" y="-66.7" font-family="Times,serif" font-size="14.00">0.5000</text>
<polyline fill="none" stroke="black" points="1043.12,-54 1043.12,-89.5"/>
<text text-anchor="middle" x="1085.62" y="-66.7" font-family="Times,serif" font-size="14.00">grad: 1.0000</text>
</g>
<!-- 5771959216&#45;&gt;5771957872* -->
<g id="edge8" class="edge">
<title>5771959216&#45;&gt;5771957872*</title>
<path fill="none" stroke="black" d="M1128.25,-56.98C1136.99,-55.36 1145.56,-53.77 1153.4,-52.31"/>
<polygon fill="black" stroke="black" points="1153.99,-55.76 1163.19,-50.5 1152.72,-48.88 1153.99,-55.76"/>
</g>
<!-- 5771959216**&#45;1&#45;&gt;5771959216 -->
<g id="edge5" class="edge">
<title>5771959216**&#45;1&#45;&gt;5771959216</title>
<path fill="none" stroke="black" d="M934.23,-71.5C941.41,-71.5 949.56,-71.5 958.13,-71.5"/>
<polygon fill="black" stroke="black" points="958.07,-75 968.07,-71.5 958.07,-68 958.07,-75"/>
</g>
<!-- 5771958208 -->
<g id="node12" class="node">
<title>5771958208</title>
<polygon fill="none" stroke="black" points="0,-51.5 0,-87.5 160.5,-87.5 160.5,-51.5 0,-51.5"/>
<text text-anchor="middle" x="11" y="-64.7" font-family="Times,serif" font-size="14.00">a</text>
<polyline fill="none" stroke="black" points="22,-52 22,-87.5"/>
<text text-anchor="middle" x="48.75" y="-64.7" font-family="Times,serif" font-size="14.00">0.0000</text>
<polyline fill="none" stroke="black" points="75.5,-52 75.5,-87.5"/>
<text text-anchor="middle" x="118" y="-64.7" font-family="Times,serif" font-size="14.00">grad: 0.2500</text>
</g>
<!-- 5771958208&#45;&gt;5771959504e -->
<g id="edge11" class="edge">
<title>5771958208&#45;&gt;5771959504e</title>
<path fill="none" stroke="black" d="M148.15,-87.97C161.66,-91.7 175.35,-95.48 187.24,-98.76"/>
<polygon fill="black" stroke="black" points="185.99,-102.05 196.56,-101.34 187.86,-95.3 185.99,-102.05"/>
</g>
<!-- 5771958208&#45;&gt;5771959696e -->
<g id="edge12" class="edge">
<title>5771958208&#45;&gt;5771959696e</title>
<path fill="none" stroke="black" d="M160.96,-54.26C169.68,-52.6 178.22,-50.96 186.03,-49.47"/>
<polygon fill="black" stroke="black" points="186.59,-52.93 195.75,-47.61 185.27,-46.05 186.59,-52.93"/>
</g>
</g>
</svg>
