<?xml version="1.0" encoding="UTF-8" standalone="no"?>
<!DOCTYPE svg PUBLIC "-//W3C//DTD SVG 1.1//EN"
 "http://www.w3.org/Graphics/SVG/1.1/DTD/svg11.dtd">
<!-- Generated by graphviz version 10.0.1 (20240210.2158)
 -->
<!-- Pages: 1 -->
<svg width="1050pt" height="128pt"
 viewBox="0.00 0.00 1049.75 128.00" xmlns="http://www.w3.org/2000/svg" xmlns:xlink="http://www.w3.org/1999/xlink">
<g id="graph0" class="graph" transform="scale(1 1) rotate(0) translate(4 124)">
<polygon fill="white" stroke="none" points="-4,4 -4,-124 1045.75,-124 1045.75,4 -4,4"/>
<!-- 6048169504 -->
<g id="node1" class="node">
<title>6048169504</title>
<polygon fill="none" stroke="black" points="585,-82.5 585,-118.5 748.5,-118.5 748.5,-82.5 585,-82.5"/>
<text text-anchor="middle" x="595.25" y="-95.7" font-family="Times,serif" font-size="14.00">f</text>
<polyline fill="none" stroke="black" points="605.5,-83 605.5,-118.5"/>
<text text-anchor="middle" x="634.5" y="-95.7" font-family="Times,serif" font-size="14.00">&#45;2.0000</text>
<polyline fill="none" stroke="black" points="663.5,-83 663.5,-118.5"/>
<text text-anchor="middle" x="706" y="-95.7" font-family="Times,serif" font-size="14.00">grad: 0.0000</text>
</g>
<!-- 6048167632* -->
<g id="node3" class="node">
<title>6048167632*</title>
<ellipse fill="none" stroke="black" cx="811.5" cy="-72.5" rx="27" ry="18"/>
<text text-anchor="middle" x="811.5" y="-67.45" font-family="Times,serif" font-size="14.00">*</text>
</g>
<!-- 6048169504&#45;&gt;6048167632* -->
<g id="edge9" class="edge">
<title>6048169504&#45;&gt;6048167632*</title>
<path fill="none" stroke="black" d="M748.72,-84.62C757.49,-82.9 766.07,-81.21 773.91,-79.68"/>
<polygon fill="black" stroke="black" points="774.54,-83.12 783.68,-77.76 773.19,-76.25 774.54,-83.12"/>
</g>
<!-- 6048167632 -->
<g id="node2" class="node">
<title>6048167632</title>
<polygon fill="none" stroke="black" points="874.5,-54.5 874.5,-90.5 1041.75,-90.5 1041.75,-54.5 874.5,-54.5"/>
<text text-anchor="middle" x="886.62" y="-67.7" font-family="Times,serif" font-size="14.00">L</text>
<polyline fill="none" stroke="black" points="898.75,-55 898.75,-90.5"/>
<text text-anchor="middle" x="927.75" y="-67.7" font-family="Times,serif" font-size="14.00">&#45;8.0000</text>
<polyline fill="none" stroke="black" points="956.75,-55 956.75,-90.5"/>
<text text-anchor="middle" x="999.25" y="-67.7" font-family="Times,serif" font-size="14.00">grad: 0.0000</text>
</g>
<!-- 6048167632*&#45;&gt;6048167632 -->
<g id="edge1" class="edge">
<title>6048167632*&#45;&gt;6048167632</title>
<path fill="none" stroke="black" d="M838.69,-72.5C845.9,-72.5 854.16,-72.5 862.9,-72.5"/>
<polygon fill="black" stroke="black" points="862.65,-76 872.65,-72.5 862.65,-69 862.65,-76"/>
</g>
<!-- 6048166192 -->
<g id="node4" class="node">
<title>6048166192</title>
<polygon fill="none" stroke="black" points="292.5,-55.5 292.5,-91.5 458.25,-91.5 458.25,-55.5 292.5,-55.5"/>
<text text-anchor="middle" x="303.88" y="-68.7" font-family="Times,serif" font-size="14.00">d</text>
<polyline fill="none" stroke="black" points="315.25,-56 315.25,-91.5"/>
<text text-anchor="middle" x="344.25" y="-68.7" font-family="Times,serif" font-size="14.00">&#45;6.0000</text>
<polyline fill="none" stroke="black" points="373.25,-56 373.25,-91.5"/>
<text text-anchor="middle" x="415.75" y="-68.7" font-family="Times,serif" font-size="14.00">grad: 0.0000</text>
</g>
<!-- 6048166864+ -->
<g id="node10" class="node">
<title>6048166864+</title>
<ellipse fill="none" stroke="black" cx="522" cy="-45.5" rx="27" ry="18"/>
<text text-anchor="middle" x="522" y="-40.45" font-family="Times,serif" font-size="14.00">+</text>
</g>
<!-- 6048166192&#45;&gt;6048166864+ -->
<g id="edge4" class="edge">
<title>6048166192&#45;&gt;6048166864+</title>
<path fill="none" stroke="black" d="M458.41,-57.62C467.49,-55.86 476.36,-54.14 484.44,-52.58"/>
<polygon fill="black" stroke="black" points="485,-56.04 494.15,-50.7 483.67,-49.16 485,-56.04"/>
</g>
<!-- 6048166192* -->
<g id="node5" class="node">
<title>6048166192*</title>
<ellipse fill="none" stroke="black" cx="228.75" cy="-73.5" rx="27" ry="18"/>
<text text-anchor="middle" x="228.75" y="-68.45" font-family="Times,serif" font-size="14.00">*</text>
</g>
<!-- 6048166192*&#45;&gt;6048166192 -->
<g id="edge2" class="edge">
<title>6048166192*&#45;&gt;6048166192</title>
<path fill="none" stroke="black" d="M255.94,-73.5C263.27,-73.5 271.68,-73.5 280.56,-73.5"/>
<polygon fill="black" stroke="black" points="280.51,-77 290.51,-73.5 280.51,-70 280.51,-77"/>
</g>
<!-- 6046026048 -->
<g id="node6" class="node">
<title>6046026048</title>
<polygon fill="none" stroke="black" points="0,-83.5 0,-119.5 165.75,-119.5 165.75,-83.5 0,-83.5"/>
<text text-anchor="middle" x="11.38" y="-96.7" font-family="Times,serif" font-size="14.00">b</text>
<polyline fill="none" stroke="black" points="22.75,-84 22.75,-119.5"/>
<text text-anchor="middle" x="51.75" y="-96.7" font-family="Times,serif" font-size="14.00">&#45;3.0000</text>
<polyline fill="none" stroke="black" points="80.75,-84 80.75,-119.5"/>
<text text-anchor="middle" x="123.25" y="-96.7" font-family="Times,serif" font-size="14.00">grad: 0.0000</text>
</g>
<!-- 6046026048&#45;&gt;6048166192* -->
<g id="edge5" class="edge">
<title>6046026048&#45;&gt;6048166192*</title>
<path fill="none" stroke="black" d="M165.9,-85.54C174.7,-83.82 183.29,-82.15 191.14,-80.62"/>
<polygon fill="black" stroke="black" points="191.78,-84.07 200.93,-78.72 190.44,-77.2 191.78,-84.07"/>
</g>
<!-- 6046025568 -->
<g id="node7" class="node">
<title>6046025568</title>
<polygon fill="none" stroke="black" points="291.75,-0.5 291.75,-36.5 459,-36.5 459,-0.5 291.75,-0.5"/>
<text text-anchor="middle" x="302.75" y="-13.7" font-family="Times,serif" font-size="14.00">c</text>
<polyline fill="none" stroke="black" points="313.75,-1 313.75,-36.5"/>
<text text-anchor="middle" x="343.88" y="-13.7" font-family="Times,serif" font-size="14.00">10.0000</text>
<polyline fill="none" stroke="black" points="374,-1 374,-36.5"/>
<text text-anchor="middle" x="416.5" y="-13.7" font-family="Times,serif" font-size="14.00">grad: 0.0000</text>
</g>
<!-- 6046025568&#45;&gt;6048166864+ -->
<g id="edge7" class="edge">
<title>6046025568&#45;&gt;6048166864+</title>
<path fill="none" stroke="black" d="M459.25,-33.97C468.05,-35.61 476.64,-37.22 484.47,-38.68"/>
<polygon fill="black" stroke="black" points="483.76,-42.11 494.24,-40.5 485.05,-35.23 483.76,-42.11"/>
</g>
<!-- 6046026624 -->
<g id="node8" class="node">
<title>6046026624</title>
<polygon fill="none" stroke="black" points="2.62,-28.5 2.62,-64.5 163.12,-64.5 163.12,-28.5 2.62,-28.5"/>
<text text-anchor="middle" x="13.62" y="-41.7" font-family="Times,serif" font-size="14.00">a</text>
<polyline fill="none" stroke="black" points="24.62,-29 24.62,-64.5"/>
<text text-anchor="middle" x="51.38" y="-41.7" font-family="Times,serif" font-size="14.00">2.0000</text>
<polyline fill="none" stroke="black" points="78.12,-29 78.12,-64.5"/>
<text text-anchor="middle" x="120.62" y="-41.7" font-family="Times,serif" font-size="14.00">grad: 0.0000</text>
</g>
<!-- 6046026624&#45;&gt;6048166192* -->
<g id="edge8" class="edge">
<title>6046026624&#45;&gt;6048166192*</title>
<path fill="none" stroke="black" d="M163.39,-61.42C173.13,-63.25 182.68,-65.04 191.32,-66.66"/>
<polygon fill="black" stroke="black" points="190.51,-70.07 200.98,-68.48 191.8,-63.19 190.51,-70.07"/>
</g>
<!-- 6048166864 -->
<g id="node9" class="node">
<title>6048166864</title>
<polygon fill="none" stroke="black" points="586.5,-27.5 586.5,-63.5 747,-63.5 747,-27.5 586.5,-27.5"/>
<text text-anchor="middle" x="597.5" y="-40.7" font-family="Times,serif" font-size="14.00">e</text>
<polyline fill="none" stroke="black" points="608.5,-28 608.5,-63.5"/>
<text text-anchor="middle" x="635.25" y="-40.7" font-family="Times,serif" font-size="14.00">4.0000</text>
<polyline fill="none" stroke="black" points="662,-28 662,-63.5"/>
<text text-anchor="middle" x="704.5" y="-40.7" font-family="Times,serif" font-size="14.00">grad: 0.0000</text>
</g>
<!-- 6048166864&#45;&gt;6048167632* -->
<g id="edge6" class="edge">
<title>6048166864&#45;&gt;6048167632*</title>
<path fill="none" stroke="black" d="M747.47,-60.58C756.76,-62.34 765.86,-64.06 774.13,-65.62"/>
<polygon fill="black" stroke="black" points="773.23,-69.01 783.7,-67.43 774.53,-62.13 773.23,-69.01"/>
</g>
<!-- 6048166864+&#45;&gt;6048166864 -->
<g id="edge3" class="edge">
<title>6048166864+&#45;&gt;6048166864</title>
<path fill="none" stroke="black" d="M549.18,-45.5C556.79,-45.5 565.57,-45.5 574.82,-45.5"/>
<polygon fill="black" stroke="black" points="574.78,-49 584.78,-45.5 574.78,-42 574.78,-49"/>
</g>
</g>
</svg>
