<?xml version="1.0" encoding="UTF-8" standalone="no"?>
<!DOCTYPE svg PUBLIC "-//W3C//DTD SVG 1.1//EN"
 "http://www.w3.org/Graphics/SVG/1.1/DTD/svg11.dtd">
<!-- Generated by graphviz version 10.0.1 (20240210.2158)
 -->
<!-- Pages: 1 -->
<svg width="748pt" height="100pt"
 viewBox="0.00 0.00 748.37 100.00" xmlns="http://www.w3.org/2000/svg" xmlns:xlink="http://www.w3.org/1999/xlink">
<g id="graph0" class="graph" transform="scale(1 1) rotate(0) translate(4 96)">
<polygon fill="white" stroke="none" points="-4,4 -4,-96 744.37,-96 744.37,4 -4,4"/>
<!-- 6048860288 -->
<g id="node1" class="node">
<title>6048860288</title>
<polygon fill="none" stroke="black" points="294.49,-0.5 294.49,-36.5 452.74,-36.5 452.74,-0.5 294.49,-0.5"/>
<text text-anchor="middle" x="304.37" y="-13.7" font-family="Times,serif" font-size="14.00"> </text>
<polyline fill="none" stroke="black" points="314.24,-1 314.24,-36.5"/>
<text text-anchor="middle" x="340.99" y="-13.7" font-family="Times,serif" font-size="14.00">0.2500</text>
<polyline fill="none" stroke="black" points="367.74,-1 367.74,-36.5"/>
<text text-anchor="middle" x="410.24" y="-13.7" font-family="Times,serif" font-size="14.00">grad: 2.0000</text>
</g>
<!-- 6048862112* -->
<g id="node4" class="node">
<title>6048862112*</title>
<ellipse fill="none" stroke="black" cx="516.87" cy="-45.5" rx="27" ry="18"/>
<text text-anchor="middle" x="516.87" y="-40.45" font-family="Times,serif" font-size="14.00">*</text>
</g>
<!-- 6048860288&#45;&gt;6048862112* -->
<g id="edge3" class="edge">
<title>6048860288&#45;&gt;6048862112*</title>
<path fill="none" stroke="black" d="M453.09,-33.5C462.22,-35.25 471.17,-36.96 479.33,-38.52"/>
<polygon fill="black" stroke="black" points="478.67,-41.95 489.15,-40.39 479.98,-35.08 478.67,-41.95"/>
</g>
<!-- 6048860288**&#45;1 -->
<g id="node2" class="node">
<title>6048860288**&#45;1</title>
<ellipse fill="none" stroke="black" cx="229.56" cy="-18.5" rx="27.81" ry="18"/>
<text text-anchor="middle" x="229.56" y="-13.45" font-family="Times,serif" font-size="14.00">**&#45;1</text>
</g>
<!-- 6048860288**&#45;1&#45;&gt;6048860288 -->
<g id="edge1" class="edge">
<title>6048860288**&#45;1&#45;&gt;6048860288</title>
<path fill="none" stroke="black" d="M257.61,-18.5C265.17,-18.5 273.82,-18.5 282.9,-18.5"/>
<polygon fill="black" stroke="black" points="282.65,-22 292.65,-18.5 282.65,-15 282.65,-22"/>
</g>
<!-- 6048862112 -->
<g id="node3" class="node">
<title>6048862112</title>
<polygon fill="none" stroke="black" points="579.87,-27.5 579.87,-63.5 740.37,-63.5 740.37,-27.5 579.87,-27.5"/>
<text text-anchor="middle" x="590.87" y="-40.7" font-family="Times,serif" font-size="14.00">c</text>
<polyline fill="none" stroke="black" points="601.87,-28 601.87,-63.5"/>
<text text-anchor="middle" x="628.62" y="-40.7" font-family="Times,serif" font-size="14.00">0.5000</text>
<polyline fill="none" stroke="black" points="655.37,-28 655.37,-63.5"/>
<text text-anchor="middle" x="697.87" y="-40.7" font-family="Times,serif" font-size="14.00">grad: 1.0000</text>
</g>
<!-- 6048862112*&#45;&gt;6048862112 -->
<g id="edge2" class="edge">
<title>6048862112*&#45;&gt;6048862112</title>
<path fill="none" stroke="black" d="M544.1,-45.5C551.34,-45.5 559.62,-45.5 568.35,-45.5"/>
<polygon fill="black" stroke="black" points="568.09,-49 578.09,-45.5 568.09,-42 568.09,-49"/>
</g>
<!-- 5771555408 -->
<g id="node5" class="node">
<title>5771555408</title>
<polygon fill="none" stroke="black" points="293.37,-55.5 293.37,-91.5 453.87,-91.5 453.87,-55.5 293.37,-55.5"/>
<text text-anchor="middle" x="304.37" y="-68.7" font-family="Times,serif" font-size="14.00">a</text>
<polyline fill="none" stroke="black" points="315.37,-56 315.37,-91.5"/>
<text text-anchor="middle" x="342.12" y="-68.7" font-family="Times,serif" font-size="14.00">2.0000</text>
<polyline fill="none" stroke="black" points="368.87,-56 368.87,-91.5"/>
<text text-anchor="middle" x="411.37" y="-68.7" font-family="Times,serif" font-size="14.00">grad: 0.2500</text>
</g>
<!-- 5771555408&#45;&gt;6048862112* -->
<g id="edge5" class="edge">
<title>5771555408&#45;&gt;6048862112*</title>
<path fill="none" stroke="black" d="M454.32,-57.7C463.05,-55.97 471.59,-54.28 479.39,-52.73"/>
<polygon fill="black" stroke="black" points="479.99,-56.18 489.12,-50.8 478.63,-49.31 479.99,-56.18"/>
</g>
<!-- 5771556464 -->
<g id="node6" class="node">
<title>5771556464</title>
<polygon fill="none" stroke="black" points="0,-0.5 0,-36.5 165.75,-36.5 165.75,-0.5 0,-0.5"/>
<text text-anchor="middle" x="11.38" y="-13.7" font-family="Times,serif" font-size="14.00">b</text>
<polyline fill="none" stroke="black" points="22.75,-1 22.75,-36.5"/>
<text text-anchor="middle" x="49.5" y="-13.7" font-family="Times,serif" font-size="14.00">4.0000</text>
<polyline fill="none" stroke="black" points="76.25,-1 76.25,-36.5"/>
<text text-anchor="middle" x="121" y="-13.7" font-family="Times,serif" font-size="14.00">grad: &#45;0.1250</text>
</g>
<!-- 5771556464&#45;&gt;6048860288**&#45;1 -->
<g id="edge4" class="edge">
<title>5771556464&#45;&gt;6048860288**&#45;1</title>
<path fill="none" stroke="black" d="M165.94,-18.5C174.31,-18.5 182.5,-18.5 190.06,-18.5"/>
<polygon fill="black" stroke="black" points="189.84,-22 199.84,-18.5 189.84,-15 189.84,-22"/>
</g>
</g>
</svg>
