<?xml version="1.0" encoding="UTF-8" standalone="no"?>
<!DOCTYPE svg PUBLIC "-//W3C//DTD SVG 1.1//EN"
 "http://www.w3.org/Graphics/SVG/1.1/DTD/svg11.dtd">
<!-- Generated by graphviz version 10.0.1 (20240210.2158)
 -->
<!-- Pages: 1 -->
<svg width="2673pt" height="279pt"
 viewBox="0.00 0.00 2672.75 279.00" xmlns="http://www.w3.org/2000/svg" xmlns:xlink="http://www.w3.org/1999/xlink">
<g id="graph0" class="graph" transform="scale(1 1) rotate(0) translate(4 275)">
<polygon fill="white" stroke="none" points="-4,4 -4,-275 2668.75,-275 2668.75,4 -4,4"/>
<!-- 5771556992 -->
<g id="node1" class="node">
<title>5771556992</title>
<polygon fill="none" stroke="black" points="1.5,-234.5 1.5,-270.5 174,-270.5 174,-234.5 1.5,-234.5"/>
<text text-anchor="middle" x="16.25" y="-247.7" font-family="Times,serif" font-size="14.00">x0</text>
<polyline fill="none" stroke="black" points="31,-235 31,-270.5"/>
<text text-anchor="middle" x="57.75" y="-247.7" font-family="Times,serif" font-size="14.00">2.0000</text>
<polyline fill="none" stroke="black" points="84.5,-235 84.5,-270.5"/>
<text text-anchor="middle" x="129.25" y="-247.7" font-family="Times,serif" font-size="14.00">grad: &#45;1.5000</text>
</g>
<!-- 5771452128* -->
<g id="node27" class="node">
<title>5771452128*</title>
<ellipse fill="none" stroke="black" cx="238.5" cy="-197.5" rx="27" ry="18"/>
<text text-anchor="middle" x="238.5" y="-192.45" font-family="Times,serif" font-size="14.00">*</text>
</g>
<!-- 5771556992&#45;&gt;5771452128* -->
<g id="edge27" class="edge">
<title>5771556992&#45;&gt;5771452128*</title>
<path fill="none" stroke="black" d="M151.14,-234.09C159.39,-231.36 167.68,-228.47 175.5,-225.5 185.45,-221.72 196.07,-217.14 205.67,-212.78"/>
<polygon fill="black" stroke="black" points="206.99,-216.02 214.59,-208.64 204.05,-209.67 206.99,-216.02"/>
</g>
<!-- 6048858272 -->
<g id="node2" class="node">
<title>6048858272</title>
<polygon fill="none" stroke="black" points="2503.5,-82.5 2503.5,-118.5 2664.75,-118.5 2664.75,-82.5 2503.5,-82.5"/>
<text text-anchor="middle" x="2514.88" y="-95.7" font-family="Times,serif" font-size="14.00">o</text>
<polyline fill="none" stroke="black" points="2526.25,-83 2526.25,-118.5"/>
<text text-anchor="middle" x="2553" y="-95.7" font-family="Times,serif" font-size="14.00">0.7071</text>
<polyline fill="none" stroke="black" points="2579.75,-83 2579.75,-118.5"/>
<text text-anchor="middle" x="2622.25" y="-95.7" font-family="Times,serif" font-size="14.00">grad: 1.0000</text>
</g>
<!-- 6048858272* -->
<g id="node3" class="node">
<title>6048858272*</title>
<ellipse fill="none" stroke="black" cx="2440.5" cy="-100.5" rx="27" ry="18"/>
<text text-anchor="middle" x="2440.5" y="-95.45" font-family="Times,serif" font-size="14.00">*</text>
</g>
<!-- 6048858272*&#45;&gt;6048858272 -->
<g id="edge1" class="edge">
<title>6048858272*&#45;&gt;6048858272</title>
<path fill="none" stroke="black" d="M2467.81,-100.5C2474.93,-100.5 2483.05,-100.5 2491.63,-100.5"/>
<polygon fill="black" stroke="black" points="2491.59,-104 2501.59,-100.5 2491.59,-97 2491.59,-104"/>
</g>
<!-- 5771554976 -->
<g id="node4" class="node">
<title>5771554976</title>
<polygon fill="none" stroke="black" points="2.25,-124.5 2.25,-160.5 173.25,-160.5 173.25,-124.5 2.25,-124.5"/>
<text text-anchor="middle" x="18.5" y="-137.7" font-family="Times,serif" font-size="14.00">w1</text>
<polyline fill="none" stroke="black" points="34.75,-125 34.75,-160.5"/>
<text text-anchor="middle" x="61.5" y="-137.7" font-family="Times,serif" font-size="14.00">1.0000</text>
<polyline fill="none" stroke="black" points="88.25,-125 88.25,-160.5"/>
<text text-anchor="middle" x="130.75" y="-137.7" font-family="Times,serif" font-size="14.00">grad: 0.0000</text>
</g>
<!-- 5771564320* -->
<g id="node19" class="node">
<title>5771564320*</title>
<ellipse fill="none" stroke="black" cx="238.5" cy="-142.5" rx="27" ry="18"/>
<text text-anchor="middle" x="238.5" y="-137.45" font-family="Times,serif" font-size="14.00">*</text>
</g>
<!-- 5771554976&#45;&gt;5771564320* -->
<g id="edge25" class="edge">
<title>5771554976&#45;&gt;5771564320*</title>
<path fill="none" stroke="black" d="M173.55,-142.5C182.76,-142.5 191.75,-142.5 199.94,-142.5"/>
<polygon fill="black" stroke="black" points="199.79,-146 209.79,-142.5 199.79,-139 199.79,-146"/>
</g>
<!-- 5771565232 -->
<g id="node5" class="node">
<title>5771565232</title>
<polygon fill="none" stroke="black" points="1539.75,-55.5 1539.75,-91.5 1698,-91.5 1698,-55.5 1539.75,-55.5"/>
<text text-anchor="middle" x="1549.62" y="-68.7" font-family="Times,serif" font-size="14.00"> </text>
<polyline fill="none" stroke="black" points="1559.5,-56 1559.5,-91.5"/>
<text text-anchor="middle" x="1586.25" y="-68.7" font-family="Times,serif" font-size="14.00">5.8285</text>
<polyline fill="none" stroke="black" points="1613,-56 1613,-91.5"/>
<text text-anchor="middle" x="1655.5" y="-68.7" font-family="Times,serif" font-size="14.00">grad: 0.1464</text>
</g>
<!-- 5771565760+ -->
<g id="node13" class="node">
<title>5771565760+</title>
<ellipse fill="none" stroke="black" cx="1763.25" cy="-73.5" rx="27" ry="18"/>
<text text-anchor="middle" x="1763.25" y="-68.45" font-family="Times,serif" font-size="14.00">+</text>
</g>
<!-- 5771565232&#45;&gt;5771565760+ -->
<g id="edge29" class="edge">
<title>5771565232&#45;&gt;5771565760+</title>
<path fill="none" stroke="black" d="M1698.14,-73.5C1707.26,-73.5 1716.22,-73.5 1724.42,-73.5"/>
<polygon fill="black" stroke="black" points="1724.3,-77 1734.3,-73.5 1724.3,-70 1724.3,-77"/>
</g>
<!-- 5771565232**2 -->
<g id="node6" class="node">
<title>5771565232**2</title>
<ellipse fill="none" stroke="black" cx="1474.5" cy="-87.5" rx="27" ry="18"/>
<text text-anchor="middle" x="1474.5" y="-82.45" font-family="Times,serif" font-size="14.00">**2</text>
</g>
<!-- 5771565232**2&#45;&gt;5771565232 -->
<g id="edge2" class="edge">
<title>5771565232**2&#45;&gt;5771565232</title>
<path fill="none" stroke="black" d="M1501.61,-84.93C1509.46,-84.16 1518.55,-83.27 1528.12,-82.33"/>
<polygon fill="black" stroke="black" points="1528.41,-85.81 1538.02,-81.35 1527.73,-78.85 1528.41,-85.81"/>
</g>
<!-- 5771565280 -->
<g id="node7" class="node">
<title>5771565280</title>
<polygon fill="none" stroke="black" points="1537.5,-165.5 1537.5,-201.5 1700.25,-201.5 1700.25,-165.5 1537.5,-165.5"/>
<text text-anchor="middle" x="1547.38" y="-178.7" font-family="Times,serif" font-size="14.00"> </text>
<polyline fill="none" stroke="black" points="1557.25,-166 1557.25,-201.5"/>
<text text-anchor="middle" x="1584" y="-178.7" font-family="Times,serif" font-size="14.00">5.8285</text>
<polyline fill="none" stroke="black" points="1610.75,-166 1610.75,-201.5"/>
<text text-anchor="middle" x="1655.5" y="-178.7" font-family="Times,serif" font-size="14.00">grad: &#45;0.1036</text>
</g>
<!-- 5771520944+ -->
<g id="node17" class="node">
<title>5771520944+</title>
<ellipse fill="none" stroke="black" cx="1763.25" cy="-128.5" rx="27" ry="18"/>
<text text-anchor="middle" x="1763.25" y="-123.45" font-family="Times,serif" font-size="14.00">+</text>
</g>
<!-- 5771565280&#45;&gt;5771520944+ -->
<g id="edge23" class="edge">
<title>5771565280&#45;&gt;5771520944+</title>
<path fill="none" stroke="black" d="M1677.21,-165.02C1685,-162.29 1692.85,-159.41 1700.25,-156.5 1710.15,-152.61 1720.77,-147.99 1730.36,-143.64"/>
<polygon fill="black" stroke="black" points="1731.68,-146.88 1739.3,-139.52 1728.75,-140.53 1731.68,-146.88"/>
</g>
<!-- 5771565280**2 -->
<g id="node8" class="node">
<title>5771565280**2</title>
<ellipse fill="none" stroke="black" cx="1474.5" cy="-179.5" rx="27" ry="18"/>
<text text-anchor="middle" x="1474.5" y="-174.45" font-family="Times,serif" font-size="14.00">**2</text>
</g>
<!-- 5771565280**2&#45;&gt;5771565280 -->
<g id="edge3" class="edge">
<title>5771565280**2&#45;&gt;5771565280</title>
<path fill="none" stroke="black" d="M1501.95,-180.24C1509.05,-180.44 1517.15,-180.67 1525.69,-180.91"/>
<polygon fill="black" stroke="black" points="1525.52,-184.41 1535.62,-181.19 1525.72,-177.41 1525.52,-184.41"/>
</g>
<!-- 5771557232 -->
<g id="node9" class="node">
<title>5771557232</title>
<polygon fill="none" stroke="black" points="3.75,-69.5 3.75,-105.5 171.75,-105.5 171.75,-69.5 3.75,-69.5"/>
<text text-anchor="middle" x="18.5" y="-82.7" font-family="Times,serif" font-size="14.00">x1</text>
<polyline fill="none" stroke="black" points="33.25,-70 33.25,-105.5"/>
<text text-anchor="middle" x="60" y="-82.7" font-family="Times,serif" font-size="14.00">0.0000</text>
<polyline fill="none" stroke="black" points="86.75,-70 86.75,-105.5"/>
<text text-anchor="middle" x="129.25" y="-82.7" font-family="Times,serif" font-size="14.00">grad: 0.5000</text>
</g>
<!-- 5771557232&#45;&gt;5771564320* -->
<g id="edge20" class="edge">
<title>5771557232&#45;&gt;5771564320*</title>
<path fill="none" stroke="black" d="M151.14,-105.91C159.39,-108.64 167.68,-111.53 175.5,-114.5 185.45,-118.28 196.07,-122.86 205.67,-127.22"/>
<polygon fill="black" stroke="black" points="204.05,-130.33 214.59,-131.36 206.99,-123.98 204.05,-130.33"/>
</g>
<!-- 5771520416 -->
<g id="node10" class="node">
<title>5771520416</title>
<polygon fill="none" stroke="black" points="2219.25,-108.5 2219.25,-144.5 2377.5,-144.5 2377.5,-108.5 2219.25,-108.5"/>
<text text-anchor="middle" x="2229.12" y="-121.7" font-family="Times,serif" font-size="14.00"> </text>
<polyline fill="none" stroke="black" points="2239,-109 2239,-144.5"/>
<text text-anchor="middle" x="2265.75" y="-121.7" font-family="Times,serif" font-size="14.00">0.1464</text>
<polyline fill="none" stroke="black" points="2292.5,-109 2292.5,-144.5"/>
<text text-anchor="middle" x="2335" y="-121.7" font-family="Times,serif" font-size="14.00">grad: 4.8285</text>
</g>
<!-- 5771520416&#45;&gt;6048858272* -->
<g id="edge28" class="edge">
<title>5771520416&#45;&gt;6048858272*</title>
<path fill="none" stroke="black" d="M2377.63,-111.98C2386.37,-110.36 2394.94,-108.77 2402.79,-107.31"/>
<polygon fill="black" stroke="black" points="2403.38,-110.76 2412.57,-105.5 2402.1,-103.88 2403.38,-110.76"/>
</g>
<!-- 5771520416**&#45;1 -->
<g id="node11" class="node">
<title>5771520416**&#45;1</title>
<ellipse fill="none" stroke="black" cx="2104.12" cy="-128.5" rx="27.81" ry="18"/>
<text text-anchor="middle" x="2104.12" y="-123.45" font-family="Times,serif" font-size="14.00">**&#45;1</text>
</g>
<!-- 5771520416**&#45;1&#45;&gt;5771520416 -->
<g id="edge4" class="edge">
<title>5771520416**&#45;1&#45;&gt;5771520416</title>
<path fill="none" stroke="black" d="M2132.26,-128.22C2152.09,-128.01 2180.2,-127.72 2207.62,-127.43"/>
<polygon fill="black" stroke="black" points="2207.41,-130.94 2217.38,-127.33 2207.34,-123.94 2207.41,-130.94"/>
</g>
<!-- 5771565760 -->
<g id="node12" class="node">
<title>5771565760</title>
<polygon fill="none" stroke="black" points="2025,-55.5 2025,-91.5 2183.25,-91.5 2183.25,-55.5 2025,-55.5"/>
<text text-anchor="middle" x="2034.88" y="-68.7" font-family="Times,serif" font-size="14.00"> </text>
<polyline fill="none" stroke="black" points="2044.75,-56 2044.75,-91.5"/>
<text text-anchor="middle" x="2071.5" y="-68.7" font-family="Times,serif" font-size="14.00">4.8285</text>
<polyline fill="none" stroke="black" points="2098.25,-56 2098.25,-91.5"/>
<text text-anchor="middle" x="2140.75" y="-68.7" font-family="Times,serif" font-size="14.00">grad: 0.1464</text>
</g>
<!-- 5771565760&#45;&gt;6048858272* -->
<g id="edge18" class="edge">
<title>5771565760&#45;&gt;6048858272*</title>
<path fill="none" stroke="black" d="M2183.52,-79.83C2252.29,-85.38 2349.29,-93.22 2401.94,-97.47"/>
<polygon fill="black" stroke="black" points="2401.64,-100.95 2411.89,-98.27 2402.21,-93.98 2401.64,-100.95"/>
</g>
<!-- 5771565760+&#45;&gt;5771565760 -->
<g id="edge5" class="edge">
<title>5771565760+&#45;&gt;5771565760</title>
<path fill="none" stroke="black" d="M1790.56,-73.5C1837.74,-73.5 1938.78,-73.5 2013.26,-73.5"/>
<polygon fill="black" stroke="black" points="2013,-77 2023,-73.5 2013,-70 2013,-77"/>
</g>
<!-- 5771563744 -->
<g id="node14" class="node">
<title>5771563744</title>
<polygon fill="none" stroke="black" points="1248.75,-158.5 1248.75,-194.5 1411.5,-194.5 1411.5,-158.5 1248.75,-158.5"/>
<text text-anchor="middle" x="1258.62" y="-171.7" font-family="Times,serif" font-size="14.00"> </text>
<polyline fill="none" stroke="black" points="1268.5,-159 1268.5,-194.5"/>
<text text-anchor="middle" x="1295.25" y="-171.7" font-family="Times,serif" font-size="14.00">2.4142</text>
<polyline fill="none" stroke="black" points="1322,-159 1322,-194.5"/>
<text text-anchor="middle" x="1366.75" y="-171.7" font-family="Times,serif" font-size="14.00">grad: &#45;0.5000</text>
</g>
<!-- 5771563744&#45;&gt;5771565280**2 -->
<g id="edge31" class="edge">
<title>5771563744&#45;&gt;5771565280**2</title>
<path fill="none" stroke="black" d="M1411.88,-178.2C1420.1,-178.37 1428.15,-178.54 1435.57,-178.7"/>
<polygon fill="black" stroke="black" points="1435.44,-182.2 1445.52,-178.91 1435.59,-175.2 1435.44,-182.2"/>
</g>
<!-- 5771563744e -->
<g id="node15" class="node">
<title>5771563744e</title>
<ellipse fill="none" stroke="black" cx="1185.75" cy="-172.5" rx="27" ry="18"/>
<text text-anchor="middle" x="1185.75" y="-167.45" font-family="Times,serif" font-size="14.00">e</text>
</g>
<!-- 5771563744e&#45;&gt;5771563744 -->
<g id="edge6" class="edge">
<title>5771563744e&#45;&gt;5771563744</title>
<path fill="none" stroke="black" d="M1213.2,-173.24C1220.3,-173.44 1228.4,-173.67 1236.94,-173.91"/>
<polygon fill="black" stroke="black" points="1236.77,-177.41 1246.87,-174.19 1236.97,-170.41 1236.77,-177.41"/>
</g>
<!-- 5771520944 -->
<g id="node16" class="node">
<title>5771520944</title>
<polygon fill="none" stroke="black" points="1826.25,-110.5 1826.25,-146.5 1989,-146.5 1989,-110.5 1826.25,-110.5"/>
<text text-anchor="middle" x="1836.12" y="-123.7" font-family="Times,serif" font-size="14.00"> </text>
<polyline fill="none" stroke="black" points="1846,-111 1846,-146.5"/>
<text text-anchor="middle" x="1872.75" y="-123.7" font-family="Times,serif" font-size="14.00">6.8285</text>
<polyline fill="none" stroke="black" points="1899.5,-111 1899.5,-146.5"/>
<text text-anchor="middle" x="1944.25" y="-123.7" font-family="Times,serif" font-size="14.00">grad: &#45;0.1036</text>
</g>
<!-- 5771520944&#45;&gt;5771520416**&#45;1 -->
<g id="edge22" class="edge">
<title>5771520944&#45;&gt;5771520416**&#45;1</title>
<path fill="none" stroke="black" d="M1989.42,-128.5C2015.49,-128.5 2043.18,-128.5 2064.71,-128.5"/>
<polygon fill="black" stroke="black" points="2064.47,-132 2074.47,-128.5 2064.47,-125 2064.47,-132"/>
</g>
<!-- 5771520944+&#45;&gt;5771520944 -->
<g id="edge7" class="edge">
<title>5771520944+&#45;&gt;5771520944</title>
<path fill="none" stroke="black" d="M1790.7,-128.5C1797.8,-128.5 1805.9,-128.5 1814.44,-128.5"/>
<polygon fill="black" stroke="black" points="1814.37,-132 1824.37,-128.5 1814.37,-125 1814.37,-132"/>
</g>
<!-- 5771564320 -->
<g id="node18" class="node">
<title>5771564320</title>
<polygon fill="none" stroke="black" points="303.75,-124.5 303.75,-160.5 488.25,-160.5 488.25,-124.5 303.75,-124.5"/>
<text text-anchor="middle" x="326.75" y="-137.7" font-family="Times,serif" font-size="14.00">w1x1</text>
<polyline fill="none" stroke="black" points="349.75,-125 349.75,-160.5"/>
<text text-anchor="middle" x="376.5" y="-137.7" font-family="Times,serif" font-size="14.00">0.0000</text>
<polyline fill="none" stroke="black" points="403.25,-125 403.25,-160.5"/>
<text text-anchor="middle" x="445.75" y="-137.7" font-family="Times,serif" font-size="14.00">grad: 0.5000</text>
</g>
<!-- 5771566672+ -->
<g id="node22" class="node">
<title>5771566672+</title>
<ellipse fill="none" stroke="black" cx="553.5" cy="-169.5" rx="27" ry="18"/>
<text text-anchor="middle" x="553.5" y="-164.45" font-family="Times,serif" font-size="14.00">+</text>
</g>
<!-- 5771564320&#45;&gt;5771566672+ -->
<g id="edge13" class="edge">
<title>5771564320&#45;&gt;5771566672+</title>
<path fill="none" stroke="black" d="M488.35,-158.36C497.97,-160.03 507.3,-161.65 515.73,-163.12"/>
<polygon fill="black" stroke="black" points="515.04,-166.55 525.49,-164.81 516.24,-159.65 515.04,-166.55"/>
</g>
<!-- 5771564320*&#45;&gt;5771564320 -->
<g id="edge8" class="edge">
<title>5771564320*&#45;&gt;5771564320</title>
<path fill="none" stroke="black" d="M265.88,-142.5C273.6,-142.5 282.55,-142.5 292.06,-142.5"/>
<polygon fill="black" stroke="black" points="291.93,-146 301.93,-142.5 291.93,-139 291.93,-146"/>
</g>
<!-- 5771566480 -->
<g id="node20" class="node">
<title>5771566480</title>
<polygon fill="none" stroke="black" points="1537.5,-0.5 1537.5,-36.5 1700.25,-36.5 1700.25,-0.5 1537.5,-0.5"/>
<text text-anchor="middle" x="1547.38" y="-13.7" font-family="Times,serif" font-size="14.00"> </text>
<polyline fill="none" stroke="black" points="1557.25,-1 1557.25,-36.5"/>
<text text-anchor="middle" x="1586.25" y="-13.7" font-family="Times,serif" font-size="14.00">&#45;1.0000</text>
<polyline fill="none" stroke="black" points="1615.25,-1 1615.25,-36.5"/>
<text text-anchor="middle" x="1657.75" y="-13.7" font-family="Times,serif" font-size="14.00">grad: 0.1464</text>
</g>
<!-- 5771566480&#45;&gt;5771565760+ -->
<g id="edge19" class="edge">
<title>5771566480&#45;&gt;5771565760+</title>
<path fill="none" stroke="black" d="M1677.21,-36.98C1685,-39.71 1692.85,-42.59 1700.25,-45.5 1710.15,-49.39 1720.77,-54.01 1730.36,-58.36"/>
<polygon fill="black" stroke="black" points="1728.75,-61.47 1739.3,-62.48 1731.68,-55.12 1728.75,-61.47"/>
</g>
<!-- 5771566672 -->
<g id="node21" class="node">
<title>5771566672</title>
<polygon fill="none" stroke="black" points="616.5,-151.5 616.5,-187.5 835.5,-187.5 835.5,-151.5 616.5,-151.5"/>
<text text-anchor="middle" x="654.5" y="-164.7" font-family="Times,serif" font-size="14.00">w0x0w1x1</text>
<polyline fill="none" stroke="black" points="692.5,-152 692.5,-187.5"/>
<text text-anchor="middle" x="721.5" y="-164.7" font-family="Times,serif" font-size="14.00">&#45;6.0000</text>
<polyline fill="none" stroke="black" points="750.5,-152 750.5,-187.5"/>
<text text-anchor="middle" x="793" y="-164.7" font-family="Times,serif" font-size="14.00">grad: 0.5000</text>
</g>
<!-- 5771564704+ -->
<g id="node25" class="node">
<title>5771564704+</title>
<ellipse fill="none" stroke="black" cx="898.5" cy="-141.5" rx="27" ry="18"/>
<text text-anchor="middle" x="898.5" y="-136.45" font-family="Times,serif" font-size="14.00">+</text>
</g>
<!-- 5771566672&#45;&gt;5771564704+ -->
<g id="edge21" class="edge">
<title>5771566672&#45;&gt;5771564704+</title>
<path fill="none" stroke="black" d="M835.95,-151.61C844.68,-150.17 853.06,-148.8 860.67,-147.55"/>
<polygon fill="black" stroke="black" points="861.13,-151.02 870.43,-145.94 860,-144.11 861.13,-151.02"/>
</g>
<!-- 5771566672+&#45;&gt;5771566672 -->
<g id="edge9" class="edge">
<title>5771566672+&#45;&gt;5771566672</title>
<path fill="none" stroke="black" d="M580.77,-169.5C587.86,-169.5 596.02,-169.5 604.78,-169.5"/>
<polygon fill="black" stroke="black" points="604.64,-173 614.64,-169.5 604.64,-166 604.64,-173"/>
</g>
<!-- 5771452032 -->
<g id="node23" class="node">
<title>5771452032</title>
<polygon fill="none" stroke="black" points="645.38,-96.5 645.38,-132.5 806.62,-132.5 806.62,-96.5 645.38,-96.5"/>
<text text-anchor="middle" x="656.75" y="-109.7" font-family="Times,serif" font-size="14.00">b</text>
<polyline fill="none" stroke="black" points="668.12,-97 668.12,-132.5"/>
<text text-anchor="middle" x="694.88" y="-109.7" font-family="Times,serif" font-size="14.00">6.8814</text>
<polyline fill="none" stroke="black" points="721.62,-97 721.62,-132.5"/>
<text text-anchor="middle" x="764.12" y="-109.7" font-family="Times,serif" font-size="14.00">grad: 0.5000</text>
</g>
<!-- 5771452032&#45;&gt;5771564704+ -->
<g id="edge15" class="edge">
<title>5771452032&#45;&gt;5771564704+</title>
<path fill="none" stroke="black" d="M806.76,-127.13C825.73,-130.13 845.06,-133.2 860.98,-135.72"/>
<polygon fill="black" stroke="black" points="860,-139.1 870.42,-137.21 861.09,-132.19 860,-139.1"/>
</g>
<!-- 5771564704 -->
<g id="node24" class="node">
<title>5771564704</title>
<polygon fill="none" stroke="black" points="961.5,-123.5 961.5,-159.5 1122.75,-159.5 1122.75,-123.5 961.5,-123.5"/>
<text text-anchor="middle" x="972.88" y="-136.7" font-family="Times,serif" font-size="14.00">n</text>
<polyline fill="none" stroke="black" points="984.25,-124 984.25,-159.5"/>
<text text-anchor="middle" x="1011" y="-136.7" font-family="Times,serif" font-size="14.00">0.8814</text>
<polyline fill="none" stroke="black" points="1037.75,-124 1037.75,-159.5"/>
<text text-anchor="middle" x="1080.25" y="-136.7" font-family="Times,serif" font-size="14.00">grad: 0.5000</text>
</g>
<!-- 5771564704&#45;&gt;5771563744e -->
<g id="edge16" class="edge">
<title>5771564704&#45;&gt;5771563744e</title>
<path fill="none" stroke="black" d="M1123.04,-158.99C1131.98,-160.95 1140.72,-162.86 1148.68,-164.61"/>
<polygon fill="black" stroke="black" points="1147.73,-167.98 1158.24,-166.7 1149.22,-161.14 1147.73,-167.98"/>
</g>
<!-- 5771564944e -->
<g id="node29" class="node">
<title>5771564944e</title>
<ellipse fill="none" stroke="black" cx="1185.75" cy="-114.5" rx="27" ry="18"/>
<text text-anchor="middle" x="1185.75" y="-109.45" font-family="Times,serif" font-size="14.00">e</text>
</g>
<!-- 5771564704&#45;&gt;5771564944e -->
<g id="edge26" class="edge">
<title>5771564704&#45;&gt;5771564944e</title>
<path fill="none" stroke="black" d="M1123.04,-126.26C1131.79,-124.6 1140.35,-122.96 1148.18,-121.47"/>
<polygon fill="black" stroke="black" points="1148.77,-124.92 1157.94,-119.61 1147.46,-118.05 1148.77,-124.92"/>
</g>
<!-- 5771564704+&#45;&gt;5771564704 -->
<g id="edge10" class="edge">
<title>5771564704+&#45;&gt;5771564704</title>
<path fill="none" stroke="black" d="M925.81,-141.5C932.93,-141.5 941.05,-141.5 949.63,-141.5"/>
<polygon fill="black" stroke="black" points="949.59,-145 959.59,-141.5 949.59,-138 949.59,-145"/>
</g>
<!-- 5771452128 -->
<g id="node26" class="node">
<title>5771452128</title>
<polygon fill="none" stroke="black" points="301.5,-179.5 301.5,-215.5 490.5,-215.5 490.5,-179.5 301.5,-179.5"/>
<text text-anchor="middle" x="324.5" y="-192.7" font-family="Times,serif" font-size="14.00">w0x0</text>
<polyline fill="none" stroke="black" points="347.5,-180 347.5,-215.5"/>
<text text-anchor="middle" x="376.5" y="-192.7" font-family="Times,serif" font-size="14.00">&#45;6.0000</text>
<polyline fill="none" stroke="black" points="405.5,-180 405.5,-215.5"/>
<text text-anchor="middle" x="448" y="-192.7" font-family="Times,serif" font-size="14.00">grad: 0.5000</text>
</g>
<!-- 5771452128&#45;&gt;5771566672+ -->
<g id="edge14" class="edge">
<title>5771452128&#45;&gt;5771566672+</title>
<path fill="none" stroke="black" d="M490.6,-180.65C499.48,-179.05 508.08,-177.5 515.89,-176.09"/>
<polygon fill="black" stroke="black" points="516.38,-179.56 525.6,-174.34 515.14,-172.67 516.38,-179.56"/>
</g>
<!-- 5771452128*&#45;&gt;5771452128 -->
<g id="edge11" class="edge">
<title>5771452128*&#45;&gt;5771452128</title>
<path fill="none" stroke="black" d="M265.88,-197.5C273.01,-197.5 281.18,-197.5 289.87,-197.5"/>
<polygon fill="black" stroke="black" points="289.61,-201 299.61,-197.5 289.61,-194 289.61,-201"/>
</g>
<!-- 5771564944 -->
<g id="node28" class="node">
<title>5771564944</title>
<polygon fill="none" stroke="black" points="1251,-96.5 1251,-132.5 1409.25,-132.5 1409.25,-96.5 1251,-96.5"/>
<text text-anchor="middle" x="1260.88" y="-109.7" font-family="Times,serif" font-size="14.00"> </text>
<polyline fill="none" stroke="black" points="1270.75,-97 1270.75,-132.5"/>
<text text-anchor="middle" x="1297.5" y="-109.7" font-family="Times,serif" font-size="14.00">2.4142</text>
<polyline fill="none" stroke="black" points="1324.25,-97 1324.25,-132.5"/>
<text text-anchor="middle" x="1366.75" y="-109.7" font-family="Times,serif" font-size="14.00">grad: 0.7071</text>
</g>
<!-- 5771564944&#45;&gt;5771565232**2 -->
<g id="edge30" class="edge">
<title>5771564944&#45;&gt;5771565232**2</title>
<path fill="none" stroke="black" d="M1409.39,-99.66C1418.99,-97.84 1428.41,-96.05 1436.95,-94.43"/>
<polygon fill="black" stroke="black" points="1437.33,-97.92 1446.5,-92.62 1436.03,-91.04 1437.33,-97.92"/>
</g>
<!-- 5771564944e&#45;&gt;5771564944 -->
<g id="edge12" class="edge">
<title>5771564944e&#45;&gt;5771564944</title>
<path fill="none" stroke="black" d="M1213.2,-114.5C1221,-114.5 1230.01,-114.5 1239.49,-114.5"/>
<polygon fill="black" stroke="black" points="1239.27,-118 1249.27,-114.5 1239.27,-111 1239.27,-118"/>
</g>
<!-- 5771452320 -->
<g id="node30" class="node">
<title>5771452320</title>
<polygon fill="none" stroke="black" points="0,-179.5 0,-215.5 175.5,-215.5 175.5,-179.5 0,-179.5"/>
<text text-anchor="middle" x="16.25" y="-192.7" font-family="Times,serif" font-size="14.00">w0</text>
<polyline fill="none" stroke="black" points="32.5,-180 32.5,-215.5"/>
<text text-anchor="middle" x="61.5" y="-192.7" font-family="Times,serif" font-size="14.00">&#45;3.0000</text>
<polyline fill="none" stroke="black" points="90.5,-180 90.5,-215.5"/>
<text text-anchor="middle" x="133" y="-192.7" font-family="Times,serif" font-size="14.00">grad: 1.0000</text>
</g>
<!-- 5771452320&#45;&gt;5771452128* -->
<g id="edge17" class="edge">
<title>5771452320&#45;&gt;5771452128*</title>
<path fill="none" stroke="black" d="M175.71,-197.5C184.04,-197.5 192.15,-197.5 199.61,-197.5"/>
<polygon fill="black" stroke="black" points="199.58,-201 209.58,-197.5 199.58,-194 199.58,-201"/>
</g>
<!-- 5771522000 -->
<g id="node31" class="node">
<title>5771522000</title>
<polygon fill="none" stroke="black" points="1537.5,-110.5 1537.5,-146.5 1700.25,-146.5 1700.25,-110.5 1537.5,-110.5"/>
<text text-anchor="middle" x="1547.38" y="-123.7" font-family="Times,serif" font-size="14.00"> </text>
<polyline fill="none" stroke="black" points="1557.25,-111 1557.25,-146.5"/>
<text text-anchor="middle" x="1584" y="-123.7" font-family="Times,serif" font-size="14.00">1.0000</text>
<polyline fill="none" stroke="black" points="1610.75,-111 1610.75,-146.5"/>
<text text-anchor="middle" x="1655.5" y="-123.7" font-family="Times,serif" font-size="14.00">grad: &#45;0.1036</text>
</g>
<!-- 5771522000&#45;&gt;5771520944+ -->
<g id="edge24" class="edge">
<title>5771522000&#45;&gt;5771520944+</title>
<path fill="none" stroke="black" d="M1700.63,-128.5C1708.85,-128.5 1716.9,-128.5 1724.32,-128.5"/>
<polygon fill="black" stroke="black" points="1724.27,-132 1734.27,-128.5 1724.27,-125 1724.27,-132"/>
</g>
</g>
</svg>
