<?xml version="1.0" encoding="UTF-8" standalone="no"?>
<!DOCTYPE svg PUBLIC "-//W3C//DTD SVG 1.1//EN"
 "http://www.w3.org/Graphics/SVG/1.1/DTD/svg11.dtd">
<!-- Generated by graphviz version 10.0.1 (20240210.2158)
 -->
<!-- Pages: 1 -->
<svg width="2704pt" height="237pt"
 viewBox="0.00 0.00 2704.25 237.00" xmlns="http://www.w3.org/2000/svg" xmlns:xlink="http://www.w3.org/1999/xlink">
<g id="graph0" class="graph" transform="scale(1 1) rotate(0) translate(4 233)">
<polygon fill="white" stroke="none" points="-4,4 -4,-233 2700.25,-233 2700.25,4 -4,4"/>
<!-- 5771563072 -->
<g id="node1" class="node">
<title>5771563072</title>
<polygon fill="none" stroke="black" points="1569,-192.5 1569,-228.5 1731.75,-228.5 1731.75,-192.5 1569,-192.5"/>
<text text-anchor="middle" x="1578.88" y="-205.7" font-family="Times,serif" font-size="14.00"> </text>
<polyline fill="none" stroke="black" points="1588.75,-193 1588.75,-228.5"/>
<text text-anchor="middle" x="1615.5" y="-205.7" font-family="Times,serif" font-size="14.00">1.0000</text>
<polyline fill="none" stroke="black" points="1642.25,-193 1642.25,-228.5"/>
<text text-anchor="middle" x="1687" y="-205.7" font-family="Times,serif" font-size="14.00">grad: &#45;0.4142</text>
</g>
<!-- 5771563120+ -->
<g id="node3" class="node">
<title>5771563120+</title>
<ellipse fill="none" stroke="black" cx="1794.75" cy="-155.5" rx="27" ry="18"/>
<text text-anchor="middle" x="1794.75" y="-150.45" font-family="Times,serif" font-size="14.00">+</text>
</g>
<!-- 5771563072&#45;&gt;5771563120+ -->
<g id="edge16" class="edge">
<title>5771563072&#45;&gt;5771563120+</title>
<path fill="none" stroke="black" d="M1708.71,-192.02C1716.5,-189.29 1724.35,-186.41 1731.75,-183.5 1741.65,-179.61 1752.27,-174.99 1761.86,-170.64"/>
<polygon fill="black" stroke="black" points="1763.18,-173.88 1770.8,-166.52 1760.25,-167.53 1763.18,-173.88"/>
</g>
<!-- 5771563120 -->
<g id="node2" class="node">
<title>5771563120</title>
<polygon fill="none" stroke="black" points="1857.75,-137.5 1857.75,-173.5 2020.5,-173.5 2020.5,-137.5 1857.75,-137.5"/>
<text text-anchor="middle" x="1867.62" y="-150.7" font-family="Times,serif" font-size="14.00"> </text>
<polyline fill="none" stroke="black" points="1877.5,-138 1877.5,-173.5"/>
<text text-anchor="middle" x="1904.25" y="-150.7" font-family="Times,serif" font-size="14.00">6.8285</text>
<polyline fill="none" stroke="black" points="1931,-138 1931,-173.5"/>
<text text-anchor="middle" x="1975.75" y="-150.7" font-family="Times,serif" font-size="14.00">grad: &#45;0.2071</text>
</g>
<!-- 5771563360**&#45;1 -->
<g id="node7" class="node">
<title>5771563360**&#45;1</title>
<ellipse fill="none" stroke="black" cx="2135.62" cy="-155.5" rx="27.81" ry="18"/>
<text text-anchor="middle" x="2135.62" y="-150.45" font-family="Times,serif" font-size="14.00">**&#45;1</text>
</g>
<!-- 5771563120&#45;&gt;5771563360**&#45;1 -->
<g id="edge29" class="edge">
<title>5771563120&#45;&gt;5771563360**&#45;1</title>
<path fill="none" stroke="black" d="M2020.92,-155.5C2046.99,-155.5 2074.68,-155.5 2096.21,-155.5"/>
<polygon fill="black" stroke="black" points="2095.97,-159 2105.97,-155.5 2095.97,-152 2095.97,-159"/>
</g>
<!-- 5771563120+&#45;&gt;5771563120 -->
<g id="edge1" class="edge">
<title>5771563120+&#45;&gt;5771563120</title>
<path fill="none" stroke="black" d="M1822.2,-155.5C1829.3,-155.5 1837.4,-155.5 1845.94,-155.5"/>
<polygon fill="black" stroke="black" points="1845.87,-159 1855.87,-155.5 1845.87,-152 1845.87,-159"/>
</g>
<!-- 5771557184 -->
<g id="node4" class="node">
<title>5771557184</title>
<polygon fill="none" stroke="black" points="1569,-137.5 1569,-173.5 1731.75,-173.5 1731.75,-137.5 1569,-137.5"/>
<text text-anchor="middle" x="1578.88" y="-150.7" font-family="Times,serif" font-size="14.00"> </text>
<polyline fill="none" stroke="black" points="1588.75,-138 1588.75,-173.5"/>
<text text-anchor="middle" x="1615.5" y="-150.7" font-family="Times,serif" font-size="14.00">5.8285</text>
<polyline fill="none" stroke="black" points="1642.25,-138 1642.25,-173.5"/>
<text text-anchor="middle" x="1687" y="-150.7" font-family="Times,serif" font-size="14.00">grad: &#45;0.4142</text>
</g>
<!-- 5771557184&#45;&gt;5771563120+ -->
<g id="edge20" class="edge">
<title>5771557184&#45;&gt;5771563120+</title>
<path fill="none" stroke="black" d="M1732.13,-155.5C1740.35,-155.5 1748.4,-155.5 1755.82,-155.5"/>
<polygon fill="black" stroke="black" points="1755.77,-159 1765.77,-155.5 1755.77,-152 1755.77,-159"/>
</g>
<!-- 5771557184**2 -->
<g id="node5" class="node">
<title>5771557184**2</title>
<ellipse fill="none" stroke="black" cx="1506" cy="-155.5" rx="27" ry="18"/>
<text text-anchor="middle" x="1506" y="-150.45" font-family="Times,serif" font-size="14.00">**2</text>
</g>
<!-- 5771557184**2&#45;&gt;5771557184 -->
<g id="edge2" class="edge">
<title>5771557184**2&#45;&gt;5771557184</title>
<path fill="none" stroke="black" d="M1533.45,-155.5C1540.55,-155.5 1548.65,-155.5 1557.19,-155.5"/>
<polygon fill="black" stroke="black" points="1557.12,-159 1567.12,-155.5 1557.12,-152 1557.12,-159"/>
</g>
<!-- 5771563360 -->
<g id="node6" class="node">
<title>5771563360</title>
<polygon fill="none" stroke="black" points="2250.75,-135.5 2250.75,-171.5 2409,-171.5 2409,-135.5 2250.75,-135.5"/>
<text text-anchor="middle" x="2260.62" y="-148.7" font-family="Times,serif" font-size="14.00"> </text>
<polyline fill="none" stroke="black" points="2270.5,-136 2270.5,-171.5"/>
<text text-anchor="middle" x="2297.25" y="-148.7" font-family="Times,serif" font-size="14.00">0.1464</text>
<polyline fill="none" stroke="black" points="2324,-136 2324,-171.5"/>
<text text-anchor="middle" x="2366.5" y="-148.7" font-family="Times,serif" font-size="14.00">grad: 4.8285</text>
</g>
<!-- 5771563552* -->
<g id="node13" class="node">
<title>5771563552*</title>
<ellipse fill="none" stroke="black" cx="2472" cy="-127.5" rx="27" ry="18"/>
<text text-anchor="middle" x="2472" y="-122.45" font-family="Times,serif" font-size="14.00">*</text>
</g>
<!-- 5771563360&#45;&gt;5771563552* -->
<g id="edge18" class="edge">
<title>5771563360&#45;&gt;5771563552*</title>
<path fill="none" stroke="black" d="M2409.13,-138.98C2417.87,-137.36 2426.44,-135.77 2434.29,-134.31"/>
<polygon fill="black" stroke="black" points="2434.88,-137.76 2444.07,-132.5 2433.6,-130.88 2434.88,-137.76"/>
</g>
<!-- 5771563360**&#45;1&#45;&gt;5771563360 -->
<g id="edge3" class="edge">
<title>5771563360**&#45;1&#45;&gt;5771563360</title>
<path fill="none" stroke="black" d="M2163.76,-155.22C2183.59,-155.01 2211.7,-154.72 2239.12,-154.43"/>
<polygon fill="black" stroke="black" points="2238.91,-157.94 2248.88,-154.33 2238.84,-150.94 2238.91,-157.94"/>
</g>
<!-- 5771448720 -->
<g id="node8" class="node">
<title>5771448720</title>
<polygon fill="none" stroke="black" points="1.5,-165.5 1.5,-201.5 187.5,-201.5 187.5,-165.5 1.5,-165.5"/>
<text text-anchor="middle" x="16.25" y="-178.7" font-family="Times,serif" font-size="14.00">x0</text>
<polyline fill="none" stroke="black" points="31,-166 31,-201.5"/>
<text text-anchor="middle" x="57.75" y="-178.7" font-family="Times,serif" font-size="14.00">2.0000</text>
<polyline fill="none" stroke="black" points="84.5,-166 84.5,-201.5"/>
<text text-anchor="middle" x="136" y="-178.7" font-family="Times,serif" font-size="14.00">grad: &#45;847.5288</text>
</g>
<!-- 5771559888* -->
<g id="node17" class="node">
<title>5771559888*</title>
<ellipse fill="none" stroke="black" cx="252" cy="-128.5" rx="27" ry="18"/>
<text text-anchor="middle" x="252" y="-123.45" font-family="Times,serif" font-size="14.00">*</text>
</g>
<!-- 5771448720&#45;&gt;5771559888* -->
<g id="edge26" class="edge">
<title>5771448720&#45;&gt;5771559888*</title>
<path fill="none" stroke="black" d="M163.79,-165.01C172.34,-162.34 180.91,-159.48 189,-156.5 198.99,-152.82 209.62,-148.27 219.21,-143.91"/>
<polygon fill="black" stroke="black" points="220.54,-147.15 228.14,-139.76 217.59,-140.8 220.54,-147.15"/>
</g>
<!-- 5771448768 -->
<g id="node9" class="node">
<title>5771448768</title>
<polygon fill="none" stroke="black" points="0,-110.5 0,-146.5 189,-146.5 189,-110.5 0,-110.5"/>
<text text-anchor="middle" x="16.25" y="-123.7" font-family="Times,serif" font-size="14.00">w0</text>
<polyline fill="none" stroke="black" points="32.5,-111 32.5,-146.5"/>
<text text-anchor="middle" x="61.5" y="-123.7" font-family="Times,serif" font-size="14.00">&#45;3.0000</text>
<polyline fill="none" stroke="black" points="90.5,-111 90.5,-146.5"/>
<text text-anchor="middle" x="139.75" y="-123.7" font-family="Times,serif" font-size="14.00">grad: 565.0192</text>
</g>
<!-- 5771448768&#45;&gt;5771559888* -->
<g id="edge21" class="edge">
<title>5771448768&#45;&gt;5771559888*</title>
<path fill="none" stroke="black" d="M189.1,-128.5C197.62,-128.5 205.88,-128.5 213.44,-128.5"/>
<polygon fill="black" stroke="black" points="213.18,-132 223.18,-128.5 213.18,-125 213.18,-132"/>
</g>
<!-- 5771557376 -->
<g id="node10" class="node">
<title>5771557376</title>
<polygon fill="none" stroke="black" points="1282.5,-82.5 1282.5,-118.5 1440.75,-118.5 1440.75,-82.5 1282.5,-82.5"/>
<text text-anchor="middle" x="1292.38" y="-95.7" font-family="Times,serif" font-size="14.00"> </text>
<polyline fill="none" stroke="black" points="1302.25,-83 1302.25,-118.5"/>
<text text-anchor="middle" x="1329" y="-95.7" font-family="Times,serif" font-size="14.00">2.4142</text>
<polyline fill="none" stroke="black" points="1355.75,-83 1355.75,-118.5"/>
<text text-anchor="middle" x="1398.25" y="-95.7" font-family="Times,serif" font-size="14.00">grad: 2.8284</text>
</g>
<!-- 5771556272**2 -->
<g id="node26" class="node">
<title>5771556272**2</title>
<ellipse fill="none" stroke="black" cx="1506" cy="-100.5" rx="27" ry="18"/>
<text text-anchor="middle" x="1506" y="-95.45" font-family="Times,serif" font-size="14.00">**2</text>
</g>
<!-- 5771557376&#45;&gt;5771556272**2 -->
<g id="edge17" class="edge">
<title>5771557376&#45;&gt;5771556272**2</title>
<path fill="none" stroke="black" d="M1440.89,-100.5C1450.01,-100.5 1458.97,-100.5 1467.17,-100.5"/>
<polygon fill="black" stroke="black" points="1467.05,-104 1477.05,-100.5 1467.05,-97 1467.05,-104"/>
</g>
<!-- 5771557376e -->
<g id="node11" class="node">
<title>5771557376e</title>
<ellipse fill="none" stroke="black" cx="1217.25" cy="-100.5" rx="27" ry="18"/>
<text text-anchor="middle" x="1217.25" y="-95.45" font-family="Times,serif" font-size="14.00">e</text>
</g>
<!-- 5771557376e&#45;&gt;5771557376 -->
<g id="edge4" class="edge">
<title>5771557376e&#45;&gt;5771557376</title>
<path fill="none" stroke="black" d="M1244.7,-100.5C1252.5,-100.5 1261.51,-100.5 1270.99,-100.5"/>
<polygon fill="black" stroke="black" points="1270.77,-104 1280.77,-100.5 1270.77,-97 1270.77,-104"/>
</g>
<!-- 5771563552 -->
<g id="node12" class="node">
<title>5771563552</title>
<polygon fill="none" stroke="black" points="2535,-109.5 2535,-145.5 2696.25,-145.5 2696.25,-109.5 2535,-109.5"/>
<text text-anchor="middle" x="2546.38" y="-122.7" font-family="Times,serif" font-size="14.00">o</text>
<polyline fill="none" stroke="black" points="2557.75,-110 2557.75,-145.5"/>
<text text-anchor="middle" x="2584.5" y="-122.7" font-family="Times,serif" font-size="14.00">0.7071</text>
<polyline fill="none" stroke="black" points="2611.25,-110 2611.25,-145.5"/>
<text text-anchor="middle" x="2653.75" y="-122.7" font-family="Times,serif" font-size="14.00">grad: 1.0000</text>
</g>
<!-- 5771563552*&#45;&gt;5771563552 -->
<g id="edge5" class="edge">
<title>5771563552*&#45;&gt;5771563552</title>
<path fill="none" stroke="black" d="M2499.31,-127.5C2506.43,-127.5 2514.55,-127.5 2523.13,-127.5"/>
<polygon fill="black" stroke="black" points="2523.09,-131 2533.09,-127.5 2523.09,-124 2523.09,-131"/>
</g>
<!-- 5771450976 -->
<g id="node14" class="node">
<title>5771450976</title>
<polygon fill="none" stroke="black" points="665.62,-137.5 665.62,-173.5 833.62,-173.5 833.62,-137.5 665.62,-137.5"/>
<text text-anchor="middle" x="677" y="-150.7" font-family="Times,serif" font-size="14.00">b</text>
<polyline fill="none" stroke="black" points="688.38,-138 688.38,-173.5"/>
<text text-anchor="middle" x="715.12" y="-150.7" font-family="Times,serif" font-size="14.00">6.8814</text>
<polyline fill="none" stroke="black" points="741.88,-138 741.88,-173.5"/>
<text text-anchor="middle" x="787.75" y="-150.7" font-family="Times,serif" font-size="14.00">grad: 15.9999</text>
</g>
<!-- 5771556128+ -->
<g id="node22" class="node">
<title>5771556128+</title>
<ellipse fill="none" stroke="black" cx="925.5" cy="-127.5" rx="27" ry="18"/>
<text text-anchor="middle" x="925.5" y="-122.45" font-family="Times,serif" font-size="14.00">+</text>
</g>
<!-- 5771450976&#45;&gt;5771556128+ -->
<g id="edge27" class="edge">
<title>5771450976&#45;&gt;5771556128+</title>
<path fill="none" stroke="black" d="M834,-142.07C852.75,-139.05 871.72,-136 887.42,-133.47"/>
<polygon fill="black" stroke="black" points="887.92,-136.94 897.23,-131.89 886.81,-130.03 887.92,-136.94"/>
</g>
<!-- 5771451168 -->
<g id="node15" class="node">
<title>5771451168</title>
<polygon fill="none" stroke="black" points="9,-55.5 9,-91.5 180,-91.5 180,-55.5 9,-55.5"/>
<text text-anchor="middle" x="25.25" y="-68.7" font-family="Times,serif" font-size="14.00">w1</text>
<polyline fill="none" stroke="black" points="41.5,-56 41.5,-91.5"/>
<text text-anchor="middle" x="68.25" y="-68.7" font-family="Times,serif" font-size="14.00">1.0000</text>
<polyline fill="none" stroke="black" points="95,-56 95,-91.5"/>
<text text-anchor="middle" x="137.5" y="-68.7" font-family="Times,serif" font-size="14.00">grad: 0.0000</text>
</g>
<!-- 5771562432* -->
<g id="node28" class="node">
<title>5771562432*</title>
<ellipse fill="none" stroke="black" cx="252" cy="-73.5" rx="27" ry="18"/>
<text text-anchor="middle" x="252" y="-68.45" font-family="Times,serif" font-size="14.00">*</text>
</g>
<!-- 5771451168&#45;&gt;5771562432* -->
<g id="edge14" class="edge">
<title>5771451168&#45;&gt;5771562432*</title>
<path fill="none" stroke="black" d="M180.08,-73.5C191.75,-73.5 203.22,-73.5 213.41,-73.5"/>
<polygon fill="black" stroke="black" points="213.22,-77 223.22,-73.5 213.22,-70 213.22,-77"/>
</g>
<!-- 5771559888 -->
<g id="node16" class="node">
<title>5771559888</title>
<polygon fill="none" stroke="black" points="315,-110.5 315,-146.5 510.75,-146.5 510.75,-110.5 315,-110.5"/>
<text text-anchor="middle" x="338" y="-123.7" font-family="Times,serif" font-size="14.00">w0x0</text>
<polyline fill="none" stroke="black" points="361,-111 361,-146.5"/>
<text text-anchor="middle" x="390" y="-123.7" font-family="Times,serif" font-size="14.00">&#45;6.0000</text>
<polyline fill="none" stroke="black" points="419,-111 419,-146.5"/>
<text text-anchor="middle" x="464.88" y="-123.7" font-family="Times,serif" font-size="14.00">grad: 86.6274</text>
</g>
<!-- 5771555888+ -->
<g id="node19" class="node">
<title>5771555888+</title>
<ellipse fill="none" stroke="black" cx="573.75" cy="-100.5" rx="27" ry="18"/>
<text text-anchor="middle" x="573.75" y="-95.45" font-family="Times,serif" font-size="14.00">+</text>
</g>
<!-- 5771559888&#45;&gt;5771555888+ -->
<g id="edge28" class="edge">
<title>5771559888&#45;&gt;5771555888+</title>
<path fill="none" stroke="black" d="M510.87,-111.41C519.71,-109.85 528.24,-108.34 536,-106.98"/>
<polygon fill="black" stroke="black" points="536.39,-110.46 545.63,-105.28 535.18,-103.57 536.39,-110.46"/>
</g>
<!-- 5771559888*&#45;&gt;5771559888 -->
<g id="edge6" class="edge">
<title>5771559888*&#45;&gt;5771559888</title>
<path fill="none" stroke="black" d="M279.23,-128.5C286.36,-128.5 294.55,-128.5 303.27,-128.5"/>
<polygon fill="black" stroke="black" points="303.07,-132 313.07,-128.5 303.07,-125 303.07,-132"/>
</g>
<!-- 5771555888 -->
<g id="node18" class="node">
<title>5771555888</title>
<polygon fill="none" stroke="black" points="636.75,-82.5 636.75,-118.5 862.5,-118.5 862.5,-82.5 636.75,-82.5"/>
<text text-anchor="middle" x="674.75" y="-95.7" font-family="Times,serif" font-size="14.00">w0x0w1x1</text>
<polyline fill="none" stroke="black" points="712.75,-83 712.75,-118.5"/>
<text text-anchor="middle" x="741.75" y="-95.7" font-family="Times,serif" font-size="14.00">&#45;6.0000</text>
<polyline fill="none" stroke="black" points="770.75,-83 770.75,-118.5"/>
<text text-anchor="middle" x="816.62" y="-95.7" font-family="Times,serif" font-size="14.00">grad: 15.9999</text>
</g>
<!-- 5771555888&#45;&gt;5771556128+ -->
<g id="edge24" class="edge">
<title>5771555888&#45;&gt;5771556128+</title>
<path fill="none" stroke="black" d="M862.71,-117.9C871.51,-119.27 879.93,-120.58 887.57,-121.76"/>
<polygon fill="black" stroke="black" points="886.96,-125.21 897.38,-123.29 888.03,-118.3 886.96,-125.21"/>
</g>
<!-- 5771555888+&#45;&gt;5771555888 -->
<g id="edge7" class="edge">
<title>5771555888+&#45;&gt;5771555888</title>
<path fill="none" stroke="black" d="M601.16,-100.5C608.24,-100.5 616.38,-100.5 625.13,-100.5"/>
<polygon fill="black" stroke="black" points="624.99,-104 634.99,-100.5 624.99,-97 624.99,-104"/>
</g>
<!-- 5771556080 -->
<g id="node20" class="node">
<title>5771556080</title>
<polygon fill="none" stroke="black" points="1569,-27.5 1569,-63.5 1731.75,-63.5 1731.75,-27.5 1569,-27.5"/>
<text text-anchor="middle" x="1578.88" y="-40.7" font-family="Times,serif" font-size="14.00"> </text>
<polyline fill="none" stroke="black" points="1588.75,-28 1588.75,-63.5"/>
<text text-anchor="middle" x="1617.75" y="-40.7" font-family="Times,serif" font-size="14.00">&#45;1.0000</text>
<polyline fill="none" stroke="black" points="1646.75,-28 1646.75,-63.5"/>
<text text-anchor="middle" x="1689.25" y="-40.7" font-family="Times,serif" font-size="14.00">grad: 0.2929</text>
</g>
<!-- 5771558240+ -->
<g id="node24" class="node">
<title>5771558240+</title>
<ellipse fill="none" stroke="black" cx="1794.75" cy="-100.5" rx="27" ry="18"/>
<text text-anchor="middle" x="1794.75" y="-95.45" font-family="Times,serif" font-size="14.00">+</text>
</g>
<!-- 5771556080&#45;&gt;5771558240+ -->
<g id="edge30" class="edge">
<title>5771556080&#45;&gt;5771558240+</title>
<path fill="none" stroke="black" d="M1706.06,-63.93C1714.69,-67.02 1723.49,-70.27 1731.75,-73.5 1741.52,-77.32 1752.03,-81.77 1761.56,-85.93"/>
<polygon fill="black" stroke="black" points="1759.88,-89.02 1770.44,-89.86 1762.71,-82.61 1759.88,-89.02"/>
</g>
<!-- 5771556128 -->
<g id="node21" class="node">
<title>5771556128</title>
<polygon fill="none" stroke="black" points="988.5,-109.5 988.5,-145.5 1154.25,-145.5 1154.25,-109.5 988.5,-109.5"/>
<text text-anchor="middle" x="999.88" y="-122.7" font-family="Times,serif" font-size="14.00">n</text>
<polyline fill="none" stroke="black" points="1011.25,-110 1011.25,-145.5"/>
<text text-anchor="middle" x="1038" y="-122.7" font-family="Times,serif" font-size="14.00">0.8814</text>
<polyline fill="none" stroke="black" points="1064.75,-110 1064.75,-145.5"/>
<text text-anchor="middle" x="1109.5" y="-122.7" font-family="Times,serif" font-size="14.00">grad: &#45;5.6569</text>
</g>
<!-- 5771556128&#45;&gt;5771557376e -->
<g id="edge15" class="edge">
<title>5771556128&#45;&gt;5771557376e</title>
<path fill="none" stroke="black" d="M1154.4,-112.11C1163.2,-110.46 1171.79,-108.84 1179.64,-107.37"/>
<polygon fill="black" stroke="black" points="1180.24,-110.82 1189.42,-105.53 1178.95,-103.94 1180.24,-110.82"/>
</g>
<!-- 5771556800e -->
<g id="node31" class="node">
<title>5771556800e</title>
<ellipse fill="none" stroke="black" cx="1217.25" cy="-154.5" rx="27" ry="18"/>
<text text-anchor="middle" x="1217.25" y="-149.45" font-family="Times,serif" font-size="14.00">e</text>
</g>
<!-- 5771556128&#45;&gt;5771556800e -->
<g id="edge31" class="edge">
<title>5771556128&#45;&gt;5771556800e</title>
<path fill="none" stroke="black" d="M1154.4,-142.89C1163.2,-144.54 1171.79,-146.16 1179.64,-147.63"/>
<polygon fill="black" stroke="black" points="1178.95,-151.06 1189.42,-149.47 1180.24,-144.18 1178.95,-151.06"/>
</g>
<!-- 5771556128+&#45;&gt;5771556128 -->
<g id="edge8" class="edge">
<title>5771556128+&#45;&gt;5771556128</title>
<path fill="none" stroke="black" d="M952.89,-127.5C960,-127.5 968.11,-127.5 976.68,-127.5"/>
<polygon fill="black" stroke="black" points="976.65,-131 986.65,-127.5 976.65,-124 976.65,-131"/>
</g>
<!-- 5771558240 -->
<g id="node23" class="node">
<title>5771558240</title>
<polygon fill="none" stroke="black" points="2056.5,-82.5 2056.5,-118.5 2214.75,-118.5 2214.75,-82.5 2056.5,-82.5"/>
<text text-anchor="middle" x="2066.38" y="-95.7" font-family="Times,serif" font-size="14.00"> </text>
<polyline fill="none" stroke="black" points="2076.25,-83 2076.25,-118.5"/>
<text text-anchor="middle" x="2103" y="-95.7" font-family="Times,serif" font-size="14.00">4.8285</text>
<polyline fill="none" stroke="black" points="2129.75,-83 2129.75,-118.5"/>
<text text-anchor="middle" x="2172.25" y="-95.7" font-family="Times,serif" font-size="14.00">grad: 0.1464</text>
</g>
<!-- 5771558240&#45;&gt;5771563552* -->
<g id="edge25" class="edge">
<title>5771558240&#45;&gt;5771563552*</title>
<path fill="none" stroke="black" d="M2215.02,-106.83C2283.79,-112.38 2380.79,-120.22 2433.44,-124.47"/>
<polygon fill="black" stroke="black" points="2433.14,-127.95 2443.39,-125.27 2433.71,-120.98 2433.14,-127.95"/>
</g>
<!-- 5771558240+&#45;&gt;5771558240 -->
<g id="edge9" class="edge">
<title>5771558240+&#45;&gt;5771558240</title>
<path fill="none" stroke="black" d="M1822.06,-100.5C1869.24,-100.5 1970.28,-100.5 2044.76,-100.5"/>
<polygon fill="black" stroke="black" points="2044.5,-104 2054.5,-100.5 2044.5,-97 2044.5,-104"/>
</g>
<!-- 5771556272 -->
<g id="node25" class="node">
<title>5771556272</title>
<polygon fill="none" stroke="black" points="1571.25,-82.5 1571.25,-118.5 1729.5,-118.5 1729.5,-82.5 1571.25,-82.5"/>
<text text-anchor="middle" x="1581.12" y="-95.7" font-family="Times,serif" font-size="14.00"> </text>
<polyline fill="none" stroke="black" points="1591,-83 1591,-118.5"/>
<text text-anchor="middle" x="1617.75" y="-95.7" font-family="Times,serif" font-size="14.00">5.8285</text>
<polyline fill="none" stroke="black" points="1644.5,-83 1644.5,-118.5"/>
<text text-anchor="middle" x="1687" y="-95.7" font-family="Times,serif" font-size="14.00">grad: 0.2929</text>
</g>
<!-- 5771556272&#45;&gt;5771558240+ -->
<g id="edge19" class="edge">
<title>5771556272&#45;&gt;5771558240+</title>
<path fill="none" stroke="black" d="M1729.64,-100.5C1738.76,-100.5 1747.72,-100.5 1755.92,-100.5"/>
<polygon fill="black" stroke="black" points="1755.8,-104 1765.8,-100.5 1755.8,-97 1755.8,-104"/>
</g>
<!-- 5771556272**2&#45;&gt;5771556272 -->
<g id="edge10" class="edge">
<title>5771556272**2&#45;&gt;5771556272</title>
<path fill="none" stroke="black" d="M1533.45,-100.5C1541.25,-100.5 1550.26,-100.5 1559.74,-100.5"/>
<polygon fill="black" stroke="black" points="1559.52,-104 1569.52,-100.5 1559.52,-97 1559.52,-104"/>
</g>
<!-- 5771562432 -->
<g id="node27" class="node">
<title>5771562432</title>
<polygon fill="none" stroke="black" points="317.25,-55.5 317.25,-91.5 508.5,-91.5 508.5,-55.5 317.25,-55.5"/>
<text text-anchor="middle" x="340.25" y="-68.7" font-family="Times,serif" font-size="14.00">w1x1</text>
<polyline fill="none" stroke="black" points="363.25,-56 363.25,-91.5"/>
<text text-anchor="middle" x="390" y="-68.7" font-family="Times,serif" font-size="14.00">0.0000</text>
<polyline fill="none" stroke="black" points="416.75,-56 416.75,-91.5"/>
<text text-anchor="middle" x="462.62" y="-68.7" font-family="Times,serif" font-size="14.00">grad: 86.6274</text>
</g>
<!-- 5771562432&#45;&gt;5771555888+ -->
<g id="edge23" class="edge">
<title>5771562432&#45;&gt;5771555888+</title>
<path fill="none" stroke="black" d="M508.59,-89.6C518.25,-91.24 527.61,-92.83 536.04,-94.26"/>
<polygon fill="black" stroke="black" points="535.36,-97.7 545.8,-95.92 536.53,-90.79 535.36,-97.7"/>
</g>
<!-- 5771562432*&#45;&gt;5771562432 -->
<g id="edge11" class="edge">
<title>5771562432*&#45;&gt;5771562432</title>
<path fill="none" stroke="black" d="M279.23,-73.5C286.96,-73.5 295.93,-73.5 305.5,-73.5"/>
<polygon fill="black" stroke="black" points="305.44,-77 315.44,-73.5 305.44,-70 305.44,-77"/>
</g>
<!-- 5771452176 -->
<g id="node29" class="node">
<title>5771452176</title>
<polygon fill="none" stroke="black" points="3.75,-0.5 3.75,-36.5 185.25,-36.5 185.25,-0.5 3.75,-0.5"/>
<text text-anchor="middle" x="18.5" y="-13.7" font-family="Times,serif" font-size="14.00">x1</text>
<polyline fill="none" stroke="black" points="33.25,-1 33.25,-36.5"/>
<text text-anchor="middle" x="60" y="-13.7" font-family="Times,serif" font-size="14.00">0.0000</text>
<polyline fill="none" stroke="black" points="86.75,-1 86.75,-36.5"/>
<text text-anchor="middle" x="136" y="-13.7" font-family="Times,serif" font-size="14.00">grad: 282.5096</text>
</g>
<!-- 5771452176&#45;&gt;5771562432* -->
<g id="edge22" class="edge">
<title>5771452176&#45;&gt;5771562432*</title>
<path fill="none" stroke="black" d="M163.79,-36.99C172.34,-39.66 180.91,-42.52 189,-45.5 198.99,-49.18 209.62,-53.73 219.21,-58.09"/>
<polygon fill="black" stroke="black" points="217.59,-61.2 228.14,-62.24 220.54,-54.85 217.59,-61.2"/>
</g>
<!-- 5771556800 -->
<g id="node30" class="node">
<title>5771556800</title>
<polygon fill="none" stroke="black" points="1280.25,-137.5 1280.25,-173.5 1443,-173.5 1443,-137.5 1280.25,-137.5"/>
<text text-anchor="middle" x="1290.12" y="-150.7" font-family="Times,serif" font-size="14.00"> </text>
<polyline fill="none" stroke="black" points="1300,-138 1300,-173.5"/>
<text text-anchor="middle" x="1326.75" y="-150.7" font-family="Times,serif" font-size="14.00">2.4142</text>
<polyline fill="none" stroke="black" points="1353.5,-138 1353.5,-173.5"/>
<text text-anchor="middle" x="1398.25" y="-150.7" font-family="Times,serif" font-size="14.00">grad: &#45;4.0000</text>
</g>
<!-- 5771556800&#45;&gt;5771557184**2 -->
<g id="edge13" class="edge">
<title>5771556800&#45;&gt;5771557184**2</title>
<path fill="none" stroke="black" d="M1443.38,-155.5C1451.6,-155.5 1459.65,-155.5 1467.07,-155.5"/>
<polygon fill="black" stroke="black" points="1467.02,-159 1477.02,-155.5 1467.02,-152 1467.02,-159"/>
</g>
<!-- 5771556800e&#45;&gt;5771556800 -->
<g id="edge12" class="edge">
<title>5771556800e&#45;&gt;5771556800</title>
<path fill="none" stroke="black" d="M1244.7,-154.69C1251.8,-154.74 1259.9,-154.79 1268.44,-154.85"/>
<polygon fill="black" stroke="black" points="1268.34,-158.35 1278.37,-154.92 1268.39,-151.35 1268.34,-158.35"/>
</g>
</g>
</svg>
