<?xml version="1.0" encoding="UTF-8" standalone="no"?>
<!DOCTYPE svg PUBLIC "-//W3C//DTD SVG 1.1//EN"
 "http://www.w3.org/Graphics/SVG/1.1/DTD/svg11.dtd">
<!-- Generated by graphviz version 10.0.1 (20240210.2158)
 -->
<!-- Pages: 1 -->
<svg width="2664pt" height="279pt"
 viewBox="0.00 0.00 2663.75 279.00" xmlns="http://www.w3.org/2000/svg" xmlns:xlink="http://www.w3.org/1999/xlink">
<g id="graph0" class="graph" transform="scale(1 1) rotate(0) translate(4 275)">
<polygon fill="white" stroke="none" points="-4,4 -4,-275 2659.75,-275 2659.75,4 -4,4"/>
<!-- 5771518064 -->
<g id="node1" class="node">
<title>5771518064</title>
<polygon fill="none" stroke="black" points="3.75,-234.5 3.75,-270.5 171.75,-270.5 171.75,-234.5 3.75,-234.5"/>
<text text-anchor="middle" x="18.5" y="-247.7" font-family="Times,serif" font-size="14.00">x1</text>
<polyline fill="none" stroke="black" points="33.25,-235 33.25,-270.5"/>
<text text-anchor="middle" x="60" y="-247.7" font-family="Times,serif" font-size="14.00">0.0000</text>
<polyline fill="none" stroke="black" points="86.75,-235 86.75,-270.5"/>
<text text-anchor="middle" x="129.25" y="-247.7" font-family="Times,serif" font-size="14.00">grad: 0.0000</text>
</g>
<!-- 5771518736* -->
<g id="node13" class="node">
<title>5771518736*</title>
<ellipse fill="none" stroke="black" cx="238.5" cy="-197.5" rx="27" ry="18"/>
<text text-anchor="middle" x="238.5" y="-192.45" font-family="Times,serif" font-size="14.00">*</text>
</g>
<!-- 5771518064&#45;&gt;5771518736* -->
<g id="edge22" class="edge">
<title>5771518064&#45;&gt;5771518736*</title>
<path fill="none" stroke="black" d="M151.14,-234.09C159.39,-231.36 167.68,-228.47 175.5,-225.5 185.45,-221.72 196.07,-217.14 205.67,-212.78"/>
<polygon fill="black" stroke="black" points="206.99,-216.02 214.59,-208.64 204.05,-209.67 206.99,-216.02"/>
</g>
<!-- 5771518112 -->
<g id="node2" class="node">
<title>5771518112</title>
<polygon fill="none" stroke="black" points="2.25,-179.5 2.25,-215.5 173.25,-215.5 173.25,-179.5 2.25,-179.5"/>
<text text-anchor="middle" x="18.5" y="-192.7" font-family="Times,serif" font-size="14.00">w1</text>
<polyline fill="none" stroke="black" points="34.75,-180 34.75,-215.5"/>
<text text-anchor="middle" x="61.5" y="-192.7" font-family="Times,serif" font-size="14.00">1.0000</text>
<polyline fill="none" stroke="black" points="88.25,-180 88.25,-215.5"/>
<text text-anchor="middle" x="130.75" y="-192.7" font-family="Times,serif" font-size="14.00">grad: 0.0000</text>
</g>
<!-- 5771518112&#45;&gt;5771518736* -->
<g id="edge15" class="edge">
<title>5771518112&#45;&gt;5771518736*</title>
<path fill="none" stroke="black" d="M173.55,-197.5C182.76,-197.5 191.75,-197.5 199.94,-197.5"/>
<polygon fill="black" stroke="black" points="199.79,-201 209.79,-197.5 199.79,-194 199.79,-201"/>
</g>
<!-- 5771518160 -->
<g id="node3" class="node">
<title>5771518160</title>
<polygon fill="none" stroke="black" points="3.75,-124.5 3.75,-160.5 171.75,-160.5 171.75,-124.5 3.75,-124.5"/>
<text text-anchor="middle" x="18.5" y="-137.7" font-family="Times,serif" font-size="14.00">x0</text>
<polyline fill="none" stroke="black" points="33.25,-125 33.25,-160.5"/>
<text text-anchor="middle" x="60" y="-137.7" font-family="Times,serif" font-size="14.00">2.0000</text>
<polyline fill="none" stroke="black" points="86.75,-125 86.75,-160.5"/>
<text text-anchor="middle" x="129.25" y="-137.7" font-family="Times,serif" font-size="14.00">grad: 0.0000</text>
</g>
<!-- 5771518640* -->
<g id="node11" class="node">
<title>5771518640*</title>
<ellipse fill="none" stroke="black" cx="238.5" cy="-142.5" rx="27" ry="18"/>
<text text-anchor="middle" x="238.5" y="-137.45" font-family="Times,serif" font-size="14.00">*</text>
</g>
<!-- 5771518160&#45;&gt;5771518640* -->
<g id="edge27" class="edge">
<title>5771518160&#45;&gt;5771518640*</title>
<path fill="none" stroke="black" d="M171.82,-142.5C181.61,-142.5 191.2,-142.5 199.89,-142.5"/>
<polygon fill="black" stroke="black" points="199.61,-146 209.61,-142.5 199.61,-139 199.61,-146"/>
</g>
<!-- 5771497728 -->
<g id="node4" class="node">
<title>5771497728</title>
<polygon fill="none" stroke="black" points="1248.75,-158.5 1248.75,-194.5 1407,-194.5 1407,-158.5 1248.75,-158.5"/>
<text text-anchor="middle" x="1258.62" y="-171.7" font-family="Times,serif" font-size="14.00"> </text>
<polyline fill="none" stroke="black" points="1268.5,-159 1268.5,-194.5"/>
<text text-anchor="middle" x="1295.25" y="-171.7" font-family="Times,serif" font-size="14.00">2.4142</text>
<polyline fill="none" stroke="black" points="1322,-159 1322,-194.5"/>
<text text-anchor="middle" x="1364.5" y="-171.7" font-family="Times,serif" font-size="14.00">grad: 0.0000</text>
</g>
<!-- 5771498736**2 -->
<g id="node21" class="node">
<title>5771498736**2</title>
<ellipse fill="none" stroke="black" cx="1470" cy="-179.5" rx="27" ry="18"/>
<text text-anchor="middle" x="1470" y="-174.45" font-family="Times,serif" font-size="14.00">**2</text>
</g>
<!-- 5771497728&#45;&gt;5771498736**2 -->
<g id="edge25" class="edge">
<title>5771497728&#45;&gt;5771498736**2</title>
<path fill="none" stroke="black" d="M1407.13,-178.18C1415.52,-178.36 1423.76,-178.53 1431.34,-178.69"/>
<polygon fill="black" stroke="black" points="1431.07,-182.19 1441.14,-178.9 1431.22,-175.19 1431.07,-182.19"/>
</g>
<!-- 5771497728e -->
<g id="node5" class="node">
<title>5771497728e</title>
<ellipse fill="none" stroke="black" cx="1185.75" cy="-172.5" rx="27" ry="18"/>
<text text-anchor="middle" x="1185.75" y="-167.45" font-family="Times,serif" font-size="14.00">e</text>
</g>
<!-- 5771497728e&#45;&gt;5771497728 -->
<g id="edge1" class="edge">
<title>5771497728e&#45;&gt;5771497728</title>
<path fill="none" stroke="black" d="M1213.11,-173.25C1220.22,-173.46 1228.33,-173.69 1236.87,-173.93"/>
<polygon fill="black" stroke="black" points="1236.69,-177.43 1246.79,-174.21 1236.89,-170.43 1236.69,-177.43"/>
</g>
<!-- 5771518208 -->
<g id="node6" class="node">
<title>5771518208</title>
<polygon fill="none" stroke="black" points="0,-69.5 0,-105.5 175.5,-105.5 175.5,-69.5 0,-69.5"/>
<text text-anchor="middle" x="16.25" y="-82.7" font-family="Times,serif" font-size="14.00">w0</text>
<polyline fill="none" stroke="black" points="32.5,-70 32.5,-105.5"/>
<text text-anchor="middle" x="61.5" y="-82.7" font-family="Times,serif" font-size="14.00">&#45;3.0000</text>
<polyline fill="none" stroke="black" points="90.5,-70 90.5,-105.5"/>
<text text-anchor="middle" x="133" y="-82.7" font-family="Times,serif" font-size="14.00">grad: 0.0000</text>
</g>
<!-- 5771518208&#45;&gt;5771518640* -->
<g id="edge17" class="edge">
<title>5771518208&#45;&gt;5771518640*</title>
<path fill="none" stroke="black" d="M151.14,-105.91C159.39,-108.64 167.68,-111.53 175.5,-114.5 185.45,-118.28 196.07,-122.86 205.67,-127.22"/>
<polygon fill="black" stroke="black" points="204.05,-130.33 214.59,-131.36 206.99,-123.98 204.05,-130.33"/>
</g>
<!-- 5771444768 -->
<g id="node7" class="node">
<title>5771444768</title>
<polygon fill="none" stroke="black" points="2016,-110.5 2016,-146.5 2174.25,-146.5 2174.25,-110.5 2016,-110.5"/>
<text text-anchor="middle" x="2025.88" y="-123.7" font-family="Times,serif" font-size="14.00"> </text>
<polyline fill="none" stroke="black" points="2035.75,-111 2035.75,-146.5"/>
<text text-anchor="middle" x="2062.5" y="-123.7" font-family="Times,serif" font-size="14.00">4.8285</text>
<polyline fill="none" stroke="black" points="2089.25,-111 2089.25,-146.5"/>
<text text-anchor="middle" x="2131.75" y="-123.7" font-family="Times,serif" font-size="14.00">grad: 0.1464</text>
</g>
<!-- 5771406256* -->
<g id="node15" class="node">
<title>5771406256*</title>
<ellipse fill="none" stroke="black" cx="2431.5" cy="-100.5" rx="27" ry="18"/>
<text text-anchor="middle" x="2431.5" y="-95.45" font-family="Times,serif" font-size="14.00">*</text>
</g>
<!-- 5771444768&#45;&gt;5771406256* -->
<g id="edge14" class="edge">
<title>5771444768&#45;&gt;5771406256*</title>
<path fill="none" stroke="black" d="M2174.52,-121.94C2243.29,-116.18 2340.29,-108.05 2392.94,-103.65"/>
<polygon fill="black" stroke="black" points="2393.22,-107.13 2402.89,-102.81 2392.64,-100.16 2393.22,-107.13"/>
</g>
<!-- 5771444768+ -->
<g id="node8" class="node">
<title>5771444768+</title>
<ellipse fill="none" stroke="black" cx="1758.75" cy="-128.5" rx="27" ry="18"/>
<text text-anchor="middle" x="1758.75" y="-123.45" font-family="Times,serif" font-size="14.00">+</text>
</g>
<!-- 5771444768+&#45;&gt;5771444768 -->
<g id="edge2" class="edge">
<title>5771444768+&#45;&gt;5771444768</title>
<path fill="none" stroke="black" d="M1785.99,-128.5C1832.48,-128.5 1931.33,-128.5 2004.6,-128.5"/>
<polygon fill="black" stroke="black" points="2004.16,-132 2014.16,-128.5 2004.16,-125 2004.16,-132"/>
</g>
<!-- 5771446832 -->
<g id="node9" class="node">
<title>5771446832</title>
<polygon fill="none" stroke="black" points="1535.25,-0.5 1535.25,-36.5 1693.5,-36.5 1693.5,-0.5 1535.25,-0.5"/>
<text text-anchor="middle" x="1545.12" y="-13.7" font-family="Times,serif" font-size="14.00"> </text>
<polyline fill="none" stroke="black" points="1555,-1 1555,-36.5"/>
<text text-anchor="middle" x="1581.75" y="-13.7" font-family="Times,serif" font-size="14.00">1.0000</text>
<polyline fill="none" stroke="black" points="1608.5,-1 1608.5,-36.5"/>
<text text-anchor="middle" x="1651" y="-13.7" font-family="Times,serif" font-size="14.00">grad: 0.0000</text>
</g>
<!-- 5771447456+ -->
<g id="node19" class="node">
<title>5771447456+</title>
<ellipse fill="none" stroke="black" cx="1758.75" cy="-73.5" rx="27" ry="18"/>
<text text-anchor="middle" x="1758.75" y="-68.45" font-family="Times,serif" font-size="14.00">+</text>
</g>
<!-- 5771446832&#45;&gt;5771447456+ -->
<g id="edge21" class="edge">
<title>5771446832&#45;&gt;5771447456+</title>
<path fill="none" stroke="black" d="M1672.71,-36.98C1680.5,-39.71 1688.35,-42.59 1695.75,-45.5 1705.65,-49.39 1716.27,-54.01 1725.86,-58.36"/>
<polygon fill="black" stroke="black" points="1724.25,-61.47 1734.8,-62.48 1727.18,-55.12 1724.25,-61.47"/>
</g>
<!-- 5771518640 -->
<g id="node10" class="node">
<title>5771518640</title>
<polygon fill="none" stroke="black" points="301.5,-124.5 301.5,-160.5 490.5,-160.5 490.5,-124.5 301.5,-124.5"/>
<text text-anchor="middle" x="324.5" y="-137.7" font-family="Times,serif" font-size="14.00">w0x0</text>
<polyline fill="none" stroke="black" points="347.5,-125 347.5,-160.5"/>
<text text-anchor="middle" x="376.5" y="-137.7" font-family="Times,serif" font-size="14.00">&#45;6.0000</text>
<polyline fill="none" stroke="black" points="405.5,-125 405.5,-160.5"/>
<text text-anchor="middle" x="448" y="-137.7" font-family="Times,serif" font-size="14.00">grad: 0.0000</text>
</g>
<!-- 5771521520+ -->
<g id="node25" class="node">
<title>5771521520+</title>
<ellipse fill="none" stroke="black" cx="553.5" cy="-169.5" rx="27" ry="18"/>
<text text-anchor="middle" x="553.5" y="-164.45" font-family="Times,serif" font-size="14.00">+</text>
</g>
<!-- 5771518640&#45;&gt;5771521520+ -->
<g id="edge16" class="edge">
<title>5771518640&#45;&gt;5771521520+</title>
<path fill="none" stroke="black" d="M490.6,-158.75C499.48,-160.29 508.08,-161.79 515.89,-163.14"/>
<polygon fill="black" stroke="black" points="515.15,-166.57 525.6,-164.83 516.35,-159.67 515.15,-166.57"/>
</g>
<!-- 5771518640*&#45;&gt;5771518640 -->
<g id="edge3" class="edge">
<title>5771518640*&#45;&gt;5771518640</title>
<path fill="none" stroke="black" d="M265.88,-142.5C273.01,-142.5 281.18,-142.5 289.87,-142.5"/>
<polygon fill="black" stroke="black" points="289.61,-146 299.61,-142.5 289.61,-139 289.61,-146"/>
</g>
<!-- 5771518736 -->
<g id="node12" class="node">
<title>5771518736</title>
<polygon fill="none" stroke="black" points="303.75,-179.5 303.75,-215.5 488.25,-215.5 488.25,-179.5 303.75,-179.5"/>
<text text-anchor="middle" x="326.75" y="-192.7" font-family="Times,serif" font-size="14.00">w1x1</text>
<polyline fill="none" stroke="black" points="349.75,-180 349.75,-215.5"/>
<text text-anchor="middle" x="376.5" y="-192.7" font-family="Times,serif" font-size="14.00">0.0000</text>
<polyline fill="none" stroke="black" points="403.25,-180 403.25,-215.5"/>
<text text-anchor="middle" x="445.75" y="-192.7" font-family="Times,serif" font-size="14.00">grad: 0.0000</text>
</g>
<!-- 5771518736&#45;&gt;5771521520+ -->
<g id="edge18" class="edge">
<title>5771518736&#45;&gt;5771521520+</title>
<path fill="none" stroke="black" d="M488.35,-181.05C497.97,-179.32 507.3,-177.64 515.73,-176.12"/>
<polygon fill="black" stroke="black" points="516.27,-179.58 525.49,-174.36 515.03,-172.69 516.27,-179.58"/>
</g>
<!-- 5771518736*&#45;&gt;5771518736 -->
<g id="edge4" class="edge">
<title>5771518736*&#45;&gt;5771518736</title>
<path fill="none" stroke="black" d="M265.88,-197.5C273.6,-197.5 282.55,-197.5 292.06,-197.5"/>
<polygon fill="black" stroke="black" points="291.93,-201 301.93,-197.5 291.93,-194 291.93,-201"/>
</g>
<!-- 5771406256 -->
<g id="node14" class="node">
<title>5771406256</title>
<polygon fill="none" stroke="black" points="2494.5,-82.5 2494.5,-118.5 2655.75,-118.5 2655.75,-82.5 2494.5,-82.5"/>
<text text-anchor="middle" x="2505.88" y="-95.7" font-family="Times,serif" font-size="14.00">o</text>
<polyline fill="none" stroke="black" points="2517.25,-83 2517.25,-118.5"/>
<text text-anchor="middle" x="2544" y="-95.7" font-family="Times,serif" font-size="14.00">0.7071</text>
<polyline fill="none" stroke="black" points="2570.75,-83 2570.75,-118.5"/>
<text text-anchor="middle" x="2613.25" y="-95.7" font-family="Times,serif" font-size="14.00">grad: 1.0000</text>
</g>
<!-- 5771406256*&#45;&gt;5771406256 -->
<g id="edge5" class="edge">
<title>5771406256*&#45;&gt;5771406256</title>
<path fill="none" stroke="black" d="M2458.81,-100.5C2465.93,-100.5 2474.05,-100.5 2482.63,-100.5"/>
<polygon fill="black" stroke="black" points="2482.59,-104 2492.59,-100.5 2482.59,-97 2482.59,-104"/>
</g>
<!-- 5771406400 -->
<g id="node16" class="node">
<title>5771406400</title>
<polygon fill="none" stroke="black" points="2210.25,-59.5 2210.25,-95.5 2368.5,-95.5 2368.5,-59.5 2210.25,-59.5"/>
<text text-anchor="middle" x="2220.12" y="-72.7" font-family="Times,serif" font-size="14.00"> </text>
<polyline fill="none" stroke="black" points="2230,-60 2230,-95.5"/>
<text text-anchor="middle" x="2256.75" y="-72.7" font-family="Times,serif" font-size="14.00">0.1464</text>
<polyline fill="none" stroke="black" points="2283.5,-60 2283.5,-95.5"/>
<text text-anchor="middle" x="2326" y="-72.7" font-family="Times,serif" font-size="14.00">grad: 4.8285</text>
</g>
<!-- 5771406400&#45;&gt;5771406256* -->
<g id="edge29" class="edge">
<title>5771406400&#45;&gt;5771406256*</title>
<path fill="none" stroke="black" d="M2368.63,-90.34C2377.29,-91.77 2385.78,-93.16 2393.56,-94.44"/>
<polygon fill="black" stroke="black" points="2392.83,-97.86 2403.26,-96.03 2393.96,-90.96 2392.83,-97.86"/>
</g>
<!-- 5771406400**&#45;1 -->
<g id="node17" class="node">
<title>5771406400**&#45;1</title>
<ellipse fill="none" stroke="black" cx="2095.12" cy="-73.5" rx="27.81" ry="18"/>
<text text-anchor="middle" x="2095.12" y="-68.45" font-family="Times,serif" font-size="14.00">**&#45;1</text>
</g>
<!-- 5771406400**&#45;1&#45;&gt;5771406400 -->
<g id="edge6" class="edge">
<title>5771406400**&#45;1&#45;&gt;5771406400</title>
<path fill="none" stroke="black" d="M2123.26,-74.06C2143.09,-74.48 2171.2,-75.06 2198.62,-75.63"/>
<polygon fill="black" stroke="black" points="2198.31,-79.13 2208.38,-75.84 2198.45,-72.13 2198.31,-79.13"/>
</g>
<!-- 5771447456 -->
<g id="node18" class="node">
<title>5771447456</title>
<polygon fill="none" stroke="black" points="1821.75,-55.5 1821.75,-91.5 1980,-91.5 1980,-55.5 1821.75,-55.5"/>
<text text-anchor="middle" x="1831.62" y="-68.7" font-family="Times,serif" font-size="14.00"> </text>
<polyline fill="none" stroke="black" points="1841.5,-56 1841.5,-91.5"/>
<text text-anchor="middle" x="1868.25" y="-68.7" font-family="Times,serif" font-size="14.00">6.8285</text>
<polyline fill="none" stroke="black" points="1895,-56 1895,-91.5"/>
<text text-anchor="middle" x="1937.5" y="-68.7" font-family="Times,serif" font-size="14.00">grad: 0.0000</text>
</g>
<!-- 5771447456&#45;&gt;5771406400**&#45;1 -->
<g id="edge30" class="edge">
<title>5771447456&#45;&gt;5771406400**&#45;1</title>
<path fill="none" stroke="black" d="M1980.35,-73.5C2006.28,-73.5 2033.98,-73.5 2055.56,-73.5"/>
<polygon fill="black" stroke="black" points="2055.36,-77 2065.36,-73.5 2055.36,-70 2055.36,-77"/>
</g>
<!-- 5771447456+&#45;&gt;5771447456 -->
<g id="edge7" class="edge">
<title>5771447456+&#45;&gt;5771447456</title>
<path fill="none" stroke="black" d="M1786.11,-73.5C1793.22,-73.5 1801.33,-73.5 1809.87,-73.5"/>
<polygon fill="black" stroke="black" points="1809.79,-77 1819.79,-73.5 1809.79,-70 1809.79,-77"/>
</g>
<!-- 5771498736 -->
<g id="node20" class="node">
<title>5771498736</title>
<polygon fill="none" stroke="black" points="1535.25,-165.5 1535.25,-201.5 1693.5,-201.5 1693.5,-165.5 1535.25,-165.5"/>
<text text-anchor="middle" x="1545.12" y="-178.7" font-family="Times,serif" font-size="14.00"> </text>
<polyline fill="none" stroke="black" points="1555,-166 1555,-201.5"/>
<text text-anchor="middle" x="1581.75" y="-178.7" font-family="Times,serif" font-size="14.00">5.8285</text>
<polyline fill="none" stroke="black" points="1608.5,-166 1608.5,-201.5"/>
<text text-anchor="middle" x="1651" y="-178.7" font-family="Times,serif" font-size="14.00">grad: 0.1464</text>
</g>
<!-- 5771498736&#45;&gt;5771444768+ -->
<g id="edge28" class="edge">
<title>5771498736&#45;&gt;5771444768+</title>
<path fill="none" stroke="black" d="M1672.71,-165.02C1680.5,-162.29 1688.35,-159.41 1695.75,-156.5 1705.65,-152.61 1716.27,-147.99 1725.86,-143.64"/>
<polygon fill="black" stroke="black" points="1727.18,-146.88 1734.8,-139.52 1724.25,-140.53 1727.18,-146.88"/>
</g>
<!-- 5771498736**2&#45;&gt;5771498736 -->
<g id="edge8" class="edge">
<title>5771498736**2&#45;&gt;5771498736</title>
<path fill="none" stroke="black" d="M1497.45,-180.24C1505.25,-180.46 1514.26,-180.72 1523.74,-180.98"/>
<polygon fill="black" stroke="black" points="1523.43,-184.47 1533.52,-181.26 1523.62,-177.48 1523.43,-184.47"/>
</g>
<!-- 5771521328 -->
<g id="node22" class="node">
<title>5771521328</title>
<polygon fill="none" stroke="black" points="645.38,-96.5 645.38,-132.5 806.62,-132.5 806.62,-96.5 645.38,-96.5"/>
<text text-anchor="middle" x="656.75" y="-109.7" font-family="Times,serif" font-size="14.00">b</text>
<polyline fill="none" stroke="black" points="668.12,-97 668.12,-132.5"/>
<text text-anchor="middle" x="694.88" y="-109.7" font-family="Times,serif" font-size="14.00">6.8814</text>
<polyline fill="none" stroke="black" points="721.62,-97 721.62,-132.5"/>
<text text-anchor="middle" x="764.12" y="-109.7" font-family="Times,serif" font-size="14.00">grad: 0.0000</text>
</g>
<!-- 5771501136+ -->
<g id="node27" class="node">
<title>5771501136+</title>
<ellipse fill="none" stroke="black" cx="898.5" cy="-141.5" rx="27" ry="18"/>
<text text-anchor="middle" x="898.5" y="-136.45" font-family="Times,serif" font-size="14.00">+</text>
</g>
<!-- 5771521328&#45;&gt;5771501136+ -->
<g id="edge19" class="edge">
<title>5771521328&#45;&gt;5771501136+</title>
<path fill="none" stroke="black" d="M806.76,-127.13C825.73,-130.13 845.06,-133.2 860.98,-135.72"/>
<polygon fill="black" stroke="black" points="860,-139.1 870.42,-137.21 861.09,-132.19 860,-139.1"/>
</g>
<!-- 5771447744 -->
<g id="node23" class="node">
<title>5771447744</title>
<polygon fill="none" stroke="black" points="1533,-110.5 1533,-146.5 1695.75,-146.5 1695.75,-110.5 1533,-110.5"/>
<text text-anchor="middle" x="1542.88" y="-123.7" font-family="Times,serif" font-size="14.00"> </text>
<polyline fill="none" stroke="black" points="1552.75,-111 1552.75,-146.5"/>
<text text-anchor="middle" x="1581.75" y="-123.7" font-family="Times,serif" font-size="14.00">&#45;1.0000</text>
<polyline fill="none" stroke="black" points="1610.75,-111 1610.75,-146.5"/>
<text text-anchor="middle" x="1653.25" y="-123.7" font-family="Times,serif" font-size="14.00">grad: 0.1464</text>
</g>
<!-- 5771447744&#45;&gt;5771444768+ -->
<g id="edge24" class="edge">
<title>5771447744&#45;&gt;5771444768+</title>
<path fill="none" stroke="black" d="M1696.13,-128.5C1704.35,-128.5 1712.4,-128.5 1719.82,-128.5"/>
<polygon fill="black" stroke="black" points="1719.77,-132 1729.77,-128.5 1719.77,-125 1719.77,-132"/>
</g>
<!-- 5771521520 -->
<g id="node24" class="node">
<title>5771521520</title>
<polygon fill="none" stroke="black" points="616.5,-151.5 616.5,-187.5 835.5,-187.5 835.5,-151.5 616.5,-151.5"/>
<text text-anchor="middle" x="654.5" y="-164.7" font-family="Times,serif" font-size="14.00">w0x0w1x1</text>
<polyline fill="none" stroke="black" points="692.5,-152 692.5,-187.5"/>
<text text-anchor="middle" x="721.5" y="-164.7" font-family="Times,serif" font-size="14.00">&#45;6.0000</text>
<polyline fill="none" stroke="black" points="750.5,-152 750.5,-187.5"/>
<text text-anchor="middle" x="793" y="-164.7" font-family="Times,serif" font-size="14.00">grad: 0.0000</text>
</g>
<!-- 5771521520&#45;&gt;5771501136+ -->
<g id="edge13" class="edge">
<title>5771521520&#45;&gt;5771501136+</title>
<path fill="none" stroke="black" d="M835.95,-151.61C844.68,-150.17 853.06,-148.8 860.67,-147.55"/>
<polygon fill="black" stroke="black" points="861.13,-151.02 870.43,-145.94 860,-144.11 861.13,-151.02"/>
</g>
<!-- 5771521520+&#45;&gt;5771521520 -->
<g id="edge9" class="edge">
<title>5771521520+&#45;&gt;5771521520</title>
<path fill="none" stroke="black" d="M580.77,-169.5C587.86,-169.5 596.02,-169.5 604.78,-169.5"/>
<polygon fill="black" stroke="black" points="604.64,-173 614.64,-169.5 604.64,-166 604.64,-173"/>
</g>
<!-- 5771501136 -->
<g id="node26" class="node">
<title>5771501136</title>
<polygon fill="none" stroke="black" points="961.5,-123.5 961.5,-159.5 1122.75,-159.5 1122.75,-123.5 961.5,-123.5"/>
<text text-anchor="middle" x="972.88" y="-136.7" font-family="Times,serif" font-size="14.00">n</text>
<polyline fill="none" stroke="black" points="984.25,-124 984.25,-159.5"/>
<text text-anchor="middle" x="1011" y="-136.7" font-family="Times,serif" font-size="14.00">0.8814</text>
<polyline fill="none" stroke="black" points="1037.75,-124 1037.75,-159.5"/>
<text text-anchor="middle" x="1080.25" y="-136.7" font-family="Times,serif" font-size="14.00">grad: 0.0000</text>
</g>
<!-- 5771501136&#45;&gt;5771497728e -->
<g id="edge20" class="edge">
<title>5771501136&#45;&gt;5771497728e</title>
<path fill="none" stroke="black" d="M1123.04,-158.99C1131.98,-160.95 1140.72,-162.86 1148.68,-164.61"/>
<polygon fill="black" stroke="black" points="1147.73,-167.98 1158.24,-166.7 1149.22,-161.14 1147.73,-167.98"/>
</g>
<!-- 5771448032e -->
<g id="node29" class="node">
<title>5771448032e</title>
<ellipse fill="none" stroke="black" cx="1185.75" cy="-114.5" rx="27" ry="18"/>
<text text-anchor="middle" x="1185.75" y="-109.45" font-family="Times,serif" font-size="14.00">e</text>
</g>
<!-- 5771501136&#45;&gt;5771448032e -->
<g id="edge26" class="edge">
<title>5771501136&#45;&gt;5771448032e</title>
<path fill="none" stroke="black" d="M1123.04,-126.26C1131.79,-124.6 1140.35,-122.96 1148.18,-121.47"/>
<polygon fill="black" stroke="black" points="1148.77,-124.92 1157.94,-119.61 1147.46,-118.05 1148.77,-124.92"/>
</g>
<!-- 5771501136+&#45;&gt;5771501136 -->
<g id="edge10" class="edge">
<title>5771501136+&#45;&gt;5771501136</title>
<path fill="none" stroke="black" d="M925.81,-141.5C932.93,-141.5 941.05,-141.5 949.63,-141.5"/>
<polygon fill="black" stroke="black" points="949.59,-145 959.59,-141.5 949.59,-138 949.59,-145"/>
</g>
<!-- 5771448032 -->
<g id="node28" class="node">
<title>5771448032</title>
<polygon fill="none" stroke="black" points="1248.75,-96.5 1248.75,-132.5 1407,-132.5 1407,-96.5 1248.75,-96.5"/>
<text text-anchor="middle" x="1258.62" y="-109.7" font-family="Times,serif" font-size="14.00"> </text>
<polyline fill="none" stroke="black" points="1268.5,-97 1268.5,-132.5"/>
<text text-anchor="middle" x="1295.25" y="-109.7" font-family="Times,serif" font-size="14.00">2.4142</text>
<polyline fill="none" stroke="black" points="1322,-97 1322,-132.5"/>
<text text-anchor="middle" x="1364.5" y="-109.7" font-family="Times,serif" font-size="14.00">grad: 0.0000</text>
</g>
<!-- 5771448128**2 -->
<g id="node31" class="node">
<title>5771448128**2</title>
<ellipse fill="none" stroke="black" cx="1470" cy="-87.5" rx="27" ry="18"/>
<text text-anchor="middle" x="1470" y="-82.45" font-family="Times,serif" font-size="14.00">**2</text>
</g>
<!-- 5771448032&#45;&gt;5771448128**2 -->
<g id="edge31" class="edge">
<title>5771448032&#45;&gt;5771448128**2</title>
<path fill="none" stroke="black" d="M1407.13,-99.42C1415.87,-97.74 1424.44,-96.09 1432.29,-94.57"/>
<polygon fill="black" stroke="black" points="1432.92,-98.02 1442.07,-92.69 1431.59,-91.14 1432.92,-98.02"/>
</g>
<!-- 5771448032e&#45;&gt;5771448032 -->
<g id="edge11" class="edge">
<title>5771448032e&#45;&gt;5771448032</title>
<path fill="none" stroke="black" d="M1213.11,-114.5C1220.22,-114.5 1228.33,-114.5 1236.87,-114.5"/>
<polygon fill="black" stroke="black" points="1236.79,-118 1246.79,-114.5 1236.79,-111 1236.79,-118"/>
</g>
<!-- 5771448128 -->
<g id="node30" class="node">
<title>5771448128</title>
<polygon fill="none" stroke="black" points="1535.25,-55.5 1535.25,-91.5 1693.5,-91.5 1693.5,-55.5 1535.25,-55.5"/>
<text text-anchor="middle" x="1545.12" y="-68.7" font-family="Times,serif" font-size="14.00"> </text>
<polyline fill="none" stroke="black" points="1555,-56 1555,-91.5"/>
<text text-anchor="middle" x="1581.75" y="-68.7" font-family="Times,serif" font-size="14.00">5.8285</text>
<polyline fill="none" stroke="black" points="1608.5,-56 1608.5,-91.5"/>
<text text-anchor="middle" x="1651" y="-68.7" font-family="Times,serif" font-size="14.00">grad: 0.0000</text>
</g>
<!-- 5771448128&#45;&gt;5771447456+ -->
<g id="edge23" class="edge">
<title>5771448128&#45;&gt;5771447456+</title>
<path fill="none" stroke="black" d="M1693.64,-73.5C1702.76,-73.5 1711.72,-73.5 1719.92,-73.5"/>
<polygon fill="black" stroke="black" points="1719.8,-77 1729.8,-73.5 1719.8,-70 1719.8,-77"/>
</g>
<!-- 5771448128**2&#45;&gt;5771448128 -->
<g id="edge12" class="edge">
<title>5771448128**2&#45;&gt;5771448128</title>
<path fill="none" stroke="black" d="M1497.11,-84.93C1504.96,-84.16 1514.05,-83.27 1523.62,-82.33"/>
<polygon fill="black" stroke="black" points="1523.91,-85.81 1533.52,-81.35 1523.23,-78.85 1523.91,-85.81"/>
</g>
</g>
</svg>
