<?xml version="1.0" encoding="UTF-8" standalone="no"?>
<!DOCTYPE svg PUBLIC "-//W3C//DTD SVG 1.1//EN"
 "http://www.w3.org/Graphics/SVG/1.1/DTD/svg11.dtd">
<!-- Generated by graphviz version 10.0.1 (20240210.2158)
 -->
<!-- Pages: 1 -->
<svg width="1059pt" height="128pt"
 viewBox="0.00 0.00 1058.75 128.00" xmlns="http://www.w3.org/2000/svg" xmlns:xlink="http://www.w3.org/1999/xlink">
<g id="graph0" class="graph" transform="scale(1 1) rotate(0) translate(4 124)">
<polygon fill="white" stroke="none" points="-4,4 -4,-124 1054.75,-124 1054.75,4 -4,4"/>
<!-- 6045006864 -->
<g id="node1" class="node">
<title>6045006864</title>
<polygon fill="none" stroke="black" points="592.5,-27.5 592.5,-63.5 757.5,-63.5 757.5,-27.5 592.5,-27.5"/>
<text text-anchor="middle" x="603.5" y="-40.7" font-family="Times,serif" font-size="14.00">e</text>
<polyline fill="none" stroke="black" points="614.5,-28 614.5,-63.5"/>
<text text-anchor="middle" x="641.25" y="-40.7" font-family="Times,serif" font-size="14.00">3.7176</text>
<polyline fill="none" stroke="black" points="668,-28 668,-63.5"/>
<text text-anchor="middle" x="712.75" y="-40.7" font-family="Times,serif" font-size="14.00">grad: &#45;2.0000</text>
</g>
<!-- 6045004032* -->
<g id="node6" class="node">
<title>6045004032*</title>
<ellipse fill="none" stroke="black" cx="820.5" cy="-72.5" rx="27" ry="18"/>
<text text-anchor="middle" x="820.5" y="-67.45" font-family="Times,serif" font-size="14.00">*</text>
</g>
<!-- 6045006864&#45;&gt;6045004032* -->
<g id="edge7" class="edge">
<title>6045006864&#45;&gt;6045004032*</title>
<path fill="none" stroke="black" d="M757.81,-60.89C766.59,-62.54 775.16,-64.16 782.99,-65.63"/>
<polygon fill="black" stroke="black" points="782.26,-69.06 792.74,-67.46 783.56,-62.18 782.26,-69.06"/>
</g>
<!-- 6045006864+ -->
<g id="node2" class="node">
<title>6045006864+</title>
<ellipse fill="none" stroke="black" cx="529.5" cy="-45.5" rx="27" ry="18"/>
<text text-anchor="middle" x="529.5" y="-40.45" font-family="Times,serif" font-size="14.00">+</text>
</g>
<!-- 6045006864+&#45;&gt;6045006864 -->
<g id="edge1" class="edge">
<title>6045006864+&#45;&gt;6045006864</title>
<path fill="none" stroke="black" d="M556.82,-45.5C563.91,-45.5 572,-45.5 580.55,-45.5"/>
<polygon fill="black" stroke="black" points="580.49,-49 590.49,-45.5 580.49,-42 580.49,-49"/>
</g>
<!-- 6045006432 -->
<g id="node3" class="node">
<title>6045006432</title>
<polygon fill="none" stroke="black" points="4.88,-83.5 4.88,-119.5 165.38,-119.5 165.38,-83.5 4.88,-83.5"/>
<text text-anchor="middle" x="15.88" y="-96.7" font-family="Times,serif" font-size="14.00">a</text>
<polyline fill="none" stroke="black" points="26.88,-84 26.88,-119.5"/>
<text text-anchor="middle" x="53.62" y="-96.7" font-family="Times,serif" font-size="14.00">2.0600</text>
<polyline fill="none" stroke="black" points="80.38,-84 80.38,-119.5"/>
<text text-anchor="middle" x="122.88" y="-96.7" font-family="Times,serif" font-size="14.00">grad: 6.0000</text>
</g>
<!-- 5770914112* -->
<g id="node8" class="node">
<title>5770914112*</title>
<ellipse fill="none" stroke="black" cx="233.25" cy="-73.5" rx="27" ry="18"/>
<text text-anchor="middle" x="233.25" y="-68.45" font-family="Times,serif" font-size="14.00">*</text>
</g>
<!-- 6045006432&#45;&gt;5770914112* -->
<g id="edge4" class="edge">
<title>6045006432&#45;&gt;5770914112*</title>
<path fill="none" stroke="black" d="M165.6,-86.27C176.14,-84.25 186.51,-82.26 195.8,-80.48"/>
<polygon fill="black" stroke="black" points="196.29,-83.95 205.46,-78.63 194.98,-77.08 196.29,-83.95"/>
</g>
<!-- 6045005424 -->
<g id="node4" class="node">
<title>6045005424</title>
<polygon fill="none" stroke="black" points="0,-28.5 0,-64.5 170.25,-64.5 170.25,-28.5 0,-28.5"/>
<text text-anchor="middle" x="11.38" y="-41.7" font-family="Times,serif" font-size="14.00">b</text>
<polyline fill="none" stroke="black" points="22.75,-29 22.75,-64.5"/>
<text text-anchor="middle" x="51.75" y="-41.7" font-family="Times,serif" font-size="14.00">&#45;3.0400</text>
<polyline fill="none" stroke="black" points="80.75,-29 80.75,-64.5"/>
<text text-anchor="middle" x="125.5" y="-41.7" font-family="Times,serif" font-size="14.00">grad: &#45;4.0000</text>
</g>
<!-- 6045005424&#45;&gt;5770914112* -->
<g id="edge6" class="edge">
<title>6045005424&#45;&gt;5770914112*</title>
<path fill="none" stroke="black" d="M170.7,-62.13C179.42,-63.74 187.91,-65.31 195.67,-66.74"/>
<polygon fill="black" stroke="black" points="194.85,-70.15 205.32,-68.52 196.12,-63.27 194.85,-70.15"/>
</g>
<!-- 6045004032 -->
<g id="node5" class="node">
<title>6045004032</title>
<polygon fill="none" stroke="black" points="883.5,-54.5 883.5,-90.5 1050.75,-90.5 1050.75,-54.5 883.5,-54.5"/>
<text text-anchor="middle" x="895.62" y="-67.7" font-family="Times,serif" font-size="14.00">L</text>
<polyline fill="none" stroke="black" points="907.75,-55 907.75,-90.5"/>
<text text-anchor="middle" x="936.75" y="-67.7" font-family="Times,serif" font-size="14.00">&#45;7.2865</text>
<polyline fill="none" stroke="black" points="965.75,-55 965.75,-90.5"/>
<text text-anchor="middle" x="1008.25" y="-67.7" font-family="Times,serif" font-size="14.00">grad: 1.0000</text>
</g>
<!-- 6045004032*&#45;&gt;6045004032 -->
<g id="edge2" class="edge">
<title>6045004032*&#45;&gt;6045004032</title>
<path fill="none" stroke="black" d="M847.69,-72.5C854.9,-72.5 863.16,-72.5 871.9,-72.5"/>
<polygon fill="black" stroke="black" points="871.65,-76 881.65,-72.5 871.65,-69 871.65,-76"/>
</g>
<!-- 5770914112 -->
<g id="node7" class="node">
<title>5770914112</title>
<polygon fill="none" stroke="black" points="296.25,-55.5 296.25,-91.5 466.5,-91.5 466.5,-55.5 296.25,-55.5"/>
<text text-anchor="middle" x="307.62" y="-68.7" font-family="Times,serif" font-size="14.00">d</text>
<polyline fill="none" stroke="black" points="319,-56 319,-91.5"/>
<text text-anchor="middle" x="348" y="-68.7" font-family="Times,serif" font-size="14.00">&#45;6.2624</text>
<polyline fill="none" stroke="black" points="377,-56 377,-91.5"/>
<text text-anchor="middle" x="421.75" y="-68.7" font-family="Times,serif" font-size="14.00">grad: &#45;2.0000</text>
</g>
<!-- 5770914112&#45;&gt;6045006864+ -->
<g id="edge9" class="edge">
<title>5770914112&#45;&gt;6045006864+</title>
<path fill="none" stroke="black" d="M466.95,-57.29C475.67,-55.62 484.16,-54 491.92,-52.51"/>
<polygon fill="black" stroke="black" points="492.41,-55.98 501.57,-50.66 491.09,-49.1 492.41,-55.98"/>
</g>
<!-- 5770914112*&#45;&gt;5770914112 -->
<g id="edge3" class="edge">
<title>5770914112*&#45;&gt;5770914112</title>
<path fill="none" stroke="black" d="M260.71,-73.5C267.8,-73.5 275.9,-73.5 284.46,-73.5"/>
<polygon fill="black" stroke="black" points="284.43,-77 294.43,-73.5 284.43,-70 284.43,-77"/>
</g>
<!-- 6045007728 -->
<g id="node9" class="node">
<title>6045007728</title>
<polygon fill="none" stroke="black" points="593.25,-82.5 593.25,-118.5 756.75,-118.5 756.75,-82.5 593.25,-82.5"/>
<text text-anchor="middle" x="603.5" y="-95.7" font-family="Times,serif" font-size="14.00">f</text>
<polyline fill="none" stroke="black" points="613.75,-83 613.75,-118.5"/>
<text text-anchor="middle" x="642.75" y="-95.7" font-family="Times,serif" font-size="14.00">&#45;1.9600</text>
<polyline fill="none" stroke="black" points="671.75,-83 671.75,-118.5"/>
<text text-anchor="middle" x="714.25" y="-95.7" font-family="Times,serif" font-size="14.00">grad: 4.0000</text>
</g>
<!-- 6045007728&#45;&gt;6045004032* -->
<g id="edge8" class="edge">
<title>6045007728&#45;&gt;6045004032*</title>
<path fill="none" stroke="black" d="M756.98,-84.7C766.03,-82.93 774.89,-81.2 782.95,-79.63"/>
<polygon fill="black" stroke="black" points="783.51,-83.09 792.65,-77.74 782.17,-76.22 783.51,-83.09"/>
</g>
<!-- 6045006288 -->
<g id="node10" class="node">
<title>6045006288</title>
<polygon fill="none" stroke="black" points="298.88,-0.5 298.88,-36.5 463.88,-36.5 463.88,-0.5 298.88,-0.5"/>
<text text-anchor="middle" x="309.88" y="-13.7" font-family="Times,serif" font-size="14.00">c</text>
<polyline fill="none" stroke="black" points="320.88,-1 320.88,-36.5"/>
<text text-anchor="middle" x="347.62" y="-13.7" font-family="Times,serif" font-size="14.00">9.9800</text>
<polyline fill="none" stroke="black" points="374.38,-1 374.38,-36.5"/>
<text text-anchor="middle" x="419.12" y="-13.7" font-family="Times,serif" font-size="14.00">grad: &#45;2.0000</text>
</g>
<!-- 6045006288&#45;&gt;6045006864+ -->
<g id="edge5" class="edge">
<title>6045006288&#45;&gt;6045006864+</title>
<path fill="none" stroke="black" d="M463.98,-33.58C473.78,-35.39 483.37,-37.16 492.03,-38.76"/>
<polygon fill="black" stroke="black" points="491.25,-42.18 501.72,-40.55 492.52,-35.29 491.25,-42.18"/>
</g>
</g>
</svg>
