<?xml version="1.0" encoding="UTF-8" standalone="no"?>
<!DOCTYPE svg PUBLIC "-//W3C//DTD SVG 1.1//EN"
 "http://www.w3.org/Graphics/SVG/1.1/DTD/svg11.dtd">
<!-- Generated by graphviz version 10.0.1 (20240210.2158)
 -->
<!-- Pages: 1 -->
<svg width="1060pt" height="128pt"
 viewBox="0.00 0.00 1060.25 128.00" xmlns="http://www.w3.org/2000/svg" xmlns:xlink="http://www.w3.org/1999/xlink">
<g id="graph0" class="graph" transform="scale(1 1) rotate(0) translate(4 124)">
<polygon fill="white" stroke="none" points="-4,4 -4,-124 1056.25,-124 1056.25,4 -4,4"/>
<!-- 6045006384 -->
<g id="node1" class="node">
<title>6045006384</title>
<polygon fill="none" stroke="black" points="594,-27.5 594,-63.5 759,-63.5 759,-27.5 594,-27.5"/>
<text text-anchor="middle" x="605" y="-40.7" font-family="Times,serif" font-size="14.00">e</text>
<polyline fill="none" stroke="black" points="616,-28 616,-63.5"/>
<text text-anchor="middle" x="642.75" y="-40.7" font-family="Times,serif" font-size="14.00">4.0000</text>
<polyline fill="none" stroke="black" points="669.5,-28 669.5,-63.5"/>
<text text-anchor="middle" x="714.25" y="-40.7" font-family="Times,serif" font-size="14.00">grad: &#45;2.0000</text>
</g>
<!-- 6047134048* -->
<g id="node8" class="node">
<title>6047134048*</title>
<ellipse fill="none" stroke="black" cx="822" cy="-72.5" rx="27" ry="18"/>
<text text-anchor="middle" x="822" y="-67.45" font-family="Times,serif" font-size="14.00">*</text>
</g>
<!-- 6045006384&#45;&gt;6047134048* -->
<g id="edge6" class="edge">
<title>6045006384&#45;&gt;6047134048*</title>
<path fill="none" stroke="black" d="M759.31,-60.89C768.09,-62.54 776.66,-64.16 784.49,-65.63"/>
<polygon fill="black" stroke="black" points="783.76,-69.06 794.24,-67.46 785.06,-62.18 783.76,-69.06"/>
</g>
<!-- 6045006384+ -->
<g id="node2" class="node">
<title>6045006384+</title>
<ellipse fill="none" stroke="black" cx="531" cy="-45.5" rx="27" ry="18"/>
<text text-anchor="middle" x="531" y="-40.45" font-family="Times,serif" font-size="14.00">+</text>
</g>
<!-- 6045006384+&#45;&gt;6045006384 -->
<g id="edge1" class="edge">
<title>6045006384+&#45;&gt;6045006384</title>
<path fill="none" stroke="black" d="M558.32,-45.5C565.41,-45.5 573.5,-45.5 582.05,-45.5"/>
<polygon fill="black" stroke="black" points="581.99,-49 591.99,-45.5 581.99,-42 581.99,-49"/>
</g>
<!-- 6045006432 -->
<g id="node3" class="node">
<title>6045006432</title>
<polygon fill="none" stroke="black" points="4.88,-83.5 4.88,-119.5 165.38,-119.5 165.38,-83.5 4.88,-83.5"/>
<text text-anchor="middle" x="15.88" y="-96.7" font-family="Times,serif" font-size="14.00">a</text>
<polyline fill="none" stroke="black" points="26.88,-84 26.88,-119.5"/>
<text text-anchor="middle" x="53.62" y="-96.7" font-family="Times,serif" font-size="14.00">2.0000</text>
<polyline fill="none" stroke="black" points="80.38,-84 80.38,-119.5"/>
<text text-anchor="middle" x="122.88" y="-96.7" font-family="Times,serif" font-size="14.00">grad: 6.0000</text>
</g>
<!-- 6045006576* -->
<g id="node6" class="node">
<title>6045006576*</title>
<ellipse fill="none" stroke="black" cx="233.25" cy="-73.5" rx="27" ry="18"/>
<text text-anchor="middle" x="233.25" y="-68.45" font-family="Times,serif" font-size="14.00">*</text>
</g>
<!-- 6045006432&#45;&gt;6045006576* -->
<g id="edge9" class="edge">
<title>6045006432&#45;&gt;6045006576*</title>
<path fill="none" stroke="black" d="M165.6,-86.27C176.14,-84.25 186.51,-82.26 195.8,-80.48"/>
<polygon fill="black" stroke="black" points="196.29,-83.95 205.46,-78.63 194.98,-77.08 196.29,-83.95"/>
</g>
<!-- 6045005424 -->
<g id="node4" class="node">
<title>6045005424</title>
<polygon fill="none" stroke="black" points="0,-28.5 0,-64.5 170.25,-64.5 170.25,-28.5 0,-28.5"/>
<text text-anchor="middle" x="11.38" y="-41.7" font-family="Times,serif" font-size="14.00">b</text>
<polyline fill="none" stroke="black" points="22.75,-29 22.75,-64.5"/>
<text text-anchor="middle" x="51.75" y="-41.7" font-family="Times,serif" font-size="14.00">&#45;3.0000</text>
<polyline fill="none" stroke="black" points="80.75,-29 80.75,-64.5"/>
<text text-anchor="middle" x="125.5" y="-41.7" font-family="Times,serif" font-size="14.00">grad: &#45;4.0000</text>
</g>
<!-- 6045005424&#45;&gt;6045006576* -->
<g id="edge5" class="edge">
<title>6045005424&#45;&gt;6045006576*</title>
<path fill="none" stroke="black" d="M170.7,-62.13C179.42,-63.74 187.91,-65.31 195.67,-66.74"/>
<polygon fill="black" stroke="black" points="194.85,-70.15 205.32,-68.52 196.12,-63.27 194.85,-70.15"/>
</g>
<!-- 6045006576 -->
<g id="node5" class="node">
<title>6045006576</title>
<polygon fill="none" stroke="black" points="297,-55.5 297,-91.5 467.25,-91.5 467.25,-55.5 297,-55.5"/>
<text text-anchor="middle" x="308.38" y="-68.7" font-family="Times,serif" font-size="14.00">d</text>
<polyline fill="none" stroke="black" points="319.75,-56 319.75,-91.5"/>
<text text-anchor="middle" x="348.75" y="-68.7" font-family="Times,serif" font-size="14.00">&#45;6.0000</text>
<polyline fill="none" stroke="black" points="377.75,-56 377.75,-91.5"/>
<text text-anchor="middle" x="422.5" y="-68.7" font-family="Times,serif" font-size="14.00">grad: &#45;2.0000</text>
</g>
<!-- 6045006576&#45;&gt;6045006384+ -->
<g id="edge8" class="edge">
<title>6045006576&#45;&gt;6045006384+</title>
<path fill="none" stroke="black" d="M467.71,-57.37C476.71,-55.66 485.48,-53.99 493.46,-52.47"/>
<polygon fill="black" stroke="black" points="493.87,-55.95 503.04,-50.64 492.56,-49.07 493.87,-55.95"/>
</g>
<!-- 6045006576*&#45;&gt;6045006576 -->
<g id="edge2" class="edge">
<title>6045006576*&#45;&gt;6045006576</title>
<path fill="none" stroke="black" d="M260.51,-73.5C267.82,-73.5 276.21,-73.5 285.09,-73.5"/>
<polygon fill="black" stroke="black" points="285.04,-77 295.04,-73.5 285.04,-70 285.04,-77"/>
</g>
<!-- 6047134048 -->
<g id="node7" class="node">
<title>6047134048</title>
<polygon fill="none" stroke="black" points="885,-54.5 885,-90.5 1052.25,-90.5 1052.25,-54.5 885,-54.5"/>
<text text-anchor="middle" x="897.12" y="-67.7" font-family="Times,serif" font-size="14.00">L</text>
<polyline fill="none" stroke="black" points="909.25,-55 909.25,-90.5"/>
<text text-anchor="middle" x="938.25" y="-67.7" font-family="Times,serif" font-size="14.00">&#45;8.0000</text>
<polyline fill="none" stroke="black" points="967.25,-55 967.25,-90.5"/>
<text text-anchor="middle" x="1009.75" y="-67.7" font-family="Times,serif" font-size="14.00">grad: 1.0000</text>
</g>
<!-- 6047134048*&#45;&gt;6047134048 -->
<g id="edge3" class="edge">
<title>6047134048*&#45;&gt;6047134048</title>
<path fill="none" stroke="black" d="M849.19,-72.5C856.4,-72.5 864.66,-72.5 873.4,-72.5"/>
<polygon fill="black" stroke="black" points="873.15,-76 883.15,-72.5 873.15,-69 873.15,-76"/>
</g>
<!-- 6045007728 -->
<g id="node9" class="node">
<title>6045007728</title>
<polygon fill="none" stroke="black" points="594.75,-82.5 594.75,-118.5 758.25,-118.5 758.25,-82.5 594.75,-82.5"/>
<text text-anchor="middle" x="605" y="-95.7" font-family="Times,serif" font-size="14.00">f</text>
<polyline fill="none" stroke="black" points="615.25,-83 615.25,-118.5"/>
<text text-anchor="middle" x="644.25" y="-95.7" font-family="Times,serif" font-size="14.00">&#45;2.0000</text>
<polyline fill="none" stroke="black" points="673.25,-83 673.25,-118.5"/>
<text text-anchor="middle" x="715.75" y="-95.7" font-family="Times,serif" font-size="14.00">grad: 4.0000</text>
</g>
<!-- 6045007728&#45;&gt;6047134048* -->
<g id="edge4" class="edge">
<title>6045007728&#45;&gt;6047134048*</title>
<path fill="none" stroke="black" d="M758.48,-84.7C767.53,-82.93 776.39,-81.2 784.45,-79.63"/>
<polygon fill="black" stroke="black" points="785.01,-83.09 794.15,-77.74 783.67,-76.22 785.01,-83.09"/>
</g>
<!-- 6045006288 -->
<g id="node10" class="node">
<title>6045006288</title>
<polygon fill="none" stroke="black" points="296.25,-0.5 296.25,-36.5 468,-36.5 468,-0.5 296.25,-0.5"/>
<text text-anchor="middle" x="307.25" y="-13.7" font-family="Times,serif" font-size="14.00">c</text>
<polyline fill="none" stroke="black" points="318.25,-1 318.25,-36.5"/>
<text text-anchor="middle" x="348.38" y="-13.7" font-family="Times,serif" font-size="14.00">10.0000</text>
<polyline fill="none" stroke="black" points="378.5,-1 378.5,-36.5"/>
<text text-anchor="middle" x="423.25" y="-13.7" font-family="Times,serif" font-size="14.00">grad: &#45;2.0000</text>
</g>
<!-- 6045006288&#45;&gt;6045006384+ -->
<g id="edge7" class="edge">
<title>6045006288&#45;&gt;6045006384+</title>
<path fill="none" stroke="black" d="M468.14,-34.13C476.9,-35.74 485.44,-37.31 493.23,-38.74"/>
<polygon fill="black" stroke="black" points="492.47,-42.16 502.94,-40.53 493.74,-35.27 492.47,-42.16"/>
</g>
</g>
</svg>
