<?xml version="1.0" encoding="UTF-8" standalone="no"?>
<!DOCTYPE svg PUBLIC "-//W3C//DTD SVG 1.1//EN"
 "http://www.w3.org/Graphics/SVG/1.1/DTD/svg11.dtd">
<!-- Generated by graphviz version 10.0.1 (20240210.2158)
 -->
<!-- Pages: 1 -->
<svg width="1050pt" height="154pt"
 viewBox="0.00 0.00 1049.75 154.00" xmlns="http://www.w3.org/2000/svg" xmlns:xlink="http://www.w3.org/1999/xlink">
<g id="graph0" class="graph" transform="scale(1 1) rotate(0) translate(4 150)">
<polygon fill="white" stroke="none" points="-4,4 -4,-150 1045.75,-150 1045.75,4 -4,4"/>
<!-- 5770912288 -->
<g id="node1" class="node">
<title>5770912288</title>
<polygon fill="none" stroke="black" points="585,-109.5 585,-145.5 748.5,-145.5 748.5,-109.5 585,-109.5"/>
<text text-anchor="middle" x="595.25" y="-122.7" font-family="Times,serif" font-size="14.00">f</text>
<polyline fill="none" stroke="black" points="605.5,-110 605.5,-145.5"/>
<text text-anchor="middle" x="634.5" y="-122.7" font-family="Times,serif" font-size="14.00">&#45;2.0000</text>
<polyline fill="none" stroke="black" points="663.5,-110 663.5,-145.5"/>
<text text-anchor="middle" x="706" y="-122.7" font-family="Times,serif" font-size="14.00">grad: 0.0000</text>
</g>
<!-- 5770913344* -->
<g id="node3" class="node">
<title>5770913344*</title>
<ellipse fill="none" stroke="black" cx="811.5" cy="-99.5" rx="27" ry="18"/>
<text text-anchor="middle" x="811.5" y="-94.45" font-family="Times,serif" font-size="14.00">*</text>
</g>
<!-- 5770912288&#45;&gt;5770913344* -->
<g id="edge4" class="edge">
<title>5770912288&#45;&gt;5770913344*</title>
<path fill="none" stroke="black" d="M748.72,-111.62C757.49,-109.9 766.07,-108.21 773.91,-106.68"/>
<polygon fill="black" stroke="black" points="774.54,-110.12 783.68,-104.76 773.19,-103.25 774.54,-110.12"/>
</g>
<!-- 5770913344 -->
<g id="node2" class="node">
<title>5770913344</title>
<polygon fill="none" stroke="black" points="874.5,-81.5 874.5,-117.5 1041.75,-117.5 1041.75,-81.5 874.5,-81.5"/>
<text text-anchor="middle" x="886.62" y="-94.7" font-family="Times,serif" font-size="14.00">L</text>
<polyline fill="none" stroke="black" points="898.75,-82 898.75,-117.5"/>
<text text-anchor="middle" x="927.75" y="-94.7" font-family="Times,serif" font-size="14.00">&#45;8.0000</text>
<polyline fill="none" stroke="black" points="956.75,-82 956.75,-117.5"/>
<text text-anchor="middle" x="999.25" y="-94.7" font-family="Times,serif" font-size="14.00">grad: 0.0000</text>
</g>
<!-- 5770913344*&#45;&gt;5770913344 -->
<g id="edge1" class="edge">
<title>5770913344*&#45;&gt;5770913344</title>
<path fill="none" stroke="black" d="M838.69,-99.5C845.9,-99.5 854.16,-99.5 862.9,-99.5"/>
<polygon fill="black" stroke="black" points="862.65,-103 872.65,-99.5 862.65,-96 862.65,-103"/>
</g>
<!-- 5770912864 -->
<g id="node4" class="node">
<title>5770912864</title>
<polygon fill="none" stroke="black" points="586.5,-54.5 586.5,-90.5 747,-90.5 747,-54.5 586.5,-54.5"/>
<text text-anchor="middle" x="597.5" y="-67.7" font-family="Times,serif" font-size="14.00">e</text>
<polyline fill="none" stroke="black" points="608.5,-55 608.5,-90.5"/>
<text text-anchor="middle" x="635.25" y="-67.7" font-family="Times,serif" font-size="14.00">4.0000</text>
<polyline fill="none" stroke="black" points="662,-55 662,-90.5"/>
<text text-anchor="middle" x="704.5" y="-67.7" font-family="Times,serif" font-size="14.00">grad: 0.0000</text>
</g>
<!-- 5770912864&#45;&gt;5770913344* -->
<g id="edge8" class="edge">
<title>5770912864&#45;&gt;5770913344*</title>
<path fill="none" stroke="black" d="M747.47,-87.58C756.76,-89.34 765.86,-91.06 774.13,-92.62"/>
<polygon fill="black" stroke="black" points="773.23,-96.01 783.7,-94.43 774.53,-89.13 773.23,-96.01"/>
</g>
<!-- 5770912864+ -->
<g id="node5" class="node">
<title>5770912864+</title>
<ellipse fill="none" stroke="black" cx="522" cy="-72.5" rx="27" ry="18"/>
<text text-anchor="middle" x="522" y="-67.45" font-family="Times,serif" font-size="14.00">+</text>
</g>
<!-- 5770912864+&#45;&gt;5770912864 -->
<g id="edge2" class="edge">
<title>5770912864+&#45;&gt;5770912864</title>
<path fill="none" stroke="black" d="M549.18,-72.5C556.79,-72.5 565.57,-72.5 574.82,-72.5"/>
<polygon fill="black" stroke="black" points="574.78,-76 584.78,-72.5 574.78,-69 574.78,-76"/>
</g>
<!-- 5770913584 -->
<g id="node6" class="node">
<title>5770913584</title>
<polygon fill="none" stroke="black" points="291.75,-82.5 291.75,-118.5 459,-118.5 459,-82.5 291.75,-82.5"/>
<text text-anchor="middle" x="302.75" y="-95.7" font-family="Times,serif" font-size="14.00">c</text>
<polyline fill="none" stroke="black" points="313.75,-83 313.75,-118.5"/>
<text text-anchor="middle" x="343.88" y="-95.7" font-family="Times,serif" font-size="14.00">10.0000</text>
<polyline fill="none" stroke="black" points="374,-83 374,-118.5"/>
<text text-anchor="middle" x="416.5" y="-95.7" font-family="Times,serif" font-size="14.00">grad: 0.0000</text>
</g>
<!-- 5770913584&#45;&gt;5770912864+ -->
<g id="edge5" class="edge">
<title>5770913584&#45;&gt;5770912864+</title>
<path fill="none" stroke="black" d="M459.25,-84.46C468.05,-82.75 476.64,-81.09 484.47,-79.57"/>
<polygon fill="black" stroke="black" points="485.09,-83.02 494.24,-77.68 483.76,-76.15 485.09,-83.02"/>
</g>
<!-- 5770913632 -->
<g id="node7" class="node">
<title>5770913632</title>
<polygon fill="none" stroke="black" points="292.5,-27.5 292.5,-63.5 458.25,-63.5 458.25,-27.5 292.5,-27.5"/>
<text text-anchor="middle" x="303.88" y="-40.7" font-family="Times,serif" font-size="14.00">d</text>
<polyline fill="none" stroke="black" points="315.25,-28 315.25,-63.5"/>
<text text-anchor="middle" x="344.25" y="-40.7" font-family="Times,serif" font-size="14.00">&#45;6.0000</text>
<polyline fill="none" stroke="black" points="373.25,-28 373.25,-63.5"/>
<text text-anchor="middle" x="415.75" y="-40.7" font-family="Times,serif" font-size="14.00">grad: 0.0000</text>
</g>
<!-- 5770913632&#45;&gt;5770912864+ -->
<g id="edge9" class="edge">
<title>5770913632&#45;&gt;5770912864+</title>
<path fill="none" stroke="black" d="M458.41,-60.81C467.49,-62.51 476.36,-64.17 484.44,-65.67"/>
<polygon fill="black" stroke="black" points="483.67,-69.09 494.15,-67.49 484.96,-62.21 483.67,-69.09"/>
</g>
<!-- 5770913632* -->
<g id="node8" class="node">
<title>5770913632*</title>
<ellipse fill="none" stroke="black" cx="228.75" cy="-45.5" rx="27" ry="18"/>
<text text-anchor="middle" x="228.75" y="-40.45" font-family="Times,serif" font-size="14.00">*</text>
</g>
<!-- 5770913632*&#45;&gt;5770913632 -->
<g id="edge3" class="edge">
<title>5770913632*&#45;&gt;5770913632</title>
<path fill="none" stroke="black" d="M255.94,-45.5C263.27,-45.5 271.68,-45.5 280.56,-45.5"/>
<polygon fill="black" stroke="black" points="280.51,-49 290.51,-45.5 280.51,-42 280.51,-49"/>
</g>
<!-- 5770913680 -->
<g id="node9" class="node">
<title>5770913680</title>
<polygon fill="none" stroke="black" points="2.62,-55.5 2.62,-91.5 163.12,-91.5 163.12,-55.5 2.62,-55.5"/>
<text text-anchor="middle" x="13.62" y="-68.7" font-family="Times,serif" font-size="14.00">a</text>
<polyline fill="none" stroke="black" points="24.62,-56 24.62,-91.5"/>
<text text-anchor="middle" x="51.38" y="-68.7" font-family="Times,serif" font-size="14.00">2.0000</text>
<polyline fill="none" stroke="black" points="78.12,-56 78.12,-91.5"/>
<text text-anchor="middle" x="120.62" y="-68.7" font-family="Times,serif" font-size="14.00">grad: 0.0000</text>
</g>
<!-- 5770913680&#45;&gt;5770913632* -->
<g id="edge7" class="edge">
<title>5770913680&#45;&gt;5770913632*</title>
<path fill="none" stroke="black" d="M163.39,-58.03C173.13,-56.13 182.68,-54.27 191.32,-52.59"/>
<polygon fill="black" stroke="black" points="191.84,-56.05 200.98,-50.71 190.5,-49.18 191.84,-56.05"/>
</g>
<!-- 5770813936 -->
<g id="node10" class="node">
<title>5770813936</title>
<polygon fill="none" stroke="black" points="0,-0.5 0,-36.5 165.75,-36.5 165.75,-0.5 0,-0.5"/>
<text text-anchor="middle" x="11.38" y="-13.7" font-family="Times,serif" font-size="14.00">b</text>
<polyline fill="none" stroke="black" points="22.75,-1 22.75,-36.5"/>
<text text-anchor="middle" x="51.75" y="-13.7" font-family="Times,serif" font-size="14.00">&#45;3.0000</text>
<polyline fill="none" stroke="black" points="80.75,-1 80.75,-36.5"/>
<text text-anchor="middle" x="123.25" y="-13.7" font-family="Times,serif" font-size="14.00">grad: 0.0000</text>
</g>
<!-- 5770813936&#45;&gt;5770913632* -->
<g id="edge6" class="edge">
<title>5770813936&#45;&gt;5770913632*</title>
<path fill="none" stroke="black" d="M165.9,-33.89C174.7,-35.54 183.29,-37.16 191.14,-38.63"/>
<polygon fill="black" stroke="black" points="190.45,-42.06 200.92,-40.47 191.74,-35.18 190.45,-42.06"/>
</g>
</g>
</svg>
