<?xml version="1.0" encoding="UTF-8" standalone="no"?>
<!DOCTYPE svg PUBLIC "-//W3C//DTD SVG 1.1//EN"
 "http://www.w3.org/Graphics/SVG/1.1/DTD/svg11.dtd">
<!-- Generated by graphviz version 10.0.1 (20240210.2158)
 -->
<!-- Pages: 1 -->
<svg width="2664pt" height="237pt"
 viewBox="0.00 0.00 2663.75 237.00" xmlns="http://www.w3.org/2000/svg" xmlns:xlink="http://www.w3.org/1999/xlink">
<g id="graph0" class="graph" transform="scale(1 1) rotate(0) translate(4 233)">
<polygon fill="white" stroke="none" points="-4,4 -4,-233 2659.75,-233 2659.75,4 -4,4"/>
<!-- 5771563072 -->
<g id="node1" class="node">
<title>5771563072</title>
<polygon fill="none" stroke="black" points="1535.25,-192.5 1535.25,-228.5 1693.5,-228.5 1693.5,-192.5 1535.25,-192.5"/>
<text text-anchor="middle" x="1545.12" y="-205.7" font-family="Times,serif" font-size="14.00"> </text>
<polyline fill="none" stroke="black" points="1555,-193 1555,-228.5"/>
<text text-anchor="middle" x="1581.75" y="-205.7" font-family="Times,serif" font-size="14.00">1.0000</text>
<polyline fill="none" stroke="black" points="1608.5,-193 1608.5,-228.5"/>
<text text-anchor="middle" x="1651" y="-205.7" font-family="Times,serif" font-size="14.00">grad: 0.0000</text>
</g>
<!-- 5771563120+ -->
<g id="node3" class="node">
<title>5771563120+</title>
<ellipse fill="none" stroke="black" cx="1758.75" cy="-155.5" rx="27" ry="18"/>
<text text-anchor="middle" x="1758.75" y="-150.45" font-family="Times,serif" font-size="14.00">+</text>
</g>
<!-- 5771563072&#45;&gt;5771563120+ -->
<g id="edge16" class="edge">
<title>5771563072&#45;&gt;5771563120+</title>
<path fill="none" stroke="black" d="M1672.71,-192.02C1680.5,-189.29 1688.35,-186.41 1695.75,-183.5 1705.65,-179.61 1716.27,-174.99 1725.86,-170.64"/>
<polygon fill="black" stroke="black" points="1727.18,-173.88 1734.8,-166.52 1724.25,-167.53 1727.18,-173.88"/>
</g>
<!-- 5771563120 -->
<g id="node2" class="node">
<title>5771563120</title>
<polygon fill="none" stroke="black" points="1821.75,-137.5 1821.75,-173.5 1980,-173.5 1980,-137.5 1821.75,-137.5"/>
<text text-anchor="middle" x="1831.62" y="-150.7" font-family="Times,serif" font-size="14.00"> </text>
<polyline fill="none" stroke="black" points="1841.5,-138 1841.5,-173.5"/>
<text text-anchor="middle" x="1868.25" y="-150.7" font-family="Times,serif" font-size="14.00">6.8285</text>
<polyline fill="none" stroke="black" points="1895,-138 1895,-173.5"/>
<text text-anchor="middle" x="1937.5" y="-150.7" font-family="Times,serif" font-size="14.00">grad: 0.0000</text>
</g>
<!-- 5771563360**&#45;1 -->
<g id="node7" class="node">
<title>5771563360**&#45;1</title>
<ellipse fill="none" stroke="black" cx="2095.12" cy="-155.5" rx="27.81" ry="18"/>
<text text-anchor="middle" x="2095.12" y="-150.45" font-family="Times,serif" font-size="14.00">**&#45;1</text>
</g>
<!-- 5771563120&#45;&gt;5771563360**&#45;1 -->
<g id="edge29" class="edge">
<title>5771563120&#45;&gt;5771563360**&#45;1</title>
<path fill="none" stroke="black" d="M1980.35,-155.5C2006.28,-155.5 2033.98,-155.5 2055.56,-155.5"/>
<polygon fill="black" stroke="black" points="2055.36,-159 2065.36,-155.5 2055.36,-152 2055.36,-159"/>
</g>
<!-- 5771563120+&#45;&gt;5771563120 -->
<g id="edge1" class="edge">
<title>5771563120+&#45;&gt;5771563120</title>
<path fill="none" stroke="black" d="M1786.11,-155.5C1793.22,-155.5 1801.33,-155.5 1809.87,-155.5"/>
<polygon fill="black" stroke="black" points="1809.79,-159 1819.79,-155.5 1809.79,-152 1809.79,-159"/>
</g>
<!-- 5771557184 -->
<g id="node4" class="node">
<title>5771557184</title>
<polygon fill="none" stroke="black" points="1535.25,-137.5 1535.25,-173.5 1693.5,-173.5 1693.5,-137.5 1535.25,-137.5"/>
<text text-anchor="middle" x="1545.12" y="-150.7" font-family="Times,serif" font-size="14.00"> </text>
<polyline fill="none" stroke="black" points="1555,-138 1555,-173.5"/>
<text text-anchor="middle" x="1581.75" y="-150.7" font-family="Times,serif" font-size="14.00">5.8285</text>
<polyline fill="none" stroke="black" points="1608.5,-138 1608.5,-173.5"/>
<text text-anchor="middle" x="1651" y="-150.7" font-family="Times,serif" font-size="14.00">grad: 0.0000</text>
</g>
<!-- 5771557184&#45;&gt;5771563120+ -->
<g id="edge20" class="edge">
<title>5771557184&#45;&gt;5771563120+</title>
<path fill="none" stroke="black" d="M1693.64,-155.5C1702.76,-155.5 1711.72,-155.5 1719.92,-155.5"/>
<polygon fill="black" stroke="black" points="1719.8,-159 1729.8,-155.5 1719.8,-152 1719.8,-159"/>
</g>
<!-- 5771557184**2 -->
<g id="node5" class="node">
<title>5771557184**2</title>
<ellipse fill="none" stroke="black" cx="1470" cy="-155.5" rx="27" ry="18"/>
<text text-anchor="middle" x="1470" y="-150.45" font-family="Times,serif" font-size="14.00">**2</text>
</g>
<!-- 5771557184**2&#45;&gt;5771557184 -->
<g id="edge2" class="edge">
<title>5771557184**2&#45;&gt;5771557184</title>
<path fill="none" stroke="black" d="M1497.45,-155.5C1505.25,-155.5 1514.26,-155.5 1523.74,-155.5"/>
<polygon fill="black" stroke="black" points="1523.52,-159 1533.52,-155.5 1523.52,-152 1523.52,-159"/>
</g>
<!-- 5771563360 -->
<g id="node6" class="node">
<title>5771563360</title>
<polygon fill="none" stroke="black" points="2210.25,-135.5 2210.25,-171.5 2368.5,-171.5 2368.5,-135.5 2210.25,-135.5"/>
<text text-anchor="middle" x="2220.12" y="-148.7" font-family="Times,serif" font-size="14.00"> </text>
<polyline fill="none" stroke="black" points="2230,-136 2230,-171.5"/>
<text text-anchor="middle" x="2256.75" y="-148.7" font-family="Times,serif" font-size="14.00">0.1464</text>
<polyline fill="none" stroke="black" points="2283.5,-136 2283.5,-171.5"/>
<text text-anchor="middle" x="2326" y="-148.7" font-family="Times,serif" font-size="14.00">grad: 0.0000</text>
</g>
<!-- 5771563552* -->
<g id="node13" class="node">
<title>5771563552*</title>
<ellipse fill="none" stroke="black" cx="2431.5" cy="-127.5" rx="27" ry="18"/>
<text text-anchor="middle" x="2431.5" y="-122.45" font-family="Times,serif" font-size="14.00">*</text>
</g>
<!-- 5771563360&#45;&gt;5771563552* -->
<g id="edge18" class="edge">
<title>5771563360&#45;&gt;5771563552*</title>
<path fill="none" stroke="black" d="M2368.63,-138.98C2377.37,-137.36 2385.94,-135.77 2393.79,-134.31"/>
<polygon fill="black" stroke="black" points="2394.38,-137.76 2403.57,-132.5 2393.1,-130.88 2394.38,-137.76"/>
</g>
<!-- 5771563360**&#45;1&#45;&gt;5771563360 -->
<g id="edge3" class="edge">
<title>5771563360**&#45;1&#45;&gt;5771563360</title>
<path fill="none" stroke="black" d="M2123.26,-155.22C2143.09,-155.01 2171.2,-154.72 2198.62,-154.43"/>
<polygon fill="black" stroke="black" points="2198.41,-157.94 2208.38,-154.33 2198.34,-150.94 2198.41,-157.94"/>
</g>
<!-- 5771448720 -->
<g id="node8" class="node">
<title>5771448720</title>
<polygon fill="none" stroke="black" points="3.75,-165.5 3.75,-201.5 171.75,-201.5 171.75,-165.5 3.75,-165.5"/>
<text text-anchor="middle" x="18.5" y="-178.7" font-family="Times,serif" font-size="14.00">x0</text>
<polyline fill="none" stroke="black" points="33.25,-166 33.25,-201.5"/>
<text text-anchor="middle" x="60" y="-178.7" font-family="Times,serif" font-size="14.00">2.0000</text>
<polyline fill="none" stroke="black" points="86.75,-166 86.75,-201.5"/>
<text text-anchor="middle" x="129.25" y="-178.7" font-family="Times,serif" font-size="14.00">grad: 0.0000</text>
</g>
<!-- 5771559888* -->
<g id="node17" class="node">
<title>5771559888*</title>
<ellipse fill="none" stroke="black" cx="238.5" cy="-128.5" rx="27" ry="18"/>
<text text-anchor="middle" x="238.5" y="-123.45" font-family="Times,serif" font-size="14.00">*</text>
</g>
<!-- 5771448720&#45;&gt;5771559888* -->
<g id="edge26" class="edge">
<title>5771448720&#45;&gt;5771559888*</title>
<path fill="none" stroke="black" d="M151.14,-165.09C159.39,-162.36 167.68,-159.47 175.5,-156.5 185.45,-152.72 196.07,-148.14 205.67,-143.78"/>
<polygon fill="black" stroke="black" points="206.99,-147.02 214.59,-139.64 204.05,-140.67 206.99,-147.02"/>
</g>
<!-- 5771448768 -->
<g id="node9" class="node">
<title>5771448768</title>
<polygon fill="none" stroke="black" points="0,-110.5 0,-146.5 175.5,-146.5 175.5,-110.5 0,-110.5"/>
<text text-anchor="middle" x="16.25" y="-123.7" font-family="Times,serif" font-size="14.00">w0</text>
<polyline fill="none" stroke="black" points="32.5,-111 32.5,-146.5"/>
<text text-anchor="middle" x="61.5" y="-123.7" font-family="Times,serif" font-size="14.00">&#45;3.0000</text>
<polyline fill="none" stroke="black" points="90.5,-111 90.5,-146.5"/>
<text text-anchor="middle" x="133" y="-123.7" font-family="Times,serif" font-size="14.00">grad: 0.0000</text>
</g>
<!-- 5771448768&#45;&gt;5771559888* -->
<g id="edge21" class="edge">
<title>5771448768&#45;&gt;5771559888*</title>
<path fill="none" stroke="black" d="M175.71,-128.5C184.04,-128.5 192.15,-128.5 199.61,-128.5"/>
<polygon fill="black" stroke="black" points="199.58,-132 209.58,-128.5 199.58,-125 199.58,-132"/>
</g>
<!-- 5771557376 -->
<g id="node10" class="node">
<title>5771557376</title>
<polygon fill="none" stroke="black" points="1248.75,-82.5 1248.75,-118.5 1407,-118.5 1407,-82.5 1248.75,-82.5"/>
<text text-anchor="middle" x="1258.62" y="-95.7" font-family="Times,serif" font-size="14.00"> </text>
<polyline fill="none" stroke="black" points="1268.5,-83 1268.5,-118.5"/>
<text text-anchor="middle" x="1295.25" y="-95.7" font-family="Times,serif" font-size="14.00">2.4142</text>
<polyline fill="none" stroke="black" points="1322,-83 1322,-118.5"/>
<text text-anchor="middle" x="1364.5" y="-95.7" font-family="Times,serif" font-size="14.00">grad: 0.0000</text>
</g>
<!-- 5771556272**2 -->
<g id="node26" class="node">
<title>5771556272**2</title>
<ellipse fill="none" stroke="black" cx="1470" cy="-100.5" rx="27" ry="18"/>
<text text-anchor="middle" x="1470" y="-95.45" font-family="Times,serif" font-size="14.00">**2</text>
</g>
<!-- 5771557376&#45;&gt;5771556272**2 -->
<g id="edge17" class="edge">
<title>5771557376&#45;&gt;5771556272**2</title>
<path fill="none" stroke="black" d="M1407.13,-100.5C1415.52,-100.5 1423.76,-100.5 1431.34,-100.5"/>
<polygon fill="black" stroke="black" points="1431.14,-104 1441.14,-100.5 1431.14,-97 1431.14,-104"/>
</g>
<!-- 5771557376e -->
<g id="node11" class="node">
<title>5771557376e</title>
<ellipse fill="none" stroke="black" cx="1185.75" cy="-100.5" rx="27" ry="18"/>
<text text-anchor="middle" x="1185.75" y="-95.45" font-family="Times,serif" font-size="14.00">e</text>
</g>
<!-- 5771557376e&#45;&gt;5771557376 -->
<g id="edge4" class="edge">
<title>5771557376e&#45;&gt;5771557376</title>
<path fill="none" stroke="black" d="M1213.11,-100.5C1220.22,-100.5 1228.33,-100.5 1236.87,-100.5"/>
<polygon fill="black" stroke="black" points="1236.79,-104 1246.79,-100.5 1236.79,-97 1236.79,-104"/>
</g>
<!-- 5771563552 -->
<g id="node12" class="node">
<title>5771563552</title>
<polygon fill="none" stroke="black" points="2494.5,-109.5 2494.5,-145.5 2655.75,-145.5 2655.75,-109.5 2494.5,-109.5"/>
<text text-anchor="middle" x="2505.88" y="-122.7" font-family="Times,serif" font-size="14.00">o</text>
<polyline fill="none" stroke="black" points="2517.25,-110 2517.25,-145.5"/>
<text text-anchor="middle" x="2544" y="-122.7" font-family="Times,serif" font-size="14.00">0.7071</text>
<polyline fill="none" stroke="black" points="2570.75,-110 2570.75,-145.5"/>
<text text-anchor="middle" x="2613.25" y="-122.7" font-family="Times,serif" font-size="14.00">grad: 0.0000</text>
</g>
<!-- 5771563552*&#45;&gt;5771563552 -->
<g id="edge5" class="edge">
<title>5771563552*&#45;&gt;5771563552</title>
<path fill="none" stroke="black" d="M2458.81,-127.5C2465.93,-127.5 2474.05,-127.5 2482.63,-127.5"/>
<polygon fill="black" stroke="black" points="2482.59,-131 2492.59,-127.5 2482.59,-124 2482.59,-131"/>
</g>
<!-- 5771450976 -->
<g id="node14" class="node">
<title>5771450976</title>
<polygon fill="none" stroke="black" points="645.38,-137.5 645.38,-173.5 806.62,-173.5 806.62,-137.5 645.38,-137.5"/>
<text text-anchor="middle" x="656.75" y="-150.7" font-family="Times,serif" font-size="14.00">b</text>
<polyline fill="none" stroke="black" points="668.12,-138 668.12,-173.5"/>
<text text-anchor="middle" x="694.88" y="-150.7" font-family="Times,serif" font-size="14.00">6.8814</text>
<polyline fill="none" stroke="black" points="721.62,-138 721.62,-173.5"/>
<text text-anchor="middle" x="764.12" y="-150.7" font-family="Times,serif" font-size="14.00">grad: 0.0000</text>
</g>
<!-- 5771556128+ -->
<g id="node22" class="node">
<title>5771556128+</title>
<ellipse fill="none" stroke="black" cx="898.5" cy="-127.5" rx="27" ry="18"/>
<text text-anchor="middle" x="898.5" y="-122.45" font-family="Times,serif" font-size="14.00">+</text>
</g>
<!-- 5771450976&#45;&gt;5771556128+ -->
<g id="edge27" class="edge">
<title>5771450976&#45;&gt;5771556128+</title>
<path fill="none" stroke="black" d="M806.76,-142.4C825.73,-139.29 845.06,-136.11 860.98,-133.5"/>
<polygon fill="black" stroke="black" points="861.12,-137.02 870.42,-131.95 859.99,-130.11 861.12,-137.02"/>
</g>
<!-- 5771451168 -->
<g id="node15" class="node">
<title>5771451168</title>
<polygon fill="none" stroke="black" points="2.25,-55.5 2.25,-91.5 173.25,-91.5 173.25,-55.5 2.25,-55.5"/>
<text text-anchor="middle" x="18.5" y="-68.7" font-family="Times,serif" font-size="14.00">w1</text>
<polyline fill="none" stroke="black" points="34.75,-56 34.75,-91.5"/>
<text text-anchor="middle" x="61.5" y="-68.7" font-family="Times,serif" font-size="14.00">1.0000</text>
<polyline fill="none" stroke="black" points="88.25,-56 88.25,-91.5"/>
<text text-anchor="middle" x="130.75" y="-68.7" font-family="Times,serif" font-size="14.00">grad: 0.0000</text>
</g>
<!-- 5771562432* -->
<g id="node28" class="node">
<title>5771562432*</title>
<ellipse fill="none" stroke="black" cx="238.5" cy="-73.5" rx="27" ry="18"/>
<text text-anchor="middle" x="238.5" y="-68.45" font-family="Times,serif" font-size="14.00">*</text>
</g>
<!-- 5771451168&#45;&gt;5771562432* -->
<g id="edge14" class="edge">
<title>5771451168&#45;&gt;5771562432*</title>
<path fill="none" stroke="black" d="M173.55,-73.5C182.76,-73.5 191.75,-73.5 199.94,-73.5"/>
<polygon fill="black" stroke="black" points="199.79,-77 209.79,-73.5 199.79,-70 199.79,-77"/>
</g>
<!-- 5771559888 -->
<g id="node16" class="node">
<title>5771559888</title>
<polygon fill="none" stroke="black" points="301.5,-110.5 301.5,-146.5 490.5,-146.5 490.5,-110.5 301.5,-110.5"/>
<text text-anchor="middle" x="324.5" y="-123.7" font-family="Times,serif" font-size="14.00">w0x0</text>
<polyline fill="none" stroke="black" points="347.5,-111 347.5,-146.5"/>
<text text-anchor="middle" x="376.5" y="-123.7" font-family="Times,serif" font-size="14.00">&#45;6.0000</text>
<polyline fill="none" stroke="black" points="405.5,-111 405.5,-146.5"/>
<text text-anchor="middle" x="448" y="-123.7" font-family="Times,serif" font-size="14.00">grad: 0.0000</text>
</g>
<!-- 5771555888+ -->
<g id="node19" class="node">
<title>5771555888+</title>
<ellipse fill="none" stroke="black" cx="553.5" cy="-100.5" rx="27" ry="18"/>
<text text-anchor="middle" x="553.5" y="-95.45" font-family="Times,serif" font-size="14.00">+</text>
</g>
<!-- 5771559888&#45;&gt;5771555888+ -->
<g id="edge28" class="edge">
<title>5771559888&#45;&gt;5771555888+</title>
<path fill="none" stroke="black" d="M490.6,-111.65C499.48,-110.05 508.08,-108.5 515.89,-107.09"/>
<polygon fill="black" stroke="black" points="516.38,-110.56 525.6,-105.34 515.14,-103.67 516.38,-110.56"/>
</g>
<!-- 5771559888*&#45;&gt;5771559888 -->
<g id="edge6" class="edge">
<title>5771559888*&#45;&gt;5771559888</title>
<path fill="none" stroke="black" d="M265.88,-128.5C273.01,-128.5 281.18,-128.5 289.87,-128.5"/>
<polygon fill="black" stroke="black" points="289.61,-132 299.61,-128.5 289.61,-125 289.61,-132"/>
</g>
<!-- 5771555888 -->
<g id="node18" class="node">
<title>5771555888</title>
<polygon fill="none" stroke="black" points="616.5,-82.5 616.5,-118.5 835.5,-118.5 835.5,-82.5 616.5,-82.5"/>
<text text-anchor="middle" x="654.5" y="-95.7" font-family="Times,serif" font-size="14.00">w0x0w1x1</text>
<polyline fill="none" stroke="black" points="692.5,-83 692.5,-118.5"/>
<text text-anchor="middle" x="721.5" y="-95.7" font-family="Times,serif" font-size="14.00">&#45;6.0000</text>
<polyline fill="none" stroke="black" points="750.5,-83 750.5,-118.5"/>
<text text-anchor="middle" x="793" y="-95.7" font-family="Times,serif" font-size="14.00">grad: 0.0000</text>
</g>
<!-- 5771555888&#45;&gt;5771556128+ -->
<g id="edge24" class="edge">
<title>5771555888&#45;&gt;5771556128+</title>
<path fill="none" stroke="black" d="M835.95,-117.75C844.68,-119.14 853.06,-120.46 860.67,-121.67"/>
<polygon fill="black" stroke="black" points="860.01,-125.11 870.43,-123.21 861.1,-118.19 860.01,-125.11"/>
</g>
<!-- 5771555888+&#45;&gt;5771555888 -->
<g id="edge7" class="edge">
<title>5771555888+&#45;&gt;5771555888</title>
<path fill="none" stroke="black" d="M580.77,-100.5C587.86,-100.5 596.02,-100.5 604.78,-100.5"/>
<polygon fill="black" stroke="black" points="604.64,-104 614.64,-100.5 604.64,-97 604.64,-104"/>
</g>
<!-- 5771556080 -->
<g id="node20" class="node">
<title>5771556080</title>
<polygon fill="none" stroke="black" points="1533,-27.5 1533,-63.5 1695.75,-63.5 1695.75,-27.5 1533,-27.5"/>
<text text-anchor="middle" x="1542.88" y="-40.7" font-family="Times,serif" font-size="14.00"> </text>
<polyline fill="none" stroke="black" points="1552.75,-28 1552.75,-63.5"/>
<text text-anchor="middle" x="1581.75" y="-40.7" font-family="Times,serif" font-size="14.00">&#45;1.0000</text>
<polyline fill="none" stroke="black" points="1610.75,-28 1610.75,-63.5"/>
<text text-anchor="middle" x="1653.25" y="-40.7" font-family="Times,serif" font-size="14.00">grad: 0.0000</text>
</g>
<!-- 5771558240+ -->
<g id="node24" class="node">
<title>5771558240+</title>
<ellipse fill="none" stroke="black" cx="1758.75" cy="-100.5" rx="27" ry="18"/>
<text text-anchor="middle" x="1758.75" y="-95.45" font-family="Times,serif" font-size="14.00">+</text>
</g>
<!-- 5771556080&#45;&gt;5771558240+ -->
<g id="edge30" class="edge">
<title>5771556080&#45;&gt;5771558240+</title>
<path fill="none" stroke="black" d="M1670.06,-63.93C1678.69,-67.02 1687.49,-70.27 1695.75,-73.5 1705.52,-77.32 1716.03,-81.77 1725.56,-85.93"/>
<polygon fill="black" stroke="black" points="1723.88,-89.02 1734.44,-89.86 1726.71,-82.61 1723.88,-89.02"/>
</g>
<!-- 5771556128 -->
<g id="node21" class="node">
<title>5771556128</title>
<polygon fill="none" stroke="black" points="961.5,-109.5 961.5,-145.5 1122.75,-145.5 1122.75,-109.5 961.5,-109.5"/>
<text text-anchor="middle" x="972.88" y="-122.7" font-family="Times,serif" font-size="14.00">n</text>
<polyline fill="none" stroke="black" points="984.25,-110 984.25,-145.5"/>
<text text-anchor="middle" x="1011" y="-122.7" font-family="Times,serif" font-size="14.00">0.8814</text>
<polyline fill="none" stroke="black" points="1037.75,-110 1037.75,-145.5"/>
<text text-anchor="middle" x="1080.25" y="-122.7" font-family="Times,serif" font-size="14.00">grad: 0.0000</text>
</g>
<!-- 5771556128&#45;&gt;5771557376e -->
<g id="edge15" class="edge">
<title>5771556128&#45;&gt;5771557376e</title>
<path fill="none" stroke="black" d="M1123.04,-112.26C1131.79,-110.6 1140.35,-108.96 1148.18,-107.47"/>
<polygon fill="black" stroke="black" points="1148.77,-110.92 1157.94,-105.61 1147.46,-104.05 1148.77,-110.92"/>
</g>
<!-- 5771556800e -->
<g id="node31" class="node">
<title>5771556800e</title>
<ellipse fill="none" stroke="black" cx="1185.75" cy="-154.5" rx="27" ry="18"/>
<text text-anchor="middle" x="1185.75" y="-149.45" font-family="Times,serif" font-size="14.00">e</text>
</g>
<!-- 5771556128&#45;&gt;5771556800e -->
<g id="edge31" class="edge">
<title>5771556128&#45;&gt;5771556800e</title>
<path fill="none" stroke="black" d="M1123.04,-142.74C1131.79,-144.4 1140.35,-146.04 1148.18,-147.53"/>
<polygon fill="black" stroke="black" points="1147.46,-150.95 1157.94,-149.39 1148.77,-144.08 1147.46,-150.95"/>
</g>
<!-- 5771556128+&#45;&gt;5771556128 -->
<g id="edge8" class="edge">
<title>5771556128+&#45;&gt;5771556128</title>
<path fill="none" stroke="black" d="M925.81,-127.5C932.93,-127.5 941.05,-127.5 949.63,-127.5"/>
<polygon fill="black" stroke="black" points="949.59,-131 959.59,-127.5 949.59,-124 949.59,-131"/>
</g>
<!-- 5771558240 -->
<g id="node23" class="node">
<title>5771558240</title>
<polygon fill="none" stroke="black" points="2016,-82.5 2016,-118.5 2174.25,-118.5 2174.25,-82.5 2016,-82.5"/>
<text text-anchor="middle" x="2025.88" y="-95.7" font-family="Times,serif" font-size="14.00"> </text>
<polyline fill="none" stroke="black" points="2035.75,-83 2035.75,-118.5"/>
<text text-anchor="middle" x="2062.5" y="-95.7" font-family="Times,serif" font-size="14.00">4.8285</text>
<polyline fill="none" stroke="black" points="2089.25,-83 2089.25,-118.5"/>
<text text-anchor="middle" x="2131.75" y="-95.7" font-family="Times,serif" font-size="14.00">grad: 0.0000</text>
</g>
<!-- 5771558240&#45;&gt;5771563552* -->
<g id="edge25" class="edge">
<title>5771558240&#45;&gt;5771563552*</title>
<path fill="none" stroke="black" d="M2174.52,-106.83C2243.29,-112.38 2340.29,-120.22 2392.94,-124.47"/>
<polygon fill="black" stroke="black" points="2392.64,-127.95 2402.89,-125.27 2393.21,-120.98 2392.64,-127.95"/>
</g>
<!-- 5771558240+&#45;&gt;5771558240 -->
<g id="edge9" class="edge">
<title>5771558240+&#45;&gt;5771558240</title>
<path fill="none" stroke="black" d="M1785.99,-100.5C1832.48,-100.5 1931.33,-100.5 2004.6,-100.5"/>
<polygon fill="black" stroke="black" points="2004.16,-104 2014.16,-100.5 2004.16,-97 2004.16,-104"/>
</g>
<!-- 5771556272 -->
<g id="node25" class="node">
<title>5771556272</title>
<polygon fill="none" stroke="black" points="1535.25,-82.5 1535.25,-118.5 1693.5,-118.5 1693.5,-82.5 1535.25,-82.5"/>
<text text-anchor="middle" x="1545.12" y="-95.7" font-family="Times,serif" font-size="14.00"> </text>
<polyline fill="none" stroke="black" points="1555,-83 1555,-118.5"/>
<text text-anchor="middle" x="1581.75" y="-95.7" font-family="Times,serif" font-size="14.00">5.8285</text>
<polyline fill="none" stroke="black" points="1608.5,-83 1608.5,-118.5"/>
<text text-anchor="middle" x="1651" y="-95.7" font-family="Times,serif" font-size="14.00">grad: 0.0000</text>
</g>
<!-- 5771556272&#45;&gt;5771558240+ -->
<g id="edge19" class="edge">
<title>5771556272&#45;&gt;5771558240+</title>
<path fill="none" stroke="black" d="M1693.64,-100.5C1702.76,-100.5 1711.72,-100.5 1719.92,-100.5"/>
<polygon fill="black" stroke="black" points="1719.8,-104 1729.8,-100.5 1719.8,-97 1719.8,-104"/>
</g>
<!-- 5771556272**2&#45;&gt;5771556272 -->
<g id="edge10" class="edge">
<title>5771556272**2&#45;&gt;5771556272</title>
<path fill="none" stroke="black" d="M1497.45,-100.5C1505.25,-100.5 1514.26,-100.5 1523.74,-100.5"/>
<polygon fill="black" stroke="black" points="1523.52,-104 1533.52,-100.5 1523.52,-97 1523.52,-104"/>
</g>
<!-- 5771562432 -->
<g id="node27" class="node">
<title>5771562432</title>
<polygon fill="none" stroke="black" points="303.75,-55.5 303.75,-91.5 488.25,-91.5 488.25,-55.5 303.75,-55.5"/>
<text text-anchor="middle" x="326.75" y="-68.7" font-family="Times,serif" font-size="14.00">w1x1</text>
<polyline fill="none" stroke="black" points="349.75,-56 349.75,-91.5"/>
<text text-anchor="middle" x="376.5" y="-68.7" font-family="Times,serif" font-size="14.00">0.0000</text>
<polyline fill="none" stroke="black" points="403.25,-56 403.25,-91.5"/>
<text text-anchor="middle" x="445.75" y="-68.7" font-family="Times,serif" font-size="14.00">grad: 0.0000</text>
</g>
<!-- 5771562432&#45;&gt;5771555888+ -->
<g id="edge23" class="edge">
<title>5771562432&#45;&gt;5771555888+</title>
<path fill="none" stroke="black" d="M488.35,-89.36C497.97,-91.03 507.3,-92.65 515.73,-94.12"/>
<polygon fill="black" stroke="black" points="515.04,-97.55 525.49,-95.81 516.24,-90.65 515.04,-97.55"/>
</g>
<!-- 5771562432*&#45;&gt;5771562432 -->
<g id="edge11" class="edge">
<title>5771562432*&#45;&gt;5771562432</title>
<path fill="none" stroke="black" d="M265.88,-73.5C273.6,-73.5 282.55,-73.5 292.06,-73.5"/>
<polygon fill="black" stroke="black" points="291.93,-77 301.93,-73.5 291.93,-70 291.93,-77"/>
</g>
<!-- 5771452176 -->
<g id="node29" class="node">
<title>5771452176</title>
<polygon fill="none" stroke="black" points="3.75,-0.5 3.75,-36.5 171.75,-36.5 171.75,-0.5 3.75,-0.5"/>
<text text-anchor="middle" x="18.5" y="-13.7" font-family="Times,serif" font-size="14.00">x1</text>
<polyline fill="none" stroke="black" points="33.25,-1 33.25,-36.5"/>
<text text-anchor="middle" x="60" y="-13.7" font-family="Times,serif" font-size="14.00">0.0000</text>
<polyline fill="none" stroke="black" points="86.75,-1 86.75,-36.5"/>
<text text-anchor="middle" x="129.25" y="-13.7" font-family="Times,serif" font-size="14.00">grad: 0.0000</text>
</g>
<!-- 5771452176&#45;&gt;5771562432* -->
<g id="edge22" class="edge">
<title>5771452176&#45;&gt;5771562432*</title>
<path fill="none" stroke="black" d="M151.14,-36.91C159.39,-39.64 167.68,-42.53 175.5,-45.5 185.45,-49.28 196.07,-53.86 205.67,-58.22"/>
<polygon fill="black" stroke="black" points="204.05,-61.33 214.59,-62.36 206.99,-54.98 204.05,-61.33"/>
</g>
<!-- 5771556800 -->
<g id="node30" class="node">
<title>5771556800</title>
<polygon fill="none" stroke="black" points="1248.75,-137.5 1248.75,-173.5 1407,-173.5 1407,-137.5 1248.75,-137.5"/>
<text text-anchor="middle" x="1258.62" y="-150.7" font-family="Times,serif" font-size="14.00"> </text>
<polyline fill="none" stroke="black" points="1268.5,-138 1268.5,-173.5"/>
<text text-anchor="middle" x="1295.25" y="-150.7" font-family="Times,serif" font-size="14.00">2.4142</text>
<polyline fill="none" stroke="black" points="1322,-138 1322,-173.5"/>
<text text-anchor="middle" x="1364.5" y="-150.7" font-family="Times,serif" font-size="14.00">grad: 0.0000</text>
</g>
<!-- 5771556800&#45;&gt;5771557184**2 -->
<g id="edge13" class="edge">
<title>5771556800&#45;&gt;5771557184**2</title>
<path fill="none" stroke="black" d="M1407.13,-155.5C1415.52,-155.5 1423.76,-155.5 1431.34,-155.5"/>
<polygon fill="black" stroke="black" points="1431.14,-159 1441.14,-155.5 1431.14,-152 1431.14,-159"/>
</g>
<!-- 5771556800e&#45;&gt;5771556800 -->
<g id="edge12" class="edge">
<title>5771556800e&#45;&gt;5771556800</title>
<path fill="none" stroke="black" d="M1213.11,-154.69C1220.22,-154.74 1228.33,-154.8 1236.87,-154.86"/>
<polygon fill="black" stroke="black" points="1236.76,-158.36 1246.79,-154.93 1236.81,-151.36 1236.76,-158.36"/>
</g>
</g>
</svg>
