<?xml version="1.0" encoding="UTF-8" standalone="no"?>
<!DOCTYPE svg PUBLIC "-//W3C//DTD SVG 1.1//EN"
 "http://www.w3.org/Graphics/SVG/1.1/DTD/svg11.dtd">
<!-- Generated by graphviz version 10.0.1 (20240210.2158)
 -->
<!-- Pages: 1 -->
<svg width="459pt" height="45pt"
 viewBox="0.00 0.00 458.87 45.00" xmlns="http://www.w3.org/2000/svg" xmlns:xlink="http://www.w3.org/1999/xlink">
<g id="graph0" class="graph" transform="scale(1 1) rotate(0) translate(4 41)">
<polygon fill="white" stroke="none" points="-4,4 -4,-41 454.87,-41 454.87,4 -4,4"/>
<!-- 5771450496 -->
<g id="node1" class="node">
<title>5771450496</title>
<polygon fill="none" stroke="black" points="292.62,-0.5 292.62,-36.5 450.87,-36.5 450.87,-0.5 292.62,-0.5"/>
<text text-anchor="middle" x="302.49" y="-13.7" font-family="Times,serif" font-size="14.00">t</text>
<polyline fill="none" stroke="black" points="312.37,-1 312.37,-36.5"/>
<text text-anchor="middle" x="339.12" y="-13.7" font-family="Times,serif" font-size="14.00">0.5000</text>
<polyline fill="none" stroke="black" points="365.87,-1 365.87,-36.5"/>
<text text-anchor="middle" x="408.37" y="-13.7" font-family="Times,serif" font-size="14.00">grad: 1.0000</text>
</g>
<!-- 5771450496**&#45;1 -->
<g id="node2" class="node">
<title>5771450496**&#45;1</title>
<ellipse fill="none" stroke="black" cx="228.81" cy="-18.5" rx="27.81" ry="18"/>
<text text-anchor="middle" x="228.81" y="-13.45" font-family="Times,serif" font-size="14.00">**&#45;1</text>
</g>
<!-- 5771450496**&#45;1&#45;&gt;5771450496 -->
<g id="edge1" class="edge">
<title>5771450496**&#45;1&#45;&gt;5771450496</title>
<path fill="none" stroke="black" d="M256.98,-18.5C264.16,-18.5 272.31,-18.5 280.88,-18.5"/>
<polygon fill="black" stroke="black" points="280.82,-22 290.82,-18.5 280.82,-15 280.82,-22"/>
</g>
<!-- 5771500560 -->
<g id="node3" class="node">
<title>5771500560</title>
<polygon fill="none" stroke="black" points="0,-0.5 0,-36.5 165,-36.5 165,-0.5 0,-0.5"/>
<text text-anchor="middle" x="11" y="-13.7" font-family="Times,serif" font-size="14.00">a</text>
<polyline fill="none" stroke="black" points="22,-1 22,-36.5"/>
<text text-anchor="middle" x="48.75" y="-13.7" font-family="Times,serif" font-size="14.00">2.0000</text>
<polyline fill="none" stroke="black" points="75.5,-1 75.5,-36.5"/>
<text text-anchor="middle" x="120.25" y="-13.7" font-family="Times,serif" font-size="14.00">grad: &#45;0.2500</text>
</g>
<!-- 5771500560&#45;&gt;5771450496**&#45;1 -->
<g id="edge2" class="edge">
<title>5771500560&#45;&gt;5771450496**&#45;1</title>
<path fill="none" stroke="black" d="M165.35,-18.5C173.7,-18.5 181.87,-18.5 189.41,-18.5"/>
<polygon fill="black" stroke="black" points="189.16,-22 199.16,-18.5 189.16,-15 189.16,-22"/>
</g>
</g>
</svg>
